<svg width="104" height="41" viewBox="0 0 104 41" fill="none" xmlns="http://www.w3.org/2000/svg">
<path d="M41.1264 14.7414V15.4024L39.8424 15.561V22.197L40.9168 20.5711L44.6903 15.9179V15.561L43.5242 15.4024V14.7414H47.1273V15.4024L46.0791 15.561V23.7833L47.1928 23.9155V24.5633H43.5373V23.9155L44.6903 23.7833V17.0548L43.7207 18.5882L39.8424 23.3074V23.7833L41.074 23.9155V24.5633H37.3792V23.9155L38.4666 23.7833V15.561L37.4185 15.4024V14.7414H41.1264ZM49.5087 15.561L48.4736 15.4024V14.7414H52.0374V15.4024L50.9106 15.561V19.117H55.5226V15.561L54.4614 15.4024V14.7414H57.9728V15.4024L56.9377 15.561V23.7833L57.9728 23.9155V24.5633H54.4482V23.9155L55.5226 23.7833V19.9366H50.9106V23.7833L52.0505 23.9155V24.5633H48.4474V23.9155L49.5087 23.7833V15.561ZM64.3029 16.2088C65.8927 16.2529 66.9801 16.5789 67.5653 17.187C68.1506 17.7951 68.4432 18.5926 68.4432 19.5796C68.4432 20.1966 68.2773 20.7561 67.9453 21.2585C67.6222 21.7608 67.1461 22.1663 66.5172 22.4746C65.8969 22.7831 65.1589 22.9594 64.3029 23.0034V24.0345L65.5607 24.1931V24.8409H61.7217V24.1667L62.9795 24.0081V23.0034C61.4072 22.9594 60.3242 22.62 59.7301 21.9855C59.1361 21.351 58.8392 20.5359 58.8392 19.54C58.8392 18.9231 58.9964 18.3724 59.3109 17.8876C59.634 17.4029 60.1057 17.0151 60.7259 16.7243C61.3461 16.4335 62.0973 16.2661 62.9795 16.222V15.2966L61.7217 15.1248V14.4771H65.5345V15.1248L64.3029 15.2966V16.2088ZM62.9795 16.764C61.9924 16.8257 61.3111 17.0944 60.9356 17.5703C60.56 18.0462 60.3722 18.6764 60.3722 19.4607C60.3722 20.2538 60.5556 20.928 60.9225 21.4832C61.2893 22.0296 61.975 22.3424 62.9795 22.4218V16.764ZM64.3029 22.435C65.2811 22.3557 65.9582 22.0693 66.3337 21.5757C66.7093 21.0734 66.8971 20.4124 66.8971 19.5929C66.8971 18.8086 66.7181 18.1652 66.3599 17.6629C66.0018 17.1518 65.3162 16.8565 64.3029 16.7772V22.435ZM73.2085 24.7087C72.3175 24.7087 71.562 24.5016 70.9418 24.0874C70.3304 23.6732 69.8674 23.0916 69.5529 22.3424C69.2385 21.5846 69.0812 20.7077 69.0812 19.7118C69.0812 18.6984 69.2691 17.8083 69.6446 17.0416C70.029 16.2749 70.5531 15.6844 71.2169 15.2702C71.8807 14.8472 72.6276 14.6357 73.4574 14.6357C74.8201 14.6357 75.8596 15.0719 76.5758 15.9444C77.3008 16.8081 77.6633 18.0066 77.6633 19.54C77.6633 20.5711 77.4667 21.4789 77.0737 22.2631C76.6893 23.0387 76.1565 23.6424 75.4752 24.0741C74.8026 24.4972 74.047 24.7087 73.2085 24.7087ZM73.3788 15.3231C72.5316 15.3231 71.8633 15.6977 71.3741 16.4467C70.885 17.187 70.6404 18.2754 70.6404 19.7118C70.6404 21.0337 70.8763 22.0825 71.3479 22.858C71.8283 23.6247 72.4966 24.0081 73.3526 24.0081C74.1912 24.0081 74.855 23.6247 75.3442 22.858C75.8421 22.0913 76.091 20.9898 76.091 19.5532C76.091 18.2225 75.8552 17.187 75.3835 16.4467C74.9118 15.6977 74.2436 15.3231 73.3788 15.3231ZM81.8911 15.442L79.6375 15.5214L79.179 18.2842H78.3142L78.5369 14.7414H86.6997L86.8569 18.2842H86.0315L85.5991 15.5214L83.3324 15.442V23.7833L85.1929 23.9155V24.5633H80.1878V23.9155L81.8911 23.7833V15.442ZM92.1815 22.5275C92.1466 22.598 92.0418 22.8492 91.8671 23.281C91.6923 23.704 91.4434 24.0477 91.1202 24.3121C90.7971 24.5765 90.4214 24.7087 89.9934 24.7087C89.7663 24.7087 89.5392 24.6867 89.3121 24.6426C89.0938 24.6074 88.9146 24.5589 88.7749 24.4972V23.5586L89.7052 23.5718C90.1069 23.5718 90.404 23.4925 90.5961 23.3339C90.7883 23.1665 90.9543 22.8712 91.094 22.4482L87.7922 15.561L87.0847 15.4024V14.7414H90.6223V15.4024L89.3383 15.561L91.4478 20.1613L91.8409 21.3642L92.2732 20.1481L93.9372 15.561L92.8235 15.4024V14.7414H95.6274V15.4024L94.9461 15.561L92.1815 22.5275ZM97.1327 15.561L96.1107 15.4024V14.7414H97.8533C98.1678 14.7414 98.4778 14.7282 98.7836 14.7018C99.2553 14.6666 99.7007 14.6489 100.12 14.6489C101.387 14.6578 102.282 14.8957 102.807 15.3627C103.331 15.8298 103.593 16.5349 103.593 17.4778C103.593 18.1829 103.431 18.7954 103.107 19.3153C102.784 19.8352 102.334 20.2318 101.758 20.505C101.19 20.7782 100.535 20.9148 99.7925 20.9148C99.5391 20.9148 99.2815 20.9104 99.0194 20.9016C98.7574 20.884 98.5957 20.8708 98.5346 20.8619V23.7701L100.33 23.9155V24.5633H96.0452V23.9155L97.1327 23.7833V15.561ZM98.5346 20.1348C98.7792 20.1789 99.1984 20.2009 99.7925 20.2009C100.482 20.2009 101.042 19.9894 101.47 19.5664C101.906 19.1434 102.125 18.4517 102.125 17.491C102.125 16.7332 101.937 16.1912 101.561 15.8651C101.186 15.5302 100.6 15.3627 99.8056 15.3627C99.526 15.3627 99.229 15.3804 98.9146 15.4156C98.7225 15.4333 98.5957 15.442 98.5346 15.442V20.1348Z" fill="#0566E5"/>
<path d="M37.8306 33.1353V30.2061H38.8938C39.0998 30.2061 39.2704 30.2404 39.4055 30.3091C39.5407 30.3767 39.6419 30.4687 39.7089 30.5851C39.7761 30.7005 39.8095 30.8306 39.8095 30.9756C39.8095 31.0976 39.7873 31.2006 39.7429 31.2845C39.6986 31.3674 39.639 31.4342 39.5643 31.4847C39.4906 31.5343 39.4093 31.5705 39.3205 31.5935V31.622C39.4169 31.6268 39.5109 31.6582 39.6026 31.7165C39.6952 31.7737 39.7718 31.8552 39.8323 31.961C39.8928 32.0669 39.923 32.1956 39.923 32.3472C39.923 32.4969 39.888 32.6314 39.818 32.7506C39.749 32.8688 39.6423 32.9627 39.4977 33.0323C39.3531 33.101 39.1683 33.1353 38.9433 33.1353H37.8306ZM38.2686 32.7562H38.9009C39.1107 32.7562 39.261 32.7152 39.3517 32.6332C39.4424 32.5512 39.4878 32.4487 39.4878 32.3257C39.4878 32.2333 39.4646 32.1484 39.4183 32.0711C39.372 31.9939 39.3058 31.9324 39.2198 31.8867C39.1348 31.8408 39.0336 31.818 38.9164 31.818H38.2686V32.7562ZM38.2686 31.4733H38.8555C38.9538 31.4733 39.0421 31.4542 39.1206 31.4161C39.2 31.3779 39.2628 31.3246 39.3092 31.2559C39.3564 31.1863 39.38 31.1043 39.38 31.0099C39.38 30.8887 39.338 30.7872 39.2538 30.7052C39.1698 30.6232 39.0407 30.5822 38.8669 30.5822H38.2686V31.4733ZM40.6878 33.1353H40.2229L41.2677 30.2061H41.7738L42.8186 33.1353H42.3535L41.5327 30.7382H41.5101L40.6878 33.1353ZM40.7658 31.9882H42.2742V32.3601H40.7658V31.9882ZM43.2761 30.2061H43.7099V32.752H44.6683V30.2061H45.1021V32.752H46.0575V30.2061H46.4899V33.1353H43.2761V30.2061ZM49.9466 33.1353L48.9712 31.8222H48.6621V33.1353H48.2241V30.2061H48.6621V31.4432H48.8053L49.9026 30.2061H50.4371L49.276 31.5176L50.481 33.1353H49.9466ZM53.2645 31.6706C53.2645 31.9834 53.2078 32.2523 53.0944 32.4773C52.981 32.7014 52.8256 32.874 52.628 32.9951C52.4315 33.1152 52.208 33.1753 51.9575 33.1753C51.7061 33.1753 51.4816 33.1152 51.2841 32.9951C51.0875 32.874 50.9325 32.701 50.8191 32.476C50.7057 32.2509 50.649 31.9825 50.649 31.6706C50.649 31.3579 50.7057 31.0895 50.8191 30.8654C50.9325 30.6404 51.0875 30.4678 51.2841 30.3477C51.4816 30.2265 51.7061 30.166 51.9575 30.166C52.208 30.166 52.4315 30.2265 52.628 30.3477C52.8256 30.4678 52.981 30.6404 53.0944 30.8654C53.2078 31.0895 53.2645 31.3579 53.2645 31.6706ZM52.8307 31.6706C52.8307 31.4323 52.7924 31.2316 52.716 31.0685C52.6403 30.9045 52.5363 30.7805 52.4041 30.6966C52.2726 30.6117 52.1238 30.5693 51.9575 30.5693C51.7902 30.5693 51.6409 30.6117 51.5095 30.6966C51.3781 30.7805 51.2742 30.9045 51.1976 31.0685C51.122 31.2316 51.0842 31.4323 51.0842 31.6706C51.0842 31.9091 51.122 32.1103 51.1976 32.2743C51.2742 32.4373 51.3781 32.5613 51.5095 32.6462C51.6409 32.73 51.7902 32.7719 51.9575 32.7719C52.1238 32.7719 52.2726 32.73 52.4041 32.6462C52.5363 32.5613 52.6403 32.4373 52.716 32.2743C52.7924 32.1103 52.8307 31.9091 52.8307 31.6706ZM53.8107 30.2061H54.3423L55.2666 32.4831H55.3007L56.225 30.2061H56.7566V33.1353H56.3398V31.0156H56.3129L55.4566 33.131H55.1107L54.2545 31.0141H54.2276V33.1353H53.8107V30.2061ZM59.6632 30.2061V33.1353H59.2265V30.5837H57.8599V33.1353H57.4233V30.2061H59.6632ZM60.5783 33.1353H60.1133L61.1581 30.2061H61.6642L62.709 33.1353H62.2441L61.4232 30.7382H61.4005L60.5783 33.1353ZM60.6562 31.9882H62.1646V32.3601H60.6562V31.9882ZM65.4033 31.1586H64.961C64.944 31.0633 64.9123 30.9793 64.866 30.9069C64.8197 30.8344 64.763 30.773 64.6958 30.7224C64.6288 30.6719 64.5537 30.6337 64.4704 30.6079C64.3882 30.5822 64.3008 30.5693 64.2082 30.5693C64.0409 30.5693 63.8911 30.6117 63.7588 30.6966C63.6274 30.7815 63.5235 30.906 63.4469 31.07C63.3713 31.234 63.3335 31.4342 63.3335 31.6706C63.3335 31.9091 63.3713 32.1103 63.4469 32.2743C63.5235 32.4383 63.6279 32.5622 63.7602 32.6462C63.8925 32.73 64.0413 32.7719 64.2067 32.7719C64.2985 32.7719 64.3854 32.7595 64.4676 32.7348C64.5508 32.709 64.6259 32.6714 64.6931 32.6218C64.7601 32.5722 64.8168 32.5117 64.8631 32.4401C64.9104 32.3677 64.943 32.2847 64.961 32.1913L65.4033 32.1927C65.3796 32.3367 65.3338 32.4692 65.2658 32.5904C65.1986 32.7105 65.1121 32.8144 65.0063 32.9022C64.9014 32.9889 64.7814 33.0562 64.6463 33.1039C64.5111 33.1515 64.3637 33.1753 64.204 33.1753C63.9526 33.1753 63.7285 33.1152 63.532 32.9951C63.3353 32.874 63.1804 32.701 63.0669 32.476C62.9546 32.2509 62.8983 31.9825 62.8983 31.6706C62.8983 31.3579 62.955 31.0895 63.0684 30.8654C63.1818 30.6404 63.3368 30.4678 63.5334 30.3477C63.7299 30.2265 63.9535 30.166 64.204 30.166C64.3579 30.166 64.5017 30.1884 64.6349 30.2332C64.7691 30.277 64.8896 30.3419 64.9964 30.4277C65.1032 30.5126 65.1916 30.6165 65.2615 30.7395C65.3314 30.8616 65.3787 31.0013 65.4033 31.1586ZM66.9839 33.1353V30.2061H68.0472C68.2532 30.2061 68.4239 30.2404 68.559 30.3091C68.6941 30.3767 68.7952 30.4687 68.8624 30.5851C68.9294 30.7005 68.963 30.8306 68.963 30.9756C68.963 31.0976 68.9408 31.2006 68.8964 31.2845C68.8519 31.3674 68.7924 31.4342 68.7178 31.4847C68.644 31.5343 68.5628 31.5705 68.4739 31.5935V31.622C68.5703 31.6268 68.6643 31.6582 68.756 31.7165C68.8487 31.7737 68.9252 31.8552 68.9857 31.961C69.0462 32.0669 69.0764 32.1956 69.0764 32.3472C69.0764 32.4969 69.0414 32.6314 68.9715 32.7506C68.9025 32.8688 68.7957 32.9627 68.6511 33.0323C68.5066 33.101 68.3217 33.1353 68.0968 33.1353H66.9839ZM67.422 32.7562H68.0543C68.2641 32.7562 68.4143 32.7152 68.5051 32.6332C68.5958 32.5512 68.6412 32.4487 68.6412 32.3257C68.6412 32.2333 68.618 32.1484 68.5718 32.0711C68.5254 31.9939 68.4593 31.9324 68.3733 31.8867C68.2882 31.8408 68.1871 31.818 68.0699 31.818H67.422V32.7562ZM67.422 31.4733H68.0089C68.1073 31.4733 68.1956 31.4542 68.274 31.4161C68.3534 31.3779 68.4163 31.3246 68.4626 31.2559C68.5099 31.1863 68.5335 31.1043 68.5335 31.0099C68.5335 30.8887 68.4914 30.7872 68.4073 30.7052C68.3231 30.6232 68.1942 30.5822 68.0203 30.5822H67.422V31.4733ZM70.6525 30.2061H71.1842L72.1084 32.4831H72.1425L73.0668 30.2061H73.5984V33.1353H73.1816V31.0156H73.1546L72.2984 33.131H71.9525L71.0962 31.0141H71.0693V33.1353H70.6525V30.2061ZM74.2353 30.2061H74.6691V32.3572H74.696L76.1732 30.2061H76.5787V33.1353H76.1406V30.9869H76.1137L74.6393 33.1353H74.2353V30.2061ZM77.2177 33.1353V30.2061H78.2526C78.4785 30.2061 78.6656 30.2475 78.8139 30.3304C78.9624 30.4135 79.0734 30.5269 79.1471 30.6709C79.2208 30.814 79.2577 30.9751 79.2577 31.1544C79.2577 31.3346 79.2203 31.4966 79.1457 31.6407C79.072 31.7836 78.9604 31.8971 78.8112 31.9811C78.6628 32.064 78.4761 32.1055 78.2511 32.1055H77.5395V31.7307H78.2114C78.3541 31.7307 78.4699 31.7059 78.5588 31.6564C78.6476 31.6059 78.7128 31.5372 78.7545 31.4504C78.796 31.3636 78.8168 31.265 78.8168 31.1544C78.8168 31.0437 78.796 30.9455 78.7545 30.8597C78.7128 30.7739 78.6472 30.7067 78.5574 30.658C78.4686 30.6094 78.3514 30.5851 78.2058 30.5851H77.6557V33.1353H77.2177ZM79.7712 33.1353V30.2061H81.5915V30.5865H80.2093V31.479H81.4965V31.8581H80.2093V32.7548H81.6085V33.1353H79.7712ZM85.7552 31.6706C85.7552 31.9834 85.6985 32.2523 85.5851 32.4773C85.4717 32.7014 85.3162 32.874 85.1186 32.9951C84.9221 33.1152 84.6985 33.1753 84.4481 33.1753C84.1967 33.1753 83.9723 33.1152 83.7747 32.9951C83.5781 32.874 83.4231 32.701 83.3097 32.476C83.1963 32.2509 83.1396 31.9825 83.1396 31.6706C83.1396 31.3579 83.1963 31.0895 83.3097 30.8654C83.4231 30.6404 83.5781 30.4678 83.7747 30.3477C83.9723 30.2265 84.1967 30.166 84.4481 30.166C84.6985 30.166 84.9221 30.2265 85.1186 30.3477C85.3162 30.4678 85.4717 30.6404 85.5851 30.8654C85.6985 31.0895 85.7552 31.3579 85.7552 31.6706ZM85.3214 31.6706C85.3214 31.4323 85.2831 31.2316 85.2066 31.0685C85.1309 30.9045 85.027 30.7805 84.8947 30.6966C84.7633 30.6117 84.6144 30.5693 84.4481 30.5693C84.2808 30.5693 84.1315 30.6117 84.0001 30.6966C83.8688 30.7805 83.7648 30.9045 83.6882 31.0685C83.6126 31.2316 83.5748 31.4323 83.5748 31.6706C83.5748 31.9091 83.6126 32.1103 83.6882 32.2743C83.7648 32.4373 83.8688 32.5613 84.0001 32.6462C84.1315 32.73 84.2808 32.7719 84.4481 32.7719C84.6144 32.7719 84.7633 32.73 84.8947 32.6462C85.027 32.5613 85.1309 32.4373 85.2066 32.2743C85.2831 32.1103 85.3214 31.9091 85.3214 31.6706ZM86.0334 30.5865V30.2061H88.2804V30.5865H87.3745V33.1353H86.9378V30.5865H86.0334ZM88.5572 33.8433V32.7606H88.7486C88.8138 32.7052 88.8747 32.6265 88.9314 32.5245C88.9881 32.4226 89.0363 32.2847 89.0761 32.1112C89.1158 31.9377 89.1431 31.715 89.1583 31.4432L89.2263 30.2061H91.0168V32.7606H91.3457V33.839H90.9261V33.1353H88.9768V33.8433H88.5572ZM89.2646 32.7606H90.5972V30.5865H89.6233L89.5779 31.4432C89.5657 31.6502 89.5453 31.8361 89.5169 32.0011C89.4895 32.166 89.4541 32.312 89.4106 32.4388C89.3681 32.5646 89.3194 32.6719 89.2646 32.7606ZM92.1332 31.3874H92.9158C93.1312 31.3874 93.3146 31.4228 93.4659 31.4933C93.6171 31.5638 93.7323 31.6635 93.8117 31.7923C93.8921 31.921 93.9317 32.0726 93.9308 32.2471C93.9317 32.4215 93.8921 32.5755 93.8117 32.709C93.7323 32.8426 93.6171 32.947 93.4659 33.0223C93.3146 33.0976 93.1312 33.1353 92.9158 33.1353H91.8285V30.2061H92.2679V32.7634H92.9158C93.0415 32.7634 93.1473 32.7386 93.2333 32.689C93.3203 32.6394 93.3859 32.5751 93.4303 32.4959C93.4758 32.4168 93.4984 32.3319 93.4984 32.2413C93.4984 32.1097 93.4484 31.9968 93.3481 31.9024C93.2479 31.807 93.1038 31.7593 92.9158 31.7593H92.1332V31.3874ZM94.6382 30.2061V33.1353H94.1988V30.2061H94.6382ZM95.5807 30.2061L96.2753 31.3517H96.2979L96.9926 30.2061H97.5002L96.5957 31.6706L97.5058 33.1353H96.9954L96.2979 32.0053H96.2753L95.5778 33.1353H95.0674L95.9932 31.6706L95.0731 30.2061H95.5807ZM98.1798 33.1353H97.7149L98.7597 30.2061H99.2658L100.311 33.1353H99.8457L99.0248 30.7382H99.0021L98.1798 33.1353ZM98.2578 31.9882H99.7663V32.3601H98.2578V31.9882Z" fill="#0566E5"/>
<path d="M0.0982666 22.1601L14.2942 21.6187V22.7016L0.0982666 22.1601Z" fill="#0566E5"/>
<path d="M10.9645 11.6567L17.0158 17.3172L16.5749 17.762L10.9645 11.6567Z" fill="#0566E5"/>
<path d="M9.79504 32.0105L15.8856 26.3931L16.2887 26.873L9.79504 32.0105Z" fill="#0566E5"/>
<path d="M21.8925 0.00439453L22.4293 14.3269H21.3558L21.8925 0.00439453Z" fill="#0566E5"/>
<path d="M15.0625 37.7208L19.4112 23.0166L25.5265 26.178L15.0625 37.7208Z" fill="#36A9DB"/>
<path d="M15.0625 37.721L22.2736 24.8037L25.5265 26.1782L15.0625 37.721Z" fill="#0566E5"/>
<path fill-rule="evenodd" clip-rule="evenodd" d="M28.3889 19.8298L32.1748 6.875L23.1311 16.7907C22.7717 16.8214 22.41 16.8895 22.0506 16.9975C19.2256 17.847 17.618 20.8463 18.46 23.6966C19.3019 26.5469 22.2747 28.1688 25.0998 27.3194C27.9249 26.4698 29.5325 23.4705 28.6906 20.6203C28.6092 20.3449 28.508 20.0811 28.3889 19.8298Z" fill="#FFBB00"/>
<path d="M24.8498 26.2264C27.0757 25.557 28.3424 23.1939 27.679 20.9481C27.0156 18.7024 24.6733 17.4244 22.4474 18.0937C20.2215 18.7631 18.9548 21.1262 19.6182 23.372C20.2816 25.6177 22.6239 26.8957 24.8498 26.2264Z" fill="white"/>
</svg>
