<svg width="205" height="81" viewBox="0 0 205 81" fill="none" xmlns="http://www.w3.org/2000/svg">
<g clip-path="url(#clip0_355_198)">
<path d="M81.0141 28.9028V30.1925L78.4954 30.502V43.4503L80.6029 40.2777L88.0047 31.1984V30.502L85.7174 30.1925V28.9028H92.7851V30.1925L90.729 30.502V46.5456L92.9136 46.8035V48.0674H85.7431V46.8035L88.0047 46.5456V33.4167L86.1029 36.4087L78.4954 45.617V46.5456L80.9113 46.8035V48.0674H73.6637V46.8035L75.7969 46.5456V30.502L73.7408 30.1925V28.9028H81.0141ZM97.4562 30.502L95.4258 30.1925V28.9028H102.416V30.1925L100.206 30.502V37.4405H109.253V30.502L107.171 30.1925V28.9028H114.059V30.1925L112.029 30.502V46.5456L114.059 46.8035V48.0674H107.145V46.8035L109.253 46.5456V39.0397H100.206V46.5456L102.442 46.8035V48.0674H95.3744V46.8035L97.4562 46.5456V30.502ZM126.476 31.7659C129.594 31.8519 131.727 32.4881 132.875 33.6746C134.023 34.8611 134.597 36.4174 134.597 38.3432C134.597 39.5471 134.272 40.6388 133.62 41.619C132.987 42.5992 132.053 43.3903 130.819 43.992C129.602 44.5939 128.155 44.9379 126.476 45.0237V47.0356L128.943 47.3451V48.609H121.413V47.2936L123.88 46.984V45.0237C120.796 44.9379 118.671 44.2757 117.506 43.0376C116.341 41.7996 115.758 40.209 115.758 38.2659C115.758 37.0622 116.067 35.9876 116.684 35.0417C117.317 34.096 118.243 33.3393 119.459 32.7718C120.676 32.2044 122.149 31.8777 123.88 31.7917V29.9862L121.413 29.6508V28.387H128.891V29.6508L126.476 29.9862V31.7659ZM123.88 32.8492C121.944 32.9697 120.607 33.4941 119.871 34.4226C119.134 35.3512 118.765 36.5808 118.765 38.1111C118.765 39.6587 119.125 40.9742 119.845 42.0575C120.564 43.1237 121.909 43.7341 123.88 43.8888V32.8492ZM126.476 43.9146C128.395 43.7599 129.723 43.2011 130.459 42.238C131.196 41.2579 131.564 39.9682 131.564 38.369C131.564 36.8388 131.213 35.5833 130.511 34.6032C129.808 33.6059 128.463 33.0298 126.476 32.875V43.9146ZM143.944 48.3511C142.197 48.3511 140.715 47.9471 139.498 47.1388C138.299 46.3307 137.391 45.1958 136.774 43.7341C136.157 42.2554 135.849 40.5443 135.849 38.6012C135.849 36.6237 136.217 34.8869 136.954 33.3909C137.708 31.8949 138.736 30.7428 140.038 29.9346C141.34 29.1092 142.805 28.6965 144.433 28.6965C147.105 28.6965 149.144 29.5477 150.549 31.25C151.972 32.9353 152.683 35.2738 152.683 38.2659C152.683 40.2777 152.297 42.049 151.526 43.5793C150.772 45.0927 149.727 46.2705 148.391 47.113C147.071 47.9384 145.589 48.3511 143.944 48.3511ZM144.278 30.0377C142.616 30.0377 141.306 30.7686 140.346 32.2302C139.387 33.6746 138.907 35.7983 138.907 38.6012C138.907 41.1805 139.37 43.2269 140.295 44.74C141.237 46.236 142.548 46.984 144.227 46.984C145.872 46.984 147.174 46.236 148.134 44.74C149.11 43.244 149.598 41.0947 149.598 38.2916C149.598 35.6952 149.136 33.6746 148.211 32.2302C147.285 30.7686 145.975 30.0377 144.278 30.0377ZM160.976 30.2699L156.555 30.4246L155.656 35.8155H153.959L154.396 28.9028H170.408L170.716 35.8155H169.097L168.249 30.4246L163.803 30.2699V46.5456L167.452 46.8035V48.0674H157.635V46.8035L160.976 46.5456V30.2699ZM181.161 44.0952C181.092 44.2328 180.887 44.7229 180.544 45.5654C180.201 46.3908 179.713 47.0614 179.079 47.5773C178.445 48.0932 177.708 48.3511 176.869 48.3511C176.423 48.3511 175.978 48.3082 175.532 48.2221C175.104 48.1534 174.753 48.0589 174.478 47.9384V46.1071L176.303 46.1329C177.091 46.1329 177.674 45.9781 178.051 45.6686C178.428 45.3419 178.753 44.7658 179.027 43.9404L172.551 30.502L171.163 30.1925V28.9028H178.102V30.1925L175.584 30.502L179.721 39.4781L180.492 41.8253L181.341 39.4524L184.605 30.502L182.42 30.1925V28.9028H187.92V30.1925L186.584 30.502L181.161 44.0952ZM190.873 30.502L188.868 30.1925V28.9028H192.286C192.903 28.9028 193.511 28.877 194.111 28.8255C195.036 28.7567 195.91 28.7223 196.732 28.7223C199.217 28.7396 200.973 29.2039 202.002 30.1151C203.03 31.0266 203.544 32.4023 203.544 34.2421C203.544 35.6178 203.227 36.813 202.592 37.8274C201.958 38.842 201.076 39.6158 199.945 40.1488C198.831 40.682 197.546 40.9484 196.09 40.9484C195.593 40.9484 195.087 40.9399 194.573 40.9226C194.059 40.8883 193.742 40.8625 193.623 40.8452V46.5198L197.144 46.8035V48.0674H188.739V46.8035L190.873 46.5456V30.502ZM193.623 39.4266C194.102 39.5126 194.925 39.5555 196.09 39.5555C197.443 39.5555 198.54 39.1428 199.38 38.3174C200.236 37.4921 200.665 36.1423 200.665 34.2679C200.665 32.7892 200.296 31.7316 199.559 31.0953C198.823 30.442 197.675 30.1151 196.116 30.1151C195.567 30.1151 194.985 30.1496 194.368 30.2183C193.991 30.2528 193.742 30.2699 193.623 30.2699V39.4266Z" fill="white"/>
<path d="M74.5493 64.7927V59.0772H76.6349C77.0389 59.0772 77.3736 59.1441 77.6386 59.2781C77.9039 59.4101 78.1023 59.5897 78.2338 59.8168C78.3655 60.0418 78.4311 60.2957 78.4311 60.5787C78.4311 60.8167 78.3876 61.0178 78.3004 61.1814C78.2135 61.3432 78.0966 61.4736 77.9501 61.5721C77.8055 61.6688 77.6461 61.7396 77.4718 61.7843V61.8399C77.6609 61.8494 77.8454 61.9107 78.0251 62.0243C78.2069 62.136 78.3571 62.2949 78.4757 62.5015C78.5944 62.708 78.6536 62.9591 78.6536 63.2549C78.6536 63.5471 78.5851 63.8095 78.4478 64.042C78.3125 64.2728 78.1031 64.456 77.8195 64.5918C77.5358 64.7258 77.1734 64.7927 76.7321 64.7927H74.5493ZM75.4085 64.0531H76.6488C77.0604 64.0531 77.3551 63.9731 77.533 63.8131C77.7109 63.6531 77.8001 63.453 77.8001 63.213C77.8001 63.0327 77.7545 62.867 77.6637 62.7163C77.573 62.5656 77.4431 62.4457 77.2744 62.3564C77.1076 62.2669 76.9092 62.2224 76.6793 62.2224H75.4085V64.0531ZM75.4085 61.5498H76.5598C76.7526 61.5498 76.9258 61.5125 77.0798 61.4381C77.2354 61.3638 77.3587 61.2596 77.4497 61.1256C77.5423 60.9898 77.5886 60.8298 77.5886 60.6456C77.5886 60.4092 77.5061 60.2111 77.3411 60.0511C77.1762 59.8911 76.923 59.8111 76.5821 59.8111H75.4085V61.5498ZM80.1539 64.7927H79.2419L81.2914 59.0772H82.284L84.3335 64.7927H83.4213L81.8112 60.1154H81.7668L80.1539 64.7927ZM80.3069 62.5545H83.2657V63.2801H80.3069V62.5545ZM85.231 59.0772H86.0819V64.0449H87.9617V59.0772H88.8127V64.0449H90.6868V59.0772H91.5349V64.7927H85.231V59.0772ZM98.3153 64.7927L96.402 62.2307H95.7958V64.7927H94.9367V59.0772H95.7958V61.4911H96.0767L98.229 59.0772H99.2775L97 61.6362L99.3636 64.7927H98.3153ZM104.824 61.9348C104.824 62.5452 104.712 63.0698 104.49 63.5088C104.267 63.9461 103.963 64.2829 103.575 64.5192C103.19 64.7536 102.751 64.8709 102.26 64.8709C101.767 64.8709 101.326 64.7536 100.939 64.5192C100.553 64.2829 100.249 63.9453 100.027 63.5062C99.8044 63.0671 99.6931 62.5434 99.6931 61.9348C99.6931 61.3247 99.8044 60.8009 100.027 60.3637C100.249 59.9246 100.553 59.5878 100.939 59.3535C101.326 59.1171 101.767 58.999 102.26 58.999C102.751 58.999 103.19 59.1171 103.575 59.3535C103.963 59.5878 104.267 59.9246 104.49 60.3637C104.712 60.8009 104.824 61.3247 104.824 61.9348ZM103.973 61.9348C103.973 61.4698 103.898 61.0782 103.748 60.76C103.599 60.44 103.395 60.198 103.136 60.0344C102.878 59.8687 102.586 59.7859 102.26 59.7859C101.932 59.7859 101.639 59.8687 101.381 60.0344C101.123 60.198 100.92 60.44 100.769 60.76C100.621 61.0782 100.547 61.4698 100.547 61.9348C100.547 62.4001 100.621 62.7927 100.769 63.1127C100.92 63.4309 101.123 63.6727 101.381 63.8383C101.639 64.0019 101.932 64.0838 102.26 64.0838C102.586 64.0838 102.878 64.0019 103.136 63.8383C103.395 63.6727 103.599 63.4309 103.748 63.1127C103.898 62.7927 103.973 62.4001 103.973 61.9348ZM105.895 59.0772H106.938L108.751 63.5201H108.818L110.631 59.0772H111.674V64.7927H110.856V60.6567H110.803L109.124 64.7844H108.445L106.765 60.6538H106.713V64.7927H105.895V59.0772ZM117.375 59.0772V64.7927H116.518V59.8139H113.838V64.7927H112.981V59.0772H117.375ZM119.17 64.7927H118.258L120.307 59.0772H121.3L123.349 64.7927H122.437L120.827 60.1154H120.783L119.17 64.7927ZM119.323 62.5545H122.282V63.2801H119.323V62.5545ZM128.634 60.9357H127.767C127.733 60.7498 127.671 60.5859 127.58 60.4447C127.49 60.3032 127.378 60.1833 127.247 60.0846C127.115 59.986 126.968 59.9117 126.804 59.8613C126.643 59.8111 126.472 59.7859 126.29 59.7859C125.962 59.7859 125.668 59.8687 125.409 60.0344C125.151 60.2 124.947 60.4429 124.797 60.7629C124.648 61.0829 124.574 61.4736 124.574 61.9348C124.574 62.4001 124.648 62.7927 124.797 63.1127C124.947 63.4327 125.152 63.6745 125.411 63.8383C125.671 64.0019 125.963 64.0838 126.287 64.0838C126.467 64.0838 126.638 64.0596 126.799 64.0112C126.962 63.961 127.109 63.8875 127.241 63.7908C127.373 63.694 127.484 63.5759 127.575 63.4363C127.667 63.295 127.731 63.133 127.767 62.9509L128.634 62.9535C128.588 63.2346 128.498 63.4931 128.365 63.7295C128.233 63.9639 128.063 64.1666 127.856 64.3379C127.65 64.5071 127.414 64.6383 127.149 64.7314C126.884 64.8243 126.595 64.8709 126.282 64.8709C125.789 64.8709 125.349 64.7536 124.964 64.5192C124.578 64.2829 124.274 63.9453 124.051 63.5062C123.831 63.0671 123.721 62.5434 123.721 61.9348C123.721 61.3247 123.832 60.8009 124.054 60.3637C124.277 59.9246 124.581 59.5878 124.966 59.3535C125.352 59.1171 125.79 58.999 126.282 58.999C126.584 58.999 126.866 59.0428 127.127 59.1302C127.39 59.2156 127.627 59.3422 127.836 59.5097C128.046 59.6753 128.219 59.878 128.356 60.118C128.493 60.3562 128.586 60.6288 128.634 60.9357ZM131.735 64.7927V59.0772H133.82C134.225 59.0772 134.559 59.1441 134.824 59.2781C135.089 59.4101 135.288 59.5897 135.419 59.8168C135.551 60.0418 135.617 60.2957 135.617 60.5787C135.617 60.8167 135.573 61.0178 135.486 61.1814C135.399 61.3432 135.282 61.4736 135.136 61.5721C134.991 61.6688 134.832 61.7396 134.657 61.7843V61.8399C134.847 61.8494 135.031 61.9107 135.211 62.0243C135.393 62.136 135.543 62.2949 135.661 62.5015C135.78 62.708 135.839 62.9591 135.839 63.2549C135.839 63.5471 135.771 63.8095 135.633 64.042C135.498 64.2728 135.289 64.456 135.005 64.5918C134.721 64.7258 134.359 64.7927 133.918 64.7927H131.735ZM132.594 64.0531H133.834C134.246 64.0531 134.541 63.9731 134.719 63.8131C134.897 63.6531 134.986 63.453 134.986 63.213C134.986 63.0327 134.94 62.867 134.849 62.7163C134.758 62.5656 134.629 62.4457 134.46 62.3564C134.293 62.2669 134.095 62.2224 133.865 62.2224H132.594V64.0531ZM132.594 61.5498H133.745C133.938 61.5498 134.111 61.5125 134.265 61.4381C134.421 61.3638 134.544 61.2596 134.635 61.1256C134.728 60.9898 134.774 60.8298 134.774 60.6456C134.774 60.4092 134.692 60.2111 134.527 60.0511C134.362 59.8911 134.109 59.8111 133.768 59.8111H132.594V61.5498ZM138.931 59.0772H139.974L141.787 63.5201H141.853L143.667 59.0772H144.709V64.7927H143.892V60.6567H143.839L142.159 64.7844H141.481L139.801 60.6538H139.748V64.7927H138.931V59.0772ZM145.959 59.0772H146.81V63.2745H146.862L149.76 59.0772H150.555V64.7927H149.696V60.6008H149.643L146.751 64.7927H145.959V59.0772ZM151.809 64.7927V59.0772H153.839C154.282 59.0772 154.649 59.158 154.94 59.3198C155.231 59.4818 155.449 59.7031 155.593 59.9842C155.738 60.2633 155.81 60.5777 155.81 60.9275C155.81 61.2791 155.737 61.5953 155.591 61.8764C155.446 62.1553 155.227 62.3768 154.934 62.5406C154.643 62.7024 154.277 62.7834 153.836 62.7834H152.44V62.0521H153.758C154.038 62.0521 154.265 62.0038 154.439 61.907C154.613 61.8085 154.741 61.6745 154.823 61.5052C154.905 61.3358 154.945 61.1433 154.945 60.9275C154.945 60.7117 154.905 60.52 154.823 60.3526C154.741 60.1851 154.613 60.0539 154.437 59.959C154.262 59.8641 154.032 59.8168 153.747 59.8168H152.668V64.7927H151.809ZM156.818 64.7927V59.0772H160.388V59.8196H157.677V61.561H160.202V62.3006H157.677V64.0503H160.421V64.7927H156.818ZM168.555 61.9348C168.555 62.5452 168.444 63.0698 168.222 63.5088C167.999 63.9461 167.694 64.2829 167.307 64.5192C166.921 64.7536 166.483 64.8709 165.991 64.8709C165.498 64.8709 165.058 64.7536 164.671 64.5192C164.285 64.2829 163.981 63.9453 163.758 63.5062C163.536 63.0671 163.425 62.5434 163.425 61.9348C163.425 61.3247 163.536 60.8009 163.758 60.3637C163.981 59.9246 164.285 59.5878 164.671 59.3535C165.058 59.1171 165.498 58.999 165.991 58.999C166.483 58.999 166.921 59.1171 167.307 59.3535C167.694 59.5878 167.999 59.9246 168.222 60.3637C168.444 60.8009 168.555 61.3247 168.555 61.9348ZM167.704 61.9348C167.704 61.4698 167.629 61.0782 167.479 60.76C167.331 60.44 167.127 60.198 166.867 60.0344C166.61 59.8687 166.318 59.7859 165.991 59.7859C165.663 59.7859 165.37 59.8687 165.113 60.0344C164.855 60.198 164.651 60.44 164.501 60.76C164.352 61.0782 164.278 61.4698 164.278 61.9348C164.278 62.4001 164.352 62.7927 164.501 63.1127C164.651 63.4309 164.855 63.6727 165.113 63.8383C165.37 64.0019 165.663 64.0838 165.991 64.0838C166.318 64.0838 166.61 64.0019 166.867 63.8383C167.127 63.6727 167.331 63.4309 167.479 63.1127C167.629 62.7927 167.704 62.4001 167.704 61.9348ZM169.101 59.8196V59.0772H173.509V59.8196H171.732V64.7927H170.875V59.8196H169.101ZM174.052 66.1742V64.0616H174.427C174.555 63.9536 174.674 63.8 174.786 63.6009C174.897 63.402 174.991 63.133 175.069 62.7945C175.147 62.4559 175.201 62.0215 175.231 61.4911L175.364 59.0772H178.876V64.0616H179.521V66.1658H178.698V64.7927H174.875V66.1742H174.052ZM175.439 64.0616H178.053V59.8196H176.143L176.054 61.4911C176.03 61.8949 175.99 62.2577 175.934 62.5797C175.88 62.9015 175.811 63.1862 175.725 63.4337C175.642 63.6791 175.547 63.8885 175.439 64.0616ZM181.066 61.3823H182.601C183.024 61.3823 183.383 61.4512 183.68 61.5888C183.977 61.7265 184.203 61.9209 184.359 62.1722C184.516 62.4233 184.594 62.7191 184.592 63.0597C184.594 63.4 184.516 63.7005 184.359 63.961C184.203 64.2216 183.977 64.4253 183.68 64.5722C183.383 64.7191 183.024 64.7927 182.601 64.7927H180.468V59.0772H181.33V64.067H182.601C182.848 64.067 183.055 64.0187 183.224 63.9219C183.395 63.8252 183.523 63.6997 183.61 63.5451C183.7 63.3908 183.744 63.2251 183.744 63.0484C183.744 62.7917 183.646 62.5712 183.449 62.387C183.253 62.201 182.97 62.1079 182.601 62.1079H181.066V61.3823ZM185.98 59.0772V64.7927H185.118V59.0772H185.98ZM187.828 59.0772L189.191 61.3126H189.235L190.598 59.0772H191.594L189.819 61.9348L191.605 64.7927H190.603L189.235 62.5879H189.191L187.823 64.7927H186.822L188.638 61.9348L186.833 59.0772H187.828ZM192.927 64.7927H192.015L194.064 59.0772H195.057L197.106 64.7927H196.194L194.584 60.1154H194.54L192.927 64.7927ZM193.08 62.5545H196.039V63.2801H193.08V62.5545Z" fill="white"/>
<path d="M0.535767 43.3781L28.3817 42.3215V44.4346L0.535767 43.3781Z" fill="white"/>
<path d="M21.8503 22.8831L33.7203 33.9279L32.8555 34.7958L21.8503 22.8831Z" fill="white"/>
<path d="M19.5565 62.598L31.5033 51.6372L32.294 52.5736L19.5565 62.598Z" fill="white"/>
<path d="M43.2861 0.147461L44.3391 28.0938H42.2334L43.2861 0.147461Z" fill="white"/>
<path d="M29.8888 73.7403L38.4188 45.0491L50.4143 51.2177L29.8888 73.7403Z" fill="#36A9DB"/>
<path d="M29.8888 73.7403L44.0337 48.5359L50.4143 51.2178L29.8888 73.7403Z" fill="#0566E5"/>
<path fill-rule="evenodd" clip-rule="evenodd" d="M56.0291 38.8314L63.4552 13.5537L45.7156 32.9015C45.0107 32.9613 44.3013 33.0941 43.5963 33.3049C38.0548 34.9625 34.9014 40.8148 36.5531 46.3763C38.2046 51.9379 44.0358 55.1026 49.5774 53.4452C55.1189 51.7875 58.2723 45.9352 56.6208 40.3737C56.4612 39.8365 56.2626 39.3216 56.0291 38.8314Z" fill="#FFBB00"/>
<path d="M49.0871 51.3124C53.4533 50.0064 55.9379 45.3954 54.6366 41.0134C53.3353 36.6314 48.7409 34.1379 44.3746 35.4439C40.0084 36.7499 37.5238 41.3609 38.8251 45.7429C40.1264 50.1248 44.7208 52.6184 49.0871 51.3124Z" fill="white"/>
</g>
<defs>
<clipPath id="clip0_355_198">
<rect width="204" height="80" fill="white" transform="translate(0.34314 0.138672)"/>
</clipPath>
</defs>
</svg>
