<svg width="551" height="132" viewBox="0 0 551 132" fill="none" xmlns="http://www.w3.org/2000/svg">
<g filter="url(#filter0_d_196_36)">
<path d="M74.8284 11.5513C74.8284 12.6346 74.4534 13.7596 73.7034 14.9263C72.9534 16.0929 71.9326 17.2388 70.6409 18.3638C69.3909 19.4471 67.9118 20.5096 66.2034 21.5513C64.5368 22.5929 62.7868 23.5513 60.9534 24.4263C59.1201 25.3013 57.2451 26.0929 55.3284 26.8013C53.4534 27.4679 51.6618 28.0096 49.9534 28.4263C51.9118 28.4263 53.7243 28.5304 55.3909 28.7388C57.0576 28.9054 58.4951 29.2804 59.7034 29.8638C60.9534 30.4054 61.9326 31.1971 62.6409 32.2388C63.3493 33.2804 63.7034 34.6346 63.7034 36.3013C63.7034 37.9263 62.7243 39.8429 60.7659 42.0513C58.8493 44.2596 56.0784 46.3638 52.4534 48.3638C48.8284 50.4054 44.4118 52.1138 39.2034 53.4888C34.0368 54.9054 28.1826 55.6138 21.6409 55.6138C19.8909 55.6138 18.0368 55.4471 16.0784 55.1138C14.1201 54.7804 12.3076 54.2179 10.6409 53.4263C9.01593 52.6346 7.66176 51.5929 6.57843 50.3013C5.4951 49.0513 4.95343 47.4888 4.95343 45.6138C4.95343 44.3638 5.4951 43.2388 6.57843 42.2388C7.66176 41.2388 9.0576 40.3846 10.7659 39.6763C12.5159 38.9263 14.4951 38.3013 16.7034 37.8013C18.9118 37.3013 21.1409 36.8846 23.3909 36.5513C24.5993 34.6763 26.1409 32.5304 28.0159 30.1138C29.9326 27.6554 31.9534 25.0929 34.0784 22.4263C36.2451 19.7596 38.4326 17.0929 40.6409 14.4263C42.8909 11.7596 44.9534 9.2596 46.8284 6.92627C46.9951 6.71794 47.0784 6.48877 47.0784 6.23877C47.0784 5.98877 47.3076 5.92627 47.7659 6.05127C48.1409 6.17627 48.4534 6.3846 48.7034 6.67627C48.9534 6.96794 49.1409 7.30127 49.2659 7.67627C49.4326 8.0096 49.5368 8.36377 49.5784 8.73877C49.6201 9.0721 49.5993 9.3221 49.5159 9.48877C49.4326 9.73877 49.3284 9.92627 49.2034 10.0513C47.3701 12.2596 45.5159 14.5096 43.6409 16.8013C42.0576 18.7596 40.3076 20.8846 38.3909 23.1763C36.5159 25.4263 34.7243 27.5929 33.0159 29.6763C33.1826 29.5096 33.3284 29.3846 33.4534 29.3013C33.5784 29.2179 33.6826 29.1346 33.7659 29.0513C33.8493 29.0096 34.4743 28.4263 35.6409 27.3013C36.8493 26.1763 38.3909 24.8013 40.2659 23.1763C42.1826 21.5513 44.3701 19.8013 46.8284 17.9263C49.2868 16.0096 51.8076 14.2388 54.3909 12.6138C56.9743 10.9888 59.5368 9.6346 62.0784 8.55127C64.6201 7.46794 66.9534 6.92627 69.0784 6.92627C70.7868 6.92627 72.1618 7.36377 73.2034 8.23877C74.2868 9.0721 74.8284 10.1763 74.8284 11.5513ZM42.5159 27.6138C42.7243 27.4888 43.5993 27.1763 45.1409 26.6763C46.7243 26.1346 48.6201 25.4471 50.8284 24.6138C53.0784 23.7388 55.4743 22.7388 58.0159 21.6138C60.5576 20.4888 62.8909 19.2804 65.0159 17.9888C67.1826 16.6971 68.9743 15.3429 70.3909 13.9263C71.8076 12.4679 72.5159 11.0096 72.5159 9.55127C72.5159 9.30127 72.4118 9.09294 72.2034 8.92627C71.9951 8.7596 71.3493 8.67627 70.2659 8.67627C68.6409 8.67627 66.7243 9.15544 64.5159 10.1138C62.3493 11.0304 60.0159 12.2388 57.5159 13.7388C55.0159 15.2388 52.4326 16.9679 49.7659 18.9263C47.1409 20.8429 44.5784 22.8221 42.0784 24.8638C39.5784 26.8638 37.2034 28.8221 34.9534 30.7388C32.7451 32.6554 30.8284 34.3638 29.2034 35.8638C30.5368 35.7388 31.7659 35.6554 32.8909 35.6138C34.0576 35.5721 35.1201 35.5513 36.0784 35.5513C36.4951 35.5513 37.0159 35.5513 37.6409 35.5513C38.2659 35.5513 38.8701 35.5929 39.4534 35.6763C40.0368 35.7596 40.5159 35.9054 40.8909 36.1138C41.3076 36.2804 41.5159 36.5513 41.5159 36.9263C41.5159 37.3013 41.3493 37.4888 41.0159 37.4888C40.8493 37.4888 40.7243 37.4471 40.6409 37.3638C40.5576 37.2804 40.4326 37.2388 40.2659 37.2388C39.6826 37.1971 39.0993 37.1763 38.5159 37.1763C37.9326 37.1346 37.3284 37.1138 36.7034 37.1138C34.9534 37.1138 33.2868 37.1763 31.7034 37.3013C30.1201 37.3846 28.5993 37.5096 27.1409 37.6763C26.6409 38.1346 26.1826 38.5513 25.7659 38.9263C25.3909 39.3013 25.0784 39.6138 24.8284 39.8638C24.4951 40.1554 24.2243 40.4054 24.0159 40.6138C23.5993 40.6138 23.2868 40.5304 23.0784 40.3638C22.9118 40.1971 22.8076 40.0096 22.7659 39.8013C22.3909 39.4263 22.2451 38.9888 22.3284 38.4888C19.8284 38.9888 17.5784 39.5721 15.5784 40.2388C13.6201 40.9054 11.9534 41.6138 10.5784 42.3638C9.20343 43.0721 8.16176 43.7804 7.45343 44.4888C6.7451 45.1971 6.39093 45.8429 6.39093 46.4263C6.39093 46.7179 6.64093 47.1554 7.14093 47.7388C7.6826 48.3638 8.57843 48.9888 9.82843 49.6138C11.0784 50.2388 12.7451 50.7804 14.8284 51.2388C16.9534 51.6971 19.5993 51.9263 22.7659 51.9263C25.9326 51.9263 29.0993 51.6346 32.2659 51.0513C35.4326 50.5096 38.4534 49.7804 41.3284 48.8638C44.2451 47.9471 46.9534 46.8846 49.4534 45.6763C51.9951 44.4679 54.1826 43.2179 56.0159 41.9263C57.8909 40.5929 59.3493 39.2596 60.3909 37.9263C61.4743 36.5929 62.0159 35.3429 62.0159 34.1763C62.0159 33.1346 61.4951 32.3638 60.4534 31.8638C59.4534 31.3638 58.1618 31.0304 56.5784 30.8638C55.0368 30.6554 53.3284 30.5721 51.4534 30.6138C49.5784 30.6554 47.8076 30.6763 46.1409 30.6763C45.3909 30.6763 44.7243 30.6346 44.1409 30.5513C43.5576 30.4679 43.1826 30.1138 43.0159 29.4888C43.0159 29.4054 42.9951 29.3429 42.9534 29.3013C42.9534 29.2596 42.9534 29.1971 42.9534 29.1138C42.9534 29.0304 42.9743 28.9679 43.0159 28.9263C42.3909 28.7596 42.0784 28.5096 42.0784 28.1763C42.0784 27.9679 42.2243 27.7804 42.5159 27.6138ZM68.1409 46.0513C68.6409 46.0513 69.3076 45.8013 70.1409 45.3013C71.0159 44.7596 71.9534 44.0721 72.9534 43.2388C73.9951 42.4054 75.0576 41.4471 76.1409 40.3638C77.2659 39.2388 78.3701 38.1138 79.4534 36.9888C78.9951 36.7804 78.7659 36.4679 78.7659 36.0513C78.7659 35.9263 78.9326 35.6971 79.2659 35.3638C79.6409 35.0304 80.0159 34.6554 80.3909 34.2388C80.8076 33.7804 81.1826 33.2804 81.5159 32.7388C81.8909 32.1971 82.0784 31.6763 82.0784 31.1763C82.0784 30.7179 81.8493 30.4888 81.3909 30.4888C81.0159 30.4888 80.4118 30.7596 79.5784 31.3013C78.7451 31.8429 77.8076 32.5721 76.7659 33.4888C75.7659 34.3638 74.7243 35.3638 73.6409 36.4888C72.5993 37.5721 71.6201 38.6763 70.7034 39.8013C69.8284 40.9263 69.0993 41.9888 68.5159 42.9888C67.9743 43.9888 67.7034 44.8429 67.7034 45.5513C67.7034 45.8846 67.8493 46.0513 68.1409 46.0513ZM46.3909 73.4888C48.3909 72.9471 50.2451 72.1763 51.9534 71.1763C53.6201 70.2179 55.2659 68.9679 56.8909 67.4263C58.5159 65.9263 60.1826 64.1138 61.8909 61.9888C63.5576 59.9054 65.4118 57.4679 67.4534 54.6763C65.8701 55.6346 64.1826 56.6763 62.3909 57.8013C60.5576 58.9263 58.5784 60.1554 56.4534 61.4888C53.9951 63.0721 51.9743 64.4471 50.3909 65.6138C48.7659 66.8221 47.4951 67.8638 46.5784 68.7388C45.6201 69.6138 44.9743 70.3429 44.6409 70.9263C44.2659 71.5513 44.0784 72.0513 44.0784 72.4263C44.0784 72.8846 44.2451 73.1971 44.5784 73.3638C44.9118 73.5304 45.2868 73.6138 45.7034 73.6138C45.9118 73.6138 46.1409 73.5721 46.3909 73.4888ZM74.9534 51.7388C72.2451 55.4054 69.8284 58.6346 67.7034 61.4263C65.2034 64.6763 62.8493 67.3429 60.6409 69.4263C58.4326 71.5513 56.2659 73.1346 54.1409 74.1763C52.0159 75.2179 49.7451 75.7388 47.3284 75.7388C46.2034 75.7388 45.2034 75.3638 44.3284 74.6138C43.4118 73.8638 42.9534 72.9054 42.9534 71.7388C42.9534 70.3638 43.7243 68.9054 45.2659 67.3638C46.8076 65.8221 48.8493 64.1971 51.3909 62.4888C53.9326 60.7804 56.8284 58.9679 60.0784 57.0513C63.2868 55.1763 66.5576 53.2388 69.8909 51.2388C70.8909 49.8221 71.9534 48.3221 73.0784 46.7388C74.2034 45.1971 75.3909 43.5513 76.6409 41.8013C75.8493 42.5929 75.0368 43.3638 74.2034 44.1138C73.4118 44.8638 72.6618 45.5304 71.9534 46.1138C71.2451 46.6554 70.5993 47.0929 70.0159 47.4263C69.4326 47.7596 68.9534 47.9263 68.5784 47.9263C68.3284 47.9263 67.9743 47.8429 67.5159 47.6763C67.0576 47.5513 66.5993 47.3013 66.1409 46.9263C65.7243 46.5929 65.3701 46.1138 65.0784 45.4888C64.7451 44.8221 64.5784 43.9888 64.5784 42.9888C64.5784 42.1554 64.8284 41.1971 65.3284 40.1138C65.8284 38.9888 66.4951 37.8638 67.3284 36.7388C68.1618 35.6138 69.0993 34.5096 70.1409 33.4263C71.1826 32.3429 72.2451 31.3846 73.3284 30.5513C74.4534 29.6763 75.5368 28.9888 76.5784 28.4888C77.6201 27.9471 78.5368 27.6763 79.3284 27.6763C79.9951 27.6763 80.5993 27.8013 81.1409 28.0513C81.7243 28.3013 82.2034 28.6346 82.5784 29.0513C82.9951 29.4679 83.3076 29.9263 83.5159 30.4263C83.7659 30.9263 83.8909 31.4471 83.8909 31.9888V32.1138C84.8076 31.0721 85.4326 30.5513 85.7659 30.5513C85.9743 30.5513 86.2034 30.6763 86.4534 30.9263C86.7034 31.1346 86.9326 31.4263 87.1409 31.8013C87.3493 32.1346 87.5159 32.4888 87.6409 32.8638C87.7659 33.2388 87.8284 33.5513 87.8284 33.8013C87.8284 33.9263 87.6826 34.1971 87.3909 34.6138C87.1409 35.0304 86.7868 35.5513 86.3284 36.1763C85.8284 36.9263 85.2451 37.7388 84.5784 38.6138C83.9951 39.3638 83.3284 40.2596 82.5784 41.3013C81.9951 42.0929 80.9534 43.5304 79.4534 45.6138C80.4534 44.8638 81.2868 44.1971 81.9534 43.6138C82.7868 42.8221 83.5993 42.0304 84.3909 41.2388C85.8493 39.8638 87.9326 37.9263 90.6409 35.4263C90.6409 35.3429 90.7243 35.2596 90.8909 35.1763C91.0576 35.0929 91.1618 35.1763 91.2034 35.4263C91.2451 35.8429 91.2034 36.1763 91.0784 36.4263C90.9534 36.6763 90.8701 36.8221 90.8284 36.8638C88.3701 39.4888 86.4118 41.5096 84.9534 42.9263C83.7868 44.0513 82.5784 45.1554 81.3284 46.2388C80.0784 47.3221 77.9534 49.1554 74.9534 51.7388ZM100.578 37.6763C99.2034 39.6763 97.9534 41.3221 96.8284 42.6138C95.7034 43.9054 94.5784 45.0513 93.4534 46.0513C92.3284 47.0513 91.2659 47.8638 90.2659 48.4888C89.2659 49.1138 88.3909 49.4263 87.6409 49.4263C86.8076 49.4263 86.1201 48.9263 85.5784 47.9263C84.9951 46.9679 84.7034 45.9263 84.7034 44.8013C84.7034 43.9263 84.9534 42.8638 85.4534 41.6138C85.9534 40.3221 86.5368 39.0929 87.2034 37.9263C87.8701 36.7179 88.5159 35.6971 89.1409 34.8638C89.8076 33.9888 90.2659 33.4888 90.5159 33.3638C90.8076 32.4054 91.3284 31.4888 92.0784 30.6138C92.8284 29.6971 93.6826 28.9054 94.6409 28.2388C95.5993 27.5721 96.5784 27.0513 97.5784 26.6763C98.6201 26.2596 99.5159 26.0513 100.266 26.0513C100.558 26.0513 100.933 26.1554 101.391 26.3638C101.891 26.5304 102.37 26.7804 102.828 27.1138C103.287 27.4054 103.683 27.7596 104.016 28.1763C104.349 28.5929 104.516 29.0304 104.516 29.4888C104.516 30.3221 104.203 31.3846 103.578 32.6763C102.995 33.9679 101.995 35.6346 100.578 37.6763ZM99.1409 37.4263C100.266 35.7179 101.183 34.1138 101.891 32.6138C102.599 31.0721 102.953 29.9054 102.953 29.1138C102.953 28.8221 102.787 28.6763 102.453 28.6763C101.953 28.6763 101.328 28.8638 100.578 29.2388C99.8284 29.5721 99.0368 30.0096 98.2034 30.5513C97.3701 31.0929 96.5784 31.7179 95.8284 32.4263C95.0784 33.1346 94.4534 33.8221 93.9534 34.4888C94.1201 34.6554 94.2034 34.8638 94.2034 35.1138C94.2034 35.3638 93.8701 35.9888 93.2034 36.9888L92.2034 38.4263C91.7034 39.1346 91.1826 39.9054 90.6409 40.7388C90.0993 41.5304 89.5993 42.3221 89.1409 43.1138C88.6826 43.8638 88.3076 44.6138 88.0159 45.3638C87.7243 46.0721 87.5784 46.6763 87.5784 47.1763C87.5784 47.3013 87.6618 47.3638 87.8284 47.3638C88.5784 47.3638 89.3701 47.1346 90.2034 46.6763C91.0784 46.2596 91.9534 45.6763 92.8284 44.9263C93.7034 44.1763 94.5576 43.3221 95.3909 42.3638C96.2659 41.3638 97.0784 40.3429 97.8284 39.3013L99.1409 37.4263ZM112.641 31.1138C111.849 31.8221 111.058 32.5304 110.266 33.2388C107.641 35.5721 105.328 37.7596 103.328 39.8013C103.245 39.8846 103.12 39.9679 102.953 40.0513C102.828 40.0929 102.766 39.9888 102.766 39.7388C102.724 39.3221 102.766 39.0096 102.891 38.8013C103.016 38.5513 103.12 38.4054 103.203 38.3638C103.787 37.6971 104.203 37.1971 104.453 36.8638C104.745 36.5304 105.453 35.7596 106.578 34.5513C107.745 33.3013 108.87 32.1763 109.953 31.1763C110.787 30.3846 111.724 29.5513 112.766 28.6763C112.891 28.5513 113.016 28.4471 113.141 28.3638C113.308 27.8221 113.474 27.4679 113.641 27.3013C114.016 26.9263 114.224 26.7388 114.266 26.7388C114.724 26.7388 115.12 26.9054 115.453 27.2388C115.787 27.5721 116.058 28.0304 116.266 28.6138C116.516 29.1971 116.703 29.8846 116.828 30.6763C116.995 31.4263 117.12 32.2179 117.203 33.0513C119.078 31.8429 120.766 30.7179 122.266 29.6763C123.808 28.6346 124.953 27.7179 125.703 26.9263C125.912 26.7179 126.203 26.4471 126.578 26.1138C126.953 25.7388 127.308 25.5513 127.641 25.5513C127.808 25.5513 127.974 25.6554 128.141 25.8638C128.349 26.0304 128.537 26.2388 128.703 26.4888C128.87 26.7388 129.016 27.0304 129.141 27.3638C129.266 27.6554 129.328 27.9263 129.328 28.1763C129.328 28.5513 128.995 29.0513 128.328 29.6763C127.662 30.3013 126.766 31.0096 125.641 31.8013C124.516 32.5513 123.245 33.3846 121.828 34.3013C120.412 35.2179 118.953 36.1554 117.453 37.1138C117.495 37.9888 117.537 38.8429 117.578 39.6763C117.62 40.4679 117.662 41.1763 117.703 41.8013C117.787 42.4263 117.87 42.9263 117.953 43.3013C118.037 43.6346 118.183 43.8013 118.391 43.8013C119.391 43.8013 120.453 43.4679 121.578 42.8013C122.703 42.1346 123.662 41.4679 124.453 40.8013C125.287 40.0929 126.474 39.0304 128.016 37.6138C128.099 37.5304 128.203 37.4679 128.328 37.4263C128.495 37.3429 128.578 37.4263 128.578 37.6763C128.578 38.0929 128.495 38.4263 128.328 38.6763C128.203 38.8846 128.12 39.0096 128.078 39.0513C127.203 40.0096 126.266 40.9679 125.266 41.9263C124.266 42.8429 123.037 43.8221 121.578 44.8638C120.12 45.9054 118.828 46.4263 117.703 46.4263C116.37 46.4263 115.349 45.8429 114.641 44.6763C113.974 43.5096 113.474 41.9471 113.141 39.9888C112.016 40.7388 110.933 41.4888 109.891 42.2388C108.891 42.9888 107.995 43.7179 107.203 44.4263C106.453 45.0929 105.849 45.7388 105.391 46.3638C104.933 46.9471 104.703 47.4888 104.703 47.9888C104.703 48.1971 104.578 48.3013 104.328 48.3013C104.245 48.3013 104.162 48.2596 104.078 48.1763C103.495 47.8429 103.016 47.4471 102.641 46.9888C102.266 46.5721 102.078 46.1138 102.078 45.6138C102.078 45.0721 102.37 44.4471 102.953 43.7388C103.537 42.9888 104.328 42.1971 105.328 41.3638C106.328 40.5304 107.474 39.6554 108.766 38.7388C110.058 37.8221 111.391 36.9054 112.766 35.9888C112.683 35.1554 112.641 34.2804 112.641 33.3638V31.1138ZM141.453 36.9263C141.995 36.0513 142.578 35.1346 143.203 34.1763C143.995 33.0096 144.745 31.9471 145.453 30.9888C146.203 30.0304 146.87 29.2388 147.453 28.6138C148.078 27.9888 148.516 27.6763 148.766 27.6763C148.974 27.6763 149.203 27.8013 149.453 28.0513C149.703 28.3013 149.933 28.5929 150.141 28.9263C150.349 29.2596 150.516 29.6346 150.641 30.0513C150.766 30.4263 150.828 30.7388 150.828 30.9888C150.828 31.1554 150.599 31.5513 150.141 32.1763C149.724 32.8013 149.183 33.5721 148.516 34.4888C147.849 35.3638 147.12 36.3429 146.328 37.4263C145.537 38.4679 144.808 39.4888 144.141 40.4888C143.474 41.4471 142.912 42.3221 142.453 43.1138C142.037 43.9054 141.828 44.4888 141.828 44.8638C141.828 44.9471 141.891 44.9888 142.016 44.9888C142.766 44.9888 143.724 44.5304 144.891 43.6138C146.099 42.6554 147.245 41.6554 148.328 40.6138C149.412 39.5304 150.578 38.3846 151.828 37.1763C151.912 37.0929 152.016 37.0304 152.141 36.9888C152.308 36.9054 152.391 36.9888 152.391 37.2388C152.391 37.6554 152.308 37.9888 152.141 38.2388C152.016 38.4471 151.933 38.5721 151.891 38.6138C151.266 39.2804 150.453 40.1554 149.453 41.2388C148.495 42.2804 147.516 43.1971 146.516 43.9888C145.516 44.7804 144.558 45.4263 143.641 45.9263C142.724 46.3846 141.912 46.6138 141.203 46.6138C140.453 46.6138 139.849 46.2596 139.391 45.5513C138.974 44.8429 138.766 44.0304 138.766 43.1138C138.766 42.5721 138.974 41.8221 139.391 40.8638C139.641 40.3221 139.912 39.7596 140.203 39.1763C139.62 39.4679 139.037 39.7388 138.453 39.9888C136.912 40.6554 135.433 40.9888 134.016 40.9888C132.849 40.9888 131.891 40.7388 131.141 40.2388C130.599 41.0304 129.995 41.9263 129.328 42.9263C127.328 45.8846 126.308 47.4054 126.266 47.4888L126.391 47.2388C125.933 47.7804 125.641 48.0513 125.516 48.0513C125.308 48.0929 124.995 47.9263 124.578 47.5513C124.162 47.1763 123.787 46.6971 123.453 46.1138C123.287 45.6971 123.37 45.2179 123.703 44.6763C124.203 43.8429 124.849 42.7804 125.641 41.4888C126.474 40.1971 127.349 38.8429 128.266 37.4263C129.183 36.0096 130.099 34.5929 131.016 33.1763C131.974 31.7596 132.87 30.4888 133.703 29.3638C134.078 28.9054 134.349 28.4888 134.516 28.1138C134.683 27.7388 134.828 27.4263 134.953 27.1763C135.12 26.9263 135.266 26.7388 135.391 26.6138C135.558 26.4888 135.787 26.4263 136.078 26.4263C136.453 26.4263 136.87 26.7388 137.328 27.3638C137.787 27.9471 138.099 28.5513 138.266 29.1763C138.349 29.5513 138.328 29.8638 138.203 30.1138C138.078 30.3638 137.849 30.7179 137.516 31.1763C137.183 31.5929 136.787 32.1346 136.328 32.8013C135.87 33.4263 135.37 34.1138 134.828 34.8638C134.328 35.6138 133.787 36.4054 133.203 37.2388C133.12 37.3638 133.016 37.5304 132.891 37.7388C132.849 37.9471 132.828 38.1763 132.828 38.4263C132.828 38.6763 132.891 38.8638 133.016 38.9888C133.141 39.0721 133.516 39.1138 134.141 39.1138C136.308 39.1138 138.391 38.5929 140.391 37.5513C140.766 37.3429 141.12 37.1346 141.453 36.9263ZM163.578 37.6763C162.203 39.6763 160.953 41.3221 159.828 42.6138C158.703 43.9054 157.578 45.0513 156.453 46.0513C155.328 47.0513 154.266 47.8638 153.266 48.4888C152.266 49.1138 151.391 49.4263 150.641 49.4263C149.808 49.4263 149.12 48.9263 148.578 47.9263C147.995 46.9679 147.703 45.9263 147.703 44.8013C147.703 43.9263 147.953 42.8638 148.453 41.6138C148.953 40.3221 149.537 39.0929 150.203 37.9263C150.87 36.7179 151.516 35.6971 152.141 34.8638C152.808 33.9888 153.266 33.4888 153.516 33.3638C153.808 32.4054 154.328 31.4888 155.078 30.6138C155.828 29.6971 156.683 28.9054 157.641 28.2388C158.599 27.5721 159.578 27.0513 160.578 26.6763C161.62 26.2596 162.516 26.0513 163.266 26.0513C163.558 26.0513 163.933 26.1554 164.391 26.3638C164.891 26.5304 165.37 26.7804 165.828 27.1138C166.287 27.4054 166.683 27.7596 167.016 28.1763C167.349 28.5929 167.516 29.0304 167.516 29.4888C167.516 30.3221 167.203 31.3846 166.578 32.6763C165.995 33.9679 164.995 35.6346 163.578 37.6763ZM162.141 37.4263C163.266 35.7179 164.183 34.1138 164.891 32.6138C165.599 31.0721 165.953 29.9054 165.953 29.1138C165.953 28.8221 165.787 28.6763 165.453 28.6763C164.953 28.6763 164.328 28.8638 163.578 29.2388C162.828 29.5721 162.037 30.0096 161.203 30.5513C160.37 31.0929 159.578 31.7179 158.828 32.4263C158.078 33.1346 157.453 33.8221 156.953 34.4888C157.12 34.6554 157.203 34.8638 157.203 35.1138C157.203 35.3638 156.87 35.9888 156.203 36.9888L155.203 38.4263C154.703 39.1346 154.183 39.9054 153.641 40.7388C153.099 41.5304 152.599 42.3221 152.141 43.1138C151.683 43.8638 151.308 44.6138 151.016 45.3638C150.724 46.0721 150.578 46.6763 150.578 47.1763C150.578 47.3013 150.662 47.3638 150.828 47.3638C151.578 47.3638 152.37 47.1346 153.203 46.6763C154.078 46.2596 154.953 45.6763 155.828 44.9263C156.703 44.1763 157.558 43.3221 158.391 42.3638C159.266 41.3638 160.078 40.3429 160.828 39.3013L162.141 37.4263ZM181.391 31.6763C180.891 31.7179 180.224 32.0304 179.391 32.6138C178.599 33.1554 177.724 33.8846 176.766 34.8013C175.808 35.6763 174.808 36.7179 173.766 37.9263C172.724 39.0929 171.703 40.2596 170.703 41.4263C171.162 41.7179 171.412 42.0513 171.453 42.4263C171.453 42.5513 171.287 42.8013 170.953 43.1763C170.62 43.5096 170.266 43.9054 169.891 44.3638C169.558 44.8221 169.224 45.3221 168.891 45.8638C168.599 46.4054 168.453 46.9471 168.453 47.4888C168.495 47.9054 168.745 48.0929 169.203 48.0513C169.578 48.0513 170.162 47.7388 170.953 47.1138C171.745 46.5304 172.62 45.7596 173.578 44.8013C174.537 43.8429 175.516 42.7804 176.516 41.6138C177.516 40.4471 178.412 39.2804 179.203 38.1138C180.037 36.9054 180.703 35.7804 181.203 34.7388C181.703 33.6971 181.933 32.8221 181.891 32.1138C181.849 31.7804 181.683 31.6346 181.391 31.6763ZM201.266 2.86377C199.308 3.53044 197.516 4.40544 195.891 5.48877C194.266 6.5721 192.683 7.92627 191.141 9.55127C189.641 11.1763 188.12 13.0929 186.578 15.3013C185.037 17.5096 183.349 20.0721 181.516 22.9888C183.016 21.9471 184.641 20.8013 186.391 19.5513C188.141 18.3013 190.016 16.9471 192.016 15.4888C194.391 13.7804 196.328 12.2804 197.828 10.9888C199.37 9.6971 200.578 8.59294 201.453 7.67627C202.328 6.71794 202.912 5.92627 203.203 5.30127C203.537 4.67627 203.683 4.17627 203.641 3.80127C203.641 3.34294 203.453 3.05127 203.078 2.92627C202.745 2.7596 202.37 2.6971 201.953 2.73877C201.62 2.73877 201.391 2.78044 201.266 2.86377ZM165.578 46.8013C164.703 48.1346 164.245 48.8221 164.203 48.8638C164.037 49.1138 163.912 49.3013 163.828 49.4263C163.745 49.5513 163.683 49.6138 163.641 49.6138C163.599 49.6554 163.558 49.6763 163.516 49.6763C163.016 49.7596 162.474 49.2596 161.891 48.1763C161.808 47.9263 161.891 47.4471 162.141 46.7388C162.599 45.5721 163.308 44.1138 164.266 42.3638C165.224 40.6138 167.724 36.5929 171.766 30.3013C175.808 24.0096 178.849 19.3429 180.891 16.3013C183.141 12.9263 185.287 10.1138 187.328 7.86377C189.412 5.61377 191.474 3.90544 193.516 2.73877C195.558 1.5721 197.787 0.905436 200.203 0.73877C201.328 0.655436 202.349 0.967936 203.266 1.67627C204.224 2.34294 204.745 3.23877 204.828 4.36377C204.912 5.73877 204.224 7.2596 202.766 8.92627C201.349 10.5513 199.433 12.3013 197.016 14.1763C194.599 16.0096 191.828 17.9888 188.703 20.1138C185.62 22.2388 182.495 24.4054 179.328 26.6138C178.412 28.1138 177.433 29.6971 176.391 31.3638C175.391 32.9888 174.328 34.7179 173.203 36.5513C173.953 35.6763 174.703 34.8429 175.453 34.0513C176.203 33.2596 176.912 32.5721 177.578 31.9888C178.245 31.3638 178.849 30.8638 179.391 30.4888C179.974 30.0721 180.453 29.8429 180.828 29.8013C181.078 29.8013 181.433 29.8638 181.891 29.9888C182.349 30.0721 182.808 30.3013 183.266 30.6763C183.766 31.0096 184.183 31.4888 184.516 32.1138C184.891 32.6971 185.099 33.4888 185.141 34.4888C185.224 35.3638 185.037 36.3638 184.578 37.4888C184.162 38.5721 183.578 39.7179 182.828 40.9263C182.078 42.1346 181.203 43.3221 180.203 44.4888C179.245 45.6138 178.245 46.6138 177.203 47.4888C176.162 48.4054 175.141 49.1554 174.141 49.7388C173.141 50.3638 172.245 50.6971 171.453 50.7388C169.328 50.9888 167.828 50.5721 166.953 49.4888C166.162 48.6138 165.703 47.7179 165.578 46.8013ZM211.141 37.3013C211.224 37.2179 211.328 37.1554 211.453 37.1138C211.62 37.0304 211.703 37.1138 211.703 37.3638C211.703 37.7804 211.62 38.1138 211.453 38.3638C211.328 38.5721 211.245 38.6971 211.203 38.7388C209.495 40.3638 207.933 41.8846 206.516 43.3013C205.099 44.6763 203.808 45.7804 202.641 46.6138C201.516 47.4888 200.537 47.9263 199.703 47.9263C199.162 47.9263 198.558 47.6346 197.891 47.0513C197.266 46.5096 196.953 45.5096 196.953 44.0513C196.953 43.3429 197.245 42.3638 197.828 41.1138C198.453 39.8638 199.203 38.5513 200.078 37.1763C198.703 38.6346 197.37 40.0096 196.078 41.3013C194.787 42.5929 193.578 43.7388 192.453 44.7388C191.328 45.6971 190.308 46.4679 189.391 47.0513C188.474 47.6346 187.703 47.9263 187.078 47.9263C186.578 47.9263 185.995 47.6346 185.328 47.0513C184.662 46.5096 184.328 45.5096 184.328 44.0513C184.328 43.5513 184.495 42.9054 184.828 42.1138C185.162 41.2804 185.578 40.4054 186.078 39.4888C186.62 38.5304 187.224 37.5513 187.891 36.5513C188.599 35.5513 189.308 34.5721 190.016 33.6138C190.558 32.8221 191.162 32.0096 191.828 31.1763C192.495 30.3013 193.12 29.5096 193.703 28.8013C194.328 28.0929 194.87 27.5096 195.328 27.0513C195.828 26.5929 196.183 26.3638 196.391 26.3638C196.599 26.3638 196.828 26.4888 197.078 26.7388C197.328 26.9471 197.558 27.2388 197.766 27.6138C197.974 27.9471 198.141 28.3013 198.266 28.6763C198.391 29.0513 198.453 29.3638 198.453 29.6138C198.453 29.7388 198.183 30.1763 197.641 30.9263C197.141 31.6763 196.495 32.5929 195.703 33.6763C194.912 34.7179 194.037 35.8638 193.078 37.1138C192.162 38.3638 191.308 39.5513 190.516 40.6763C189.724 41.8013 189.058 42.8221 188.516 43.7388C188.016 44.6138 187.766 45.2388 187.766 45.6138C187.766 45.7388 187.808 45.8013 187.891 45.8013C188.266 45.8013 188.849 45.5304 189.641 44.9888C190.433 44.4054 191.349 43.6763 192.391 42.8013C193.433 41.8846 194.537 40.8638 195.703 39.7388C196.87 38.5721 198.037 37.4054 199.203 36.2388C200.37 35.0721 201.474 33.9471 202.516 32.8638C203.558 31.7804 204.474 30.8429 205.266 30.0513C205.849 29.3429 206.37 28.7804 206.828 28.3638C207.287 27.9054 207.62 27.6763 207.828 27.6763C208.037 27.6763 208.266 27.8013 208.516 28.0513C208.766 28.3013 208.995 28.5929 209.203 28.9263C209.412 29.2596 209.578 29.6346 209.703 30.0513C209.828 30.4263 209.891 30.7388 209.891 30.9888C209.891 31.1138 209.641 31.5304 209.141 32.2388C208.683 32.9054 208.099 33.7179 207.391 34.6763C206.724 35.6346 205.974 36.6763 205.141 37.8013C204.308 38.9263 203.537 40.0096 202.828 41.0513C202.162 42.0929 201.578 43.0304 201.078 43.8638C200.62 44.6554 200.391 45.2388 200.391 45.6138C200.391 45.7388 200.433 45.8013 200.516 45.8013C201.141 45.8013 201.891 45.4471 202.766 44.7388C203.683 44.0304 204.766 43.0513 206.016 41.8013C207.266 40.5513 208.974 39.0513 211.141 37.3013ZM247.953 37.4263C248.037 37.3429 248.141 37.2804 248.266 37.2388C248.433 37.1554 248.516 37.2388 248.516 37.4888C248.516 37.9054 248.453 38.2388 248.328 38.4888C248.203 38.6971 248.099 38.8221 248.016 38.8638C247.391 39.4888 246.933 39.9679 246.641 40.3013C246.349 40.5929 245.599 41.3429 244.391 42.5513C243.224 43.7179 242.078 44.7804 240.953 45.7388C239.828 46.6971 238.766 47.4679 237.766 48.0513C236.808 48.6763 235.995 48.9888 235.328 48.9888C234.578 48.9888 233.974 48.6346 233.516 47.9263C233.099 47.2179 232.891 46.4263 232.891 45.5513C232.891 44.7596 233.183 43.7596 233.766 42.5513C234.391 41.3429 235.078 40.1554 235.828 38.9888C236.62 37.7804 237.37 36.6971 238.078 35.7388C238.787 34.7804 239.245 34.1554 239.453 33.8638C239.787 33.4054 240.037 33.0304 240.203 32.7388C240.412 32.4471 240.516 32.2179 240.516 32.0513C240.516 31.9263 240.453 31.8638 240.328 31.8638C239.787 31.8638 238.953 32.2388 237.828 32.9888C236.745 33.6971 235.537 34.6138 234.203 35.7388C232.912 36.8221 231.558 38.0304 230.141 39.3638C228.766 40.6554 227.495 41.8638 226.328 42.9888C225.162 44.1138 224.203 45.0721 223.453 45.8638C222.703 46.6554 222.308 47.0929 222.266 47.1763L222.328 46.9263C222.287 47.0096 222.266 47.0929 222.266 47.1763C221.516 47.1763 220.912 46.8221 220.453 46.1138C220.037 45.4054 219.828 44.5929 219.828 43.6763C219.828 42.8846 220.162 41.8638 220.828 40.6138C221.537 39.3638 222.328 38.1138 223.203 36.8638C224.078 35.6138 224.912 34.4888 225.703 33.4888C226.495 32.4888 226.995 31.8429 227.203 31.5513C227.495 31.1346 227.724 30.7804 227.891 30.4888C228.099 30.1554 228.203 29.9054 228.203 29.7388C228.203 29.6138 228.141 29.5513 228.016 29.5513C227.474 29.5513 226.599 29.9888 225.391 30.8638C224.183 31.7388 222.849 32.8221 221.391 34.1138C219.933 35.4054 218.412 36.8221 216.828 38.3638C215.245 39.9054 213.808 41.3429 212.516 42.6763C211.224 43.9679 210.141 45.0721 209.266 45.9888C208.433 46.9054 207.995 47.4054 207.953 47.4888L208.016 47.2388C207.599 47.7804 207.328 48.0513 207.203 48.0513C206.995 48.0929 206.683 47.9263 206.266 47.5513C205.808 47.1763 205.433 46.6971 205.141 46.1138C205.058 45.9471 205.016 45.7596 205.016 45.5513C205.016 45.3013 205.12 45.0096 205.328 44.6763C205.87 43.8429 206.537 42.7804 207.328 41.4888C208.12 40.1971 208.974 38.8429 209.891 37.4263C210.808 36.0096 211.745 34.5929 212.703 33.1763C213.662 31.7596 214.558 30.4888 215.391 29.3638C215.724 28.9054 215.974 28.4888 216.141 28.1138C216.349 27.7388 216.516 27.4263 216.641 27.1763C216.766 26.9263 216.891 26.7388 217.016 26.6138C217.183 26.4888 217.433 26.4263 217.766 26.4263C218.141 26.4263 218.537 26.7388 218.953 27.3638C219.412 27.9471 219.724 28.5513 219.891 29.1763C219.974 29.5513 219.953 29.8638 219.828 30.1138C219.703 30.3638 219.474 30.7179 219.141 31.1763C218.849 31.5929 218.474 32.1346 218.016 32.8013C217.558 33.4263 217.058 34.1138 216.516 34.8638C216.016 35.6138 215.474 36.4054 214.891 37.2388C214.308 38.0721 213.745 38.8846 213.203 39.6763C214.37 38.5513 215.703 37.2804 217.203 35.8638C218.745 34.4471 220.266 33.1138 221.766 31.8638C223.308 30.6138 224.724 29.5513 226.016 28.6763C227.308 27.8013 228.287 27.3638 228.953 27.3638C229.662 27.3638 230.37 27.8013 231.078 28.6763C231.828 29.5096 232.203 30.6554 232.203 32.1138C232.203 32.3221 232.016 32.7179 231.641 33.3013C231.308 33.8429 230.87 34.4888 230.328 35.2388C229.787 35.9888 229.162 36.8013 228.453 37.6763C227.787 38.5513 227.12 39.4471 226.453 40.3638C227.453 39.4471 228.662 38.3638 230.078 37.1138C231.495 35.8638 232.912 34.6971 234.328 33.6138C235.787 32.5304 237.12 31.6138 238.328 30.8638C239.578 30.0721 240.558 29.6763 241.266 29.6763C241.599 29.6763 241.953 29.8013 242.328 30.0513C242.745 30.2596 243.099 30.5721 243.391 30.9888C243.724 31.3638 243.995 31.8429 244.203 32.4263C244.412 33.0096 244.516 33.6763 244.516 34.4263C244.516 34.6763 244.308 35.1138 243.891 35.7388C243.474 36.3638 242.953 37.0721 242.328 37.8638C241.703 38.6554 241.037 39.5096 240.328 40.4263C239.62 41.3429 238.953 42.2388 238.328 43.1138C237.703 43.9471 237.183 44.7179 236.766 45.4263C236.349 46.1346 236.141 46.6763 236.141 47.0513C236.141 47.1346 236.183 47.1763 236.266 47.1763C236.891 47.1763 237.745 46.7596 238.828 45.9263C239.912 45.0513 241.183 43.9054 242.641 42.4888C244.099 41.0304 245.87 39.3429 247.953 37.4263ZM267.766 34.7388C267.808 34.6554 267.912 34.5929 268.078 34.5513C268.245 34.4679 268.328 34.5513 268.328 34.8013C268.328 35.2179 268.245 35.5513 268.078 35.8013C267.953 36.0096 267.87 36.1346 267.828 36.1763C267.495 36.5096 267.099 36.8846 266.641 37.3013C266.224 37.7179 265.349 38.5304 264.016 39.7388C262.641 40.9054 261.224 41.9888 259.766 42.9888C258.308 43.9471 256.808 44.7596 255.266 45.4263C253.766 46.0513 252.308 46.3638 250.891 46.3638C249.391 46.3638 248.224 45.9679 247.391 45.1763C246.599 44.3846 246.203 43.2804 246.203 41.8638C246.203 40.7804 246.433 39.6346 246.891 38.4263C247.308 37.2179 247.891 36.0096 248.641 34.8013C249.391 33.5929 250.266 32.4471 251.266 31.3638C252.224 30.2388 253.224 29.2596 254.266 28.4263C255.349 27.5513 256.433 26.8638 257.516 26.3638C258.599 25.8638 259.641 25.6138 260.641 25.6138C260.974 25.6138 261.412 25.6763 261.953 25.8013C262.453 25.8846 262.953 26.0513 263.453 26.3013C263.953 26.5513 264.37 26.9054 264.703 27.3638C265.078 27.7804 265.266 28.3221 265.266 28.9888C265.266 30.0721 264.995 31.0721 264.453 31.9888C263.87 32.9054 263.141 33.7388 262.266 34.4888C261.391 35.1971 260.433 35.8429 259.391 36.4263C258.308 36.9679 257.266 37.4263 256.266 37.8013C255.224 38.1346 254.266 38.4054 253.391 38.6138C252.558 38.7804 251.933 38.8429 251.516 38.8013C250.933 39.7596 250.495 40.6554 250.203 41.4888C249.87 42.3221 249.703 43.0929 249.703 43.8013C249.703 44.0513 249.766 44.2388 249.891 44.3638C250.016 44.4471 250.391 44.4888 251.016 44.4888C253.183 44.4888 255.245 43.9679 257.203 42.9263C259.203 41.8846 261.078 40.6346 262.828 39.1763C264.578 37.6763 266.224 36.1971 267.766 34.7388ZM263.578 28.5513C263.578 28.1346 263.37 27.9263 262.953 27.9263C262.37 27.9263 261.662 28.1971 260.828 28.7388C259.953 29.2388 259.037 29.9263 258.078 30.8013C257.12 31.6346 256.183 32.6138 255.266 33.7388C254.308 34.8221 253.433 35.9263 252.641 37.0513C253.849 36.7596 255.099 36.2804 256.391 35.6138C257.683 34.9054 258.849 34.1346 259.891 33.3013C260.974 32.4679 261.87 31.6346 262.578 30.8013C263.245 29.9263 263.578 29.1763 263.578 28.5513ZM282.703 36.2388C282.745 36.1554 282.849 36.0929 283.016 36.0513C283.183 35.9679 283.266 36.0513 283.266 36.3013C283.266 36.7179 283.183 37.0513 283.016 37.3013C282.891 37.5096 282.808 37.6346 282.766 37.6763C281.766 38.7179 280.328 40.1138 278.453 41.8638C276.578 43.6138 274.62 45.0721 272.578 46.2388C270.537 47.3638 268.495 47.9263 266.453 47.9263C264.953 47.9263 263.808 47.5304 263.016 46.7388C262.183 45.9471 261.766 44.8429 261.766 43.4263C261.766 41.8013 262.266 40.0096 263.266 38.0513C264.308 36.0513 265.599 34.1971 267.141 32.4888C268.683 30.7388 270.328 29.2804 272.078 28.1138C273.87 26.9471 275.495 26.3638 276.953 26.3638C277.203 26.3638 277.578 26.4263 278.078 26.5513C278.62 26.6346 279.141 26.8013 279.641 27.0513C280.141 27.3013 280.578 27.6554 280.953 28.1138C281.37 28.5304 281.578 29.0721 281.578 29.7388C281.578 30.5721 281.328 31.4679 280.828 32.4263C280.328 33.3846 279.745 34.2596 279.078 35.0513C278.453 35.8429 277.808 36.5096 277.141 37.0513C276.516 37.5513 276.078 37.8013 275.828 37.8013C275.495 37.8013 275.183 37.6763 274.891 37.4263C274.599 37.1763 274.453 36.9263 274.453 36.6763C274.453 36.5096 274.537 36.3638 274.703 36.2388C275.453 35.6554 276.162 35.0096 276.828 34.3013C277.495 33.5929 278.058 32.9054 278.516 32.2388C279.016 31.5721 279.412 30.9679 279.703 30.4263C279.995 29.8429 280.141 29.3638 280.141 28.9888C280.141 28.5721 279.933 28.3638 279.516 28.3638C278.933 28.3638 278.162 28.6763 277.203 29.3013C276.287 29.8846 275.287 30.6763 274.203 31.6763C273.162 32.6346 272.099 33.7388 271.016 34.9888C269.974 36.2388 269.016 37.4888 268.141 38.7388C267.308 39.9888 266.62 41.1971 266.078 42.3638C265.537 43.5304 265.266 44.5304 265.266 45.3638C265.266 45.6138 265.328 45.8013 265.453 45.9263C265.578 46.0096 265.953 46.0513 266.578 46.0513C268.537 46.0513 270.474 45.5513 272.391 44.5513C274.308 43.5096 276.183 42.1763 278.016 40.5513C279.891 38.9263 281.453 37.4888 282.703 36.2388ZM280.703 46.9263C280.787 47.0096 281.016 46.9263 281.391 46.6763C281.808 46.4679 282.266 46.1554 282.766 45.7388C283.308 45.3221 283.828 44.8638 284.328 44.3638C284.828 43.8638 285.224 43.3846 285.516 42.9263C285.849 42.4679 286.016 42.0721 286.016 41.7388C286.016 41.3638 285.745 41.1346 285.203 41.0513C285.078 40.9679 284.995 40.9263 284.953 40.9263L284.703 41.1763C284.245 41.6346 283.745 42.1763 283.203 42.8013C282.703 43.4263 282.245 44.0304 281.828 44.6138C281.412 45.1971 281.078 45.7179 280.828 46.1763C280.62 46.5929 280.578 46.8429 280.703 46.9263ZM285.141 39.9888C285.141 40.0304 285.162 40.0721 285.203 40.1138V40.3013C285.412 40.3429 285.62 40.4263 285.828 40.5513C286.078 40.6346 286.287 40.7179 286.453 40.8013C287.037 41.2179 287.266 41.7388 287.141 42.3638V42.4263C288.599 40.9679 290.349 39.3013 292.391 37.4263C292.474 37.3429 292.578 37.2804 292.703 37.2388C292.87 37.1554 292.953 37.2388 292.953 37.4888C292.953 37.9054 292.891 38.2388 292.766 38.4888C292.641 38.6971 292.537 38.8221 292.453 38.8638C291.828 39.4888 291.37 39.9679 291.078 40.3013C290.787 40.5929 290.037 41.3429 288.828 42.5513C287.662 43.7179 286.516 44.7804 285.391 45.7388C284.266 46.6971 283.203 47.4679 282.203 48.0513C281.245 48.6763 280.433 48.9888 279.766 48.9888C279.016 48.9888 278.433 48.6346 278.016 47.9263C277.558 47.2179 277.328 46.4263 277.328 45.5513C277.328 44.7596 277.641 43.7596 278.266 42.5513C278.849 41.3429 279.453 40.2388 280.078 39.2388C280.703 38.1971 281.933 36.3638 283.766 33.7388C285.641 31.0721 286.87 29.4263 287.453 28.8013C288.078 28.1763 288.516 27.8638 288.766 27.8638C288.974 27.8638 289.203 27.9888 289.453 28.2388C289.703 28.4888 289.933 28.7804 290.141 29.1138C290.349 29.4471 290.516 29.8221 290.641 30.2388C290.766 30.6138 290.828 30.9263 290.828 31.1763C290.828 31.3429 290.62 31.7388 290.203 32.3638C289.953 32.6554 289.224 33.7596 288.016 35.6763C286.808 37.5513 285.849 38.9888 285.141 39.9888ZM345.391 37.4263C345.474 37.3429 345.578 37.2804 345.703 37.2388C345.87 37.1554 345.953 37.2388 345.953 37.4888C345.953 37.9054 345.891 38.2388 345.766 38.4888C345.641 38.6971 345.537 38.8221 345.453 38.8638C344.828 39.4888 344.37 39.9679 344.078 40.3013C343.787 40.5929 343.037 41.3429 341.828 42.5513C340.662 43.7179 339.516 44.7804 338.391 45.7388C337.266 46.6971 336.203 47.4679 335.203 48.0513C334.245 48.6763 333.433 48.9888 332.766 48.9888C332.016 48.9888 331.412 48.6346 330.953 47.9263C330.537 47.2179 330.328 46.4263 330.328 45.5513C330.328 44.7596 330.62 43.7596 331.203 42.5513C331.828 41.3429 332.516 40.1554 333.266 38.9888C334.058 37.7804 334.808 36.6971 335.516 35.7388C336.224 34.7804 336.683 34.1554 336.891 33.8638C337.224 33.4054 337.474 33.0304 337.641 32.7388C337.849 32.4471 337.953 32.2179 337.953 32.0513C337.953 31.9263 337.891 31.8638 337.766 31.8638C337.224 31.8638 336.391 32.2388 335.266 32.9888C334.183 33.6971 332.974 34.6138 331.641 35.7388C330.349 36.8221 328.995 38.0304 327.578 39.3638C326.203 40.6554 324.933 41.8638 323.766 42.9888C322.599 44.1138 321.641 45.0721 320.891 45.8638C320.141 46.6554 319.745 47.0929 319.703 47.1763L319.766 46.9263C319.724 47.0096 319.703 47.0929 319.703 47.1763C318.953 47.1763 318.349 46.8221 317.891 46.1138C317.474 45.4054 317.266 44.5929 317.266 43.6763C317.266 42.8846 317.599 41.8638 318.266 40.6138C318.974 39.3638 319.766 38.1138 320.641 36.8638C321.516 35.6138 322.349 34.4888 323.141 33.4888C323.933 32.4888 324.433 31.8429 324.641 31.5513C324.933 31.1346 325.162 30.7804 325.328 30.4888C325.537 30.1554 325.641 29.9054 325.641 29.7388C325.641 29.6138 325.578 29.5513 325.453 29.5513C324.912 29.5513 324.037 29.9888 322.828 30.8638C321.62 31.7388 320.287 32.8221 318.828 34.1138C317.37 35.4054 315.849 36.8221 314.266 38.3638C312.683 39.9054 311.245 41.3429 309.953 42.6763C308.662 43.9679 307.578 45.0721 306.703 45.9888C305.87 46.9054 305.433 47.4054 305.391 47.4888L305.453 47.2388C305.037 47.7804 304.766 48.0513 304.641 48.0513C304.433 48.0929 304.12 47.9263 303.703 47.5513C303.245 47.1763 302.87 46.6971 302.578 46.1138C302.495 45.9471 302.453 45.7596 302.453 45.5513C302.453 45.3013 302.558 45.0096 302.766 44.6763C303.308 43.8429 303.974 42.7804 304.766 41.4888C305.558 40.1971 306.412 38.8429 307.328 37.4263C308.245 36.0096 309.183 34.5929 310.141 33.1763C311.099 31.7596 311.995 30.4888 312.828 29.3638C313.162 28.9054 313.412 28.4888 313.578 28.1138C313.787 27.7388 313.953 27.4263 314.078 27.1763C314.203 26.9263 314.328 26.7388 314.453 26.6138C314.62 26.4888 314.87 26.4263 315.203 26.4263C315.578 26.4263 315.974 26.7388 316.391 27.3638C316.849 27.9471 317.162 28.5513 317.328 29.1763C317.412 29.5513 317.391 29.8638 317.266 30.1138C317.141 30.3638 316.912 30.7179 316.578 31.1763C316.287 31.5929 315.912 32.1346 315.453 32.8013C314.995 33.4263 314.495 34.1138 313.953 34.8638C313.453 35.6138 312.912 36.4054 312.328 37.2388C311.745 38.0721 311.183 38.8846 310.641 39.6763C311.808 38.5513 313.141 37.2804 314.641 35.8638C316.183 34.4471 317.703 33.1138 319.203 31.8638C320.745 30.6138 322.162 29.5513 323.453 28.6763C324.745 27.8013 325.724 27.3638 326.391 27.3638C327.099 27.3638 327.808 27.8013 328.516 28.6763C329.266 29.5096 329.641 30.6554 329.641 32.1138C329.641 32.3221 329.453 32.7179 329.078 33.3013C328.745 33.8429 328.308 34.4888 327.766 35.2388C327.224 35.9888 326.599 36.8013 325.891 37.6763C325.224 38.5513 324.558 39.4471 323.891 40.3638C324.891 39.4471 326.099 38.3638 327.516 37.1138C328.933 35.8638 330.349 34.6971 331.766 33.6138C333.224 32.5304 334.558 31.6138 335.766 30.8638C337.016 30.0721 337.995 29.6763 338.703 29.6763C339.037 29.6763 339.391 29.8013 339.766 30.0513C340.183 30.2596 340.537 30.5721 340.828 30.9888C341.162 31.3638 341.433 31.8429 341.641 32.4263C341.849 33.0096 341.953 33.6763 341.953 34.4263C341.953 34.6763 341.745 35.1138 341.328 35.7388C340.912 36.3638 340.391 37.0721 339.766 37.8638C339.141 38.6554 338.474 39.5096 337.766 40.4263C337.058 41.3429 336.391 42.2388 335.766 43.1138C335.141 43.9471 334.62 44.7179 334.203 45.4263C333.787 46.1346 333.578 46.6763 333.578 47.0513C333.578 47.1346 333.62 47.1763 333.703 47.1763C334.328 47.1763 335.183 46.7596 336.266 45.9263C337.349 45.0513 338.62 43.9054 340.078 42.4888C341.537 41.0304 343.308 39.3429 345.391 37.4263ZM365.203 34.7388C365.245 34.6554 365.349 34.5929 365.516 34.5513C365.683 34.4679 365.766 34.5513 365.766 34.8013C365.766 35.2179 365.683 35.5513 365.516 35.8013C365.391 36.0096 365.308 36.1346 365.266 36.1763C364.933 36.5096 364.537 36.8846 364.078 37.3013C363.662 37.7179 362.787 38.5304 361.453 39.7388C360.078 40.9054 358.662 41.9888 357.203 42.9888C355.745 43.9471 354.245 44.7596 352.703 45.4263C351.203 46.0513 349.745 46.3638 348.328 46.3638C346.828 46.3638 345.662 45.9679 344.828 45.1763C344.037 44.3846 343.641 43.2804 343.641 41.8638C343.641 40.7804 343.87 39.6346 344.328 38.4263C344.745 37.2179 345.328 36.0096 346.078 34.8013C346.828 33.5929 347.703 32.4471 348.703 31.3638C349.662 30.2388 350.662 29.2596 351.703 28.4263C352.787 27.5513 353.87 26.8638 354.953 26.3638C356.037 25.8638 357.078 25.6138 358.078 25.6138C358.412 25.6138 358.849 25.6763 359.391 25.8013C359.891 25.8846 360.391 26.0513 360.891 26.3013C361.391 26.5513 361.808 26.9054 362.141 27.3638C362.516 27.7804 362.703 28.3221 362.703 28.9888C362.703 30.0721 362.433 31.0721 361.891 31.9888C361.308 32.9054 360.578 33.7388 359.703 34.4888C358.828 35.1971 357.87 35.8429 356.828 36.4263C355.745 36.9679 354.703 37.4263 353.703 37.8013C352.662 38.1346 351.703 38.4054 350.828 38.6138C349.995 38.7804 349.37 38.8429 348.953 38.8013C348.37 39.7596 347.933 40.6554 347.641 41.4888C347.308 42.3221 347.141 43.0929 347.141 43.8013C347.141 44.0513 347.203 44.2388 347.328 44.3638C347.453 44.4471 347.828 44.4888 348.453 44.4888C350.62 44.4888 352.683 43.9679 354.641 42.9263C356.641 41.8846 358.516 40.6346 360.266 39.1763C362.016 37.6763 363.662 36.1971 365.203 34.7388ZM361.016 28.5513C361.016 28.1346 360.808 27.9263 360.391 27.9263C359.808 27.9263 359.099 28.1971 358.266 28.7388C357.391 29.2388 356.474 29.9263 355.516 30.8013C354.558 31.6346 353.62 32.6138 352.703 33.7388C351.745 34.8221 350.87 35.9263 350.078 37.0513C351.287 36.7596 352.537 36.2804 353.828 35.6138C355.12 34.9054 356.287 34.1346 357.328 33.3013C358.412 32.4679 359.308 31.6346 360.016 30.8013C360.683 29.9263 361.016 29.1763 361.016 28.5513ZM376.203 47.4263V47.4888C375.62 47.7804 375.078 47.9263 374.578 47.9263C374.037 47.9263 373.433 47.6346 372.766 47.0513C372.141 46.5096 371.828 45.5096 371.828 44.0513C371.828 43.3429 372.12 42.3638 372.703 41.1138C373.328 39.8638 374.078 38.5513 374.953 37.1763C373.578 38.6346 372.245 40.0096 370.953 41.3013C369.662 42.5929 368.453 43.7388 367.328 44.7388C366.203 45.6971 365.183 46.4679 364.266 47.0513C363.349 47.6346 362.578 47.9263 361.953 47.9263C361.453 47.9263 360.87 47.6346 360.203 47.0513C359.537 46.5096 359.203 45.5096 359.203 44.0513C359.203 43.5513 359.37 42.9054 359.703 42.1138C360.037 41.2804 360.453 40.4054 360.953 39.4888C361.495 38.5304 362.287 37.4263 363.328 36.1763C364.412 34.8846 365.058 34.2388 365.266 34.2388C365.474 34.2388 365.703 34.3638 365.953 34.6138C366.203 34.8221 366.433 35.1138 366.641 35.4888C366.849 35.8221 367.016 36.1763 367.141 36.5513C367.266 36.9263 367.328 37.2388 367.328 37.4888C367.328 37.6138 367.058 38.0513 366.516 38.8013C366.016 39.5513 365.62 40.0929 365.328 40.4263C365.078 40.7596 364.828 41.1763 364.578 41.6763C364.328 42.1346 363.933 42.8221 363.391 43.7388C362.891 44.6138 362.641 45.2388 362.641 45.6138C362.641 45.7388 362.683 45.8013 362.766 45.8013C363.141 45.8013 363.724 45.5304 364.516 44.9888C365.308 44.4054 366.224 43.6763 367.266 42.8013C368.308 41.8846 369.412 40.8638 370.578 39.7388C371.745 38.5721 372.912 37.4054 374.078 36.2388C375.245 35.0721 376.349 33.9471 377.391 32.8638C378.433 31.7804 379.349 30.8429 380.141 30.0513C380.724 29.3429 381.245 28.7804 381.703 28.3638C382.162 27.9054 382.495 27.6763 382.703 27.6763C382.912 27.6763 383.141 27.8013 383.391 28.0513C383.641 28.3013 383.87 28.5929 384.078 28.9263C384.287 29.2596 384.453 29.6346 384.578 30.0513C384.703 30.4263 384.766 30.7388 384.766 30.9888C384.766 31.1138 384.516 31.5304 384.016 32.2388C383.558 32.9054 382.974 33.7179 382.266 34.6763C381.599 35.6346 380.849 36.6763 380.016 37.8013C379.183 38.9263 378.412 40.0096 377.703 41.0513C377.037 42.0929 376.474 43.0096 376.016 43.8013C375.641 44.3846 375.412 44.8638 375.328 45.2388V45.3013C375.287 45.4263 375.266 45.5304 375.266 45.6138C375.266 45.7388 375.308 45.8013 375.391 45.8013C375.766 45.8013 376.349 45.5304 377.141 44.9888C377.933 44.4054 378.849 43.6763 379.891 42.8013C380.933 41.8846 382.037 40.8638 383.203 39.7388C384.37 38.5721 385.537 37.4054 386.703 36.2388C387.87 35.0721 388.974 33.9471 390.016 32.8638C391.058 31.7804 391.974 30.8429 392.766 30.0513C393.349 29.3429 393.87 28.7804 394.328 28.3638C394.787 27.9054 395.12 27.6763 395.328 27.6763C395.537 27.6763 395.766 27.8013 396.016 28.0513C396.266 28.3013 396.495 28.5929 396.703 28.9263C396.912 29.2596 397.078 29.6346 397.203 30.0513C397.328 30.4263 397.391 30.7388 397.391 30.9888C397.391 31.1138 397.141 31.5304 396.641 32.2388C396.183 32.9054 395.599 33.7179 394.891 34.6763C394.224 35.6346 393.474 36.6763 392.641 37.8013C391.808 38.9263 391.037 40.0096 390.328 41.0513C389.662 42.0929 389.078 43.0304 388.578 43.8638C388.12 44.6554 387.891 45.2388 387.891 45.6138C387.891 45.7388 387.933 45.8013 388.016 45.8013C388.641 45.8013 389.391 45.4471 390.266 44.7388C391.183 44.0304 392.266 43.0513 393.516 41.8013C394.766 40.5513 396.474 39.0513 398.641 37.3013C398.724 37.2179 398.828 37.1554 398.953 37.1138C399.12 37.0304 399.203 37.1138 399.203 37.3638C399.203 37.7804 399.12 38.1138 398.953 38.3638C398.828 38.5721 398.745 38.6971 398.703 38.7388C396.995 40.3638 395.433 41.8846 394.016 43.3013C392.599 44.6763 391.308 45.7804 390.141 46.6138C389.016 47.4888 388.037 47.9263 387.203 47.9263C386.662 47.9263 386.058 47.6346 385.391 47.0513C384.766 46.5096 384.453 45.5096 384.453 44.0513C384.453 43.3429 384.745 42.3638 385.328 41.1138C385.953 39.8638 386.703 38.5513 387.578 37.1763C386.203 38.6346 384.87 40.0096 383.578 41.3013C382.287 42.5929 381.078 43.7388 379.953 44.7388C378.828 45.6971 377.808 46.4679 376.891 47.0513C376.641 47.2179 376.412 47.3429 376.203 47.4263ZM419.953 37.3013C420.037 37.2179 420.141 37.1554 420.266 37.1138C420.433 37.0304 420.516 37.1138 420.516 37.3638C420.516 37.7804 420.433 38.1138 420.266 38.3638C420.141 38.5721 420.058 38.6971 420.016 38.7388C418.308 40.3638 416.745 41.8846 415.328 43.3013C413.912 44.6763 412.62 45.7804 411.453 46.6138C410.328 47.4888 409.349 47.9263 408.516 47.9263C407.974 47.9263 407.37 47.6346 406.703 47.0513C406.078 46.5096 405.766 45.5096 405.766 44.0513C405.766 43.3429 406.058 42.3638 406.641 41.1138C407.266 39.8638 408.016 38.5513 408.891 37.1763C407.516 38.6346 406.183 40.0096 404.891 41.3013C403.599 42.5929 402.391 43.7388 401.266 44.7388C400.141 45.6971 399.12 46.4679 398.203 47.0513C397.287 47.6346 396.516 47.9263 395.891 47.9263C395.391 47.9263 394.808 47.6346 394.141 47.0513C393.474 46.5096 393.141 45.5096 393.141 44.0513C393.141 43.5513 393.308 42.9054 393.641 42.1138C393.974 41.2804 394.391 40.4054 394.891 39.4888C395.433 38.5304 396.037 37.5513 396.703 36.5513C397.412 35.5513 398.12 34.5721 398.828 33.6138C399.37 32.8221 399.974 32.0096 400.641 31.1763C401.308 30.3013 401.933 29.5096 402.516 28.8013C403.141 28.0929 403.683 27.5096 404.141 27.0513C404.641 26.5929 404.995 26.3638 405.203 26.3638C405.412 26.3638 405.641 26.4888 405.891 26.7388C406.141 26.9471 406.37 27.2388 406.578 27.6138C406.787 27.9471 406.953 28.3013 407.078 28.6763C407.203 29.0513 407.266 29.3638 407.266 29.6138C407.266 29.7388 406.995 30.1763 406.453 30.9263C405.953 31.6763 405.308 32.5929 404.516 33.6763C403.724 34.7179 402.849 35.8638 401.891 37.1138C400.974 38.3638 400.12 39.5513 399.328 40.6763C398.537 41.8013 397.87 42.8221 397.328 43.7388C396.828 44.6138 396.578 45.2388 396.578 45.6138C396.578 45.7388 396.62 45.8013 396.703 45.8013C397.078 45.8013 397.662 45.5304 398.453 44.9888C399.245 44.4054 400.162 43.6763 401.203 42.8013C402.245 41.8846 403.349 40.8638 404.516 39.7388C405.683 38.5721 406.849 37.4054 408.016 36.2388C409.183 35.0721 410.287 33.9471 411.328 32.8638C412.37 31.7804 413.287 30.8429 414.078 30.0513C414.662 29.3429 415.183 28.7804 415.641 28.3638C416.099 27.9054 416.433 27.6763 416.641 27.6763C416.849 27.6763 417.078 27.8013 417.328 28.0513C417.578 28.3013 417.808 28.5929 418.016 28.9263C418.224 29.2596 418.391 29.6346 418.516 30.0513C418.641 30.4263 418.703 30.7388 418.703 30.9888C418.703 31.1138 418.453 31.5304 417.953 32.2388C417.495 32.9054 416.912 33.7179 416.203 34.6763C415.537 35.6346 414.787 36.6763 413.953 37.8013C413.12 38.9263 412.349 40.0096 411.641 41.0513C410.974 42.0929 410.391 43.0304 409.891 43.8638C409.433 44.6554 409.203 45.2388 409.203 45.6138C409.203 45.7388 409.245 45.8013 409.328 45.8013C409.953 45.8013 410.703 45.4471 411.578 44.7388C412.495 44.0304 413.578 43.0513 414.828 41.8013C416.078 40.5513 417.787 39.0513 419.953 37.3013ZM415.266 51.4263C414.808 51.4263 414.558 51.1554 414.516 50.6138C414.474 50.0721 414.558 49.6346 414.766 49.3013C415.266 48.7596 415.724 48.2596 416.141 47.8013C416.599 47.3429 416.995 46.8638 417.328 46.3638C417.662 45.9054 417.953 45.3846 418.203 44.8013C418.495 44.2179 418.703 43.5304 418.828 42.7388C418.828 42.5721 418.849 42.4679 418.891 42.4263C418.891 42.3013 418.995 42.2388 419.203 42.2388C419.912 42.2388 420.558 42.5721 421.141 43.2388C421.724 43.8638 422.016 44.6554 422.016 45.6138C422.016 46.4471 421.683 47.2179 421.016 47.9263C420.349 48.6346 419.599 49.2388 418.766 49.7388C417.974 50.2804 417.224 50.6971 416.516 50.9888C415.808 51.2804 415.391 51.4263 415.266 51.4263ZM436.766 60.7388C437.183 60.2388 437.745 59.4679 438.453 58.4263C439.162 57.4263 439.995 56.2596 440.953 54.9263C439.412 55.8846 437.766 56.9054 436.016 57.9888C434.266 59.0721 432.37 60.2596 430.328 61.5513C427.87 63.0929 425.849 64.4471 424.266 65.6138C422.641 66.8221 421.37 67.8638 420.453 68.7388C419.495 69.6138 418.849 70.3429 418.516 70.9263C418.141 71.5513 417.953 72.0513 417.953 72.4263C417.953 72.8846 418.12 73.1971 418.453 73.3638C418.787 73.5304 419.162 73.6138 419.578 73.6138C419.912 73.6138 420.141 73.5929 420.266 73.5513C423.599 72.6346 426.558 71.0929 429.141 68.9263C431.683 66.7596 434.224 64.0304 436.766 60.7388ZM450.953 48.6763L454.516 45.8638C455.433 45.1138 456.308 44.3846 457.141 43.6763C458.016 42.9263 458.849 42.1554 459.641 41.3638C461.099 39.9471 463.183 38.0096 465.891 35.5513C465.933 35.4679 466.037 35.4054 466.203 35.3638C466.37 35.2804 466.453 35.3638 466.453 35.6138C466.495 36.0304 466.453 36.3638 466.328 36.6138C466.203 36.8221 466.12 36.9471 466.078 36.9888C463.578 39.6138 461.599 41.6138 460.141 42.9888C459.016 44.1138 457.808 45.2179 456.516 46.3013C455.266 47.3429 453.87 48.4679 452.328 49.6763L447.828 53.0513C446.953 54.2179 446.141 55.3429 445.391 56.4263C444.516 57.5929 443.703 58.6554 442.953 59.6138C442.245 60.5721 441.641 61.3638 441.141 61.9888C439.266 64.3638 437.516 66.4054 435.891 68.1138C434.224 69.8638 432.599 71.3013 431.016 72.4263C429.433 73.5513 427.849 74.3846 426.266 74.9263C424.641 75.4679 422.953 75.7388 421.203 75.7388C420.078 75.7388 419.078 75.3638 418.203 74.6138C417.287 73.8638 416.828 72.9263 416.828 71.8013C416.828 70.4679 417.599 69.0304 419.141 67.4888C420.641 65.9471 422.641 64.3221 425.141 62.6138C427.599 60.9471 430.412 59.1763 433.578 57.3013C436.745 55.4679 439.995 53.5513 443.328 51.5513C444.87 49.3429 446.516 47.0304 448.266 44.6138C450.016 42.1554 451.683 39.8013 453.266 37.5513C451.933 38.9679 450.62 40.3013 449.328 41.5513C448.078 42.8013 446.891 43.9054 445.766 44.8638C444.683 45.8221 443.683 46.5721 442.766 47.1138C441.891 47.6971 441.162 47.9888 440.578 47.9888C440.078 47.9888 439.495 47.6971 438.828 47.1138C438.162 46.5721 437.828 45.5513 437.828 44.0513C437.828 43.5513 437.995 42.9054 438.328 42.1138C438.62 41.3221 439.037 40.4679 439.578 39.5513C440.12 38.5929 440.724 37.6138 441.391 36.6138C442.058 35.6138 442.745 34.6346 443.453 33.6763C443.995 32.8846 444.599 32.0513 445.266 31.1763C445.933 30.3013 446.578 29.5096 447.203 28.8013C447.828 28.0929 448.37 27.5096 448.828 27.0513C449.328 26.5929 449.662 26.3638 449.828 26.3638C450.078 26.3638 450.308 26.4888 450.516 26.7388C450.766 26.9888 450.995 27.2804 451.203 27.6138C451.412 27.9471 451.578 28.3013 451.703 28.6763C451.828 29.0513 451.891 29.3846 451.891 29.6763C451.891 29.8013 451.62 30.2388 451.078 30.9888C450.578 31.7388 449.933 32.6554 449.141 33.7388C448.349 34.7804 447.495 35.9263 446.578 37.1763C445.662 38.4263 444.808 39.6138 444.016 40.7388C443.224 41.8638 442.558 42.8846 442.016 43.8013C441.516 44.6763 441.266 45.3013 441.266 45.6763C441.266 45.7596 441.308 45.8013 441.391 45.8013C441.766 45.8013 442.391 45.4888 443.266 44.8638C444.141 44.2388 445.12 43.4263 446.203 42.4263C447.328 41.4263 448.516 40.3221 449.766 39.1138C451.016 37.8638 452.245 36.6346 453.453 35.4263C454.662 34.2179 455.787 33.0721 456.828 31.9888C457.87 30.9054 458.745 30.0304 459.453 29.3638C460.037 28.6554 460.516 28.0929 460.891 27.6763C461.308 27.2596 461.599 27.0513 461.766 27.0513C461.974 27.0513 462.203 27.1763 462.453 27.4263C462.703 27.6763 462.933 27.9679 463.141 28.3013C463.349 28.6346 463.516 29.0096 463.641 29.4263C463.766 29.8013 463.828 30.1138 463.828 30.3638C463.828 30.5304 463.495 31.0929 462.828 32.0513C462.162 32.9679 461.349 34.0929 460.391 35.4263C460.433 35.3846 460.266 35.6138 459.891 36.1138C459.558 36.5721 459.058 37.2596 458.391 38.1763C457.766 39.0513 457.037 40.0721 456.203 41.2388C455.412 42.3221 453.745 44.6763 451.203 48.3013L450.953 48.6763ZM488.391 28.6763C488.391 28.7596 488.287 28.9679 488.078 29.3013C487.87 29.6346 487.599 30.0304 487.266 30.4888L481.328 39.0513C482.703 37.7179 484.078 36.4679 485.453 35.3013C486.87 34.0929 488.203 33.0096 489.453 32.0513C490.745 31.0513 491.933 30.1971 493.016 29.4888C494.099 28.7388 494.995 28.1763 495.703 27.8013C495.953 27.6763 496.245 27.6763 496.578 27.8013C496.912 27.8846 497.203 28.0513 497.453 28.3013C497.703 28.5513 497.891 28.8429 498.016 29.1763C498.183 29.4679 498.245 29.7388 498.203 29.9888C498.162 30.0721 498.058 30.1554 497.891 30.2388C497.766 30.3221 497.141 30.6763 496.016 31.3013C494.933 31.8846 493.703 32.5929 492.328 33.4263C490.953 34.2179 489.62 35.0304 488.328 35.8638C487.037 36.6971 486.141 37.3638 485.641 37.8638C485.558 37.9471 485.474 38.0096 485.391 38.0513C485.808 38.1346 486.203 38.2596 486.578 38.4263C486.953 38.5513 487.224 38.8013 487.391 39.1763C487.766 40.0096 488.183 40.9888 488.641 42.1138C489.141 43.2388 489.724 44.3221 490.391 45.3638C491.058 46.4054 491.787 47.2804 492.578 47.9888C493.37 48.7388 494.266 49.1138 495.266 49.1138C495.599 49.1138 496.037 49.0096 496.578 48.8013C497.12 48.6346 497.453 48.5513 497.578 48.5513C497.828 48.5513 497.953 48.6554 497.953 48.8638C497.953 48.9888 497.828 49.1554 497.578 49.3638C497.328 49.5721 496.995 49.7596 496.578 49.9263C496.203 50.1346 495.766 50.3013 495.266 50.4263C494.766 50.5929 494.245 50.6763 493.703 50.6763C492.245 50.6763 490.933 50.2804 489.766 49.4888C488.599 48.6971 487.578 47.7388 486.703 46.6138C485.828 45.5304 485.078 44.3846 484.453 43.1763C483.87 41.9679 483.433 40.9471 483.141 40.1138C483.141 40.1554 483.12 40.1763 483.078 40.1763C482.995 40.2596 482.662 40.5721 482.078 41.1138C481.495 41.6554 480.808 42.3013 480.016 43.0513C479.266 43.8013 478.495 44.5721 477.703 45.3638C476.912 46.1554 476.266 46.8638 475.766 47.4888C475.391 48.0304 475.12 48.4471 474.953 48.7388C474.745 49.0304 474.599 49.2388 474.516 49.3638C474.433 49.4888 474.37 49.5721 474.328 49.6138C474.287 49.6554 474.224 49.6763 474.141 49.6763C473.933 49.7179 473.703 49.6138 473.453 49.3638C473.162 49.1554 472.87 48.7596 472.578 48.1763C472.453 47.8846 472.516 47.4054 472.766 46.7388C473.224 45.5721 473.933 44.1138 474.891 42.3638C475.849 40.6138 476.974 38.6971 478.266 36.6138C479.558 34.5304 481.016 32.2804 482.641 29.8638C484.308 27.4054 485.245 26.0721 485.453 25.8638C485.87 25.5304 486.162 25.3638 486.328 25.3638C486.537 25.3638 486.766 25.4888 487.016 25.7388C487.266 25.9888 487.495 26.2804 487.703 26.6138C487.912 26.9471 488.078 27.3013 488.203 27.6763C488.328 28.0513 488.391 28.3846 488.391 28.6763ZM509.766 37.6763C508.391 39.6763 507.141 41.3221 506.016 42.6138C504.891 43.9054 503.766 45.0513 502.641 46.0513C501.516 47.0513 500.453 47.8638 499.453 48.4888C498.453 49.1138 497.578 49.4263 496.828 49.4263C495.995 49.4263 495.308 48.9263 494.766 47.9263C494.183 46.9679 493.891 45.9263 493.891 44.8013C493.891 43.9263 494.141 42.8638 494.641 41.6138C495.141 40.3221 495.724 39.0929 496.391 37.9263C497.058 36.7179 497.703 35.6971 498.328 34.8638C498.995 33.9888 499.453 33.4888 499.703 33.3638C499.995 32.4054 500.516 31.4888 501.266 30.6138C502.016 29.6971 502.87 28.9054 503.828 28.2388C504.787 27.5721 505.766 27.0513 506.766 26.6763C507.808 26.2596 508.703 26.0513 509.453 26.0513C509.745 26.0513 510.12 26.1554 510.578 26.3638C511.078 26.5304 511.558 26.7804 512.016 27.1138C512.474 27.4054 512.87 27.7596 513.203 28.1763C513.537 28.5929 513.703 29.0304 513.703 29.4888C513.703 30.3221 513.391 31.3846 512.766 32.6763C512.183 33.9679 511.183 35.6346 509.766 37.6763ZM508.328 37.4263C509.453 35.7179 510.37 34.1138 511.078 32.6138C511.787 31.0721 512.141 29.9054 512.141 29.1138C512.141 28.8221 511.974 28.6763 511.641 28.6763C511.141 28.6763 510.516 28.8638 509.766 29.2388C509.016 29.5721 508.224 30.0096 507.391 30.5513C506.558 31.0929 505.766 31.7179 505.016 32.4263C504.266 33.1346 503.641 33.8221 503.141 34.4888C503.308 34.6554 503.391 34.8638 503.391 35.1138C503.391 35.3638 503.058 35.9888 502.391 36.9888L501.391 38.4263C500.891 39.1346 500.37 39.9054 499.828 40.7388C499.287 41.5304 498.787 42.3221 498.328 43.1138C497.87 43.8638 497.495 44.6138 497.203 45.3638C496.912 46.0721 496.766 46.6763 496.766 47.1763C496.766 47.3013 496.849 47.3638 497.016 47.3638C497.766 47.3638 498.558 47.1346 499.391 46.6763C500.266 46.2596 501.141 45.6763 502.016 44.9263C502.891 44.1763 503.745 43.3221 504.578 42.3638C505.453 41.3638 506.266 40.3429 507.016 39.3013L508.328 37.4263ZM524.516 27.3638C525.224 27.3638 525.933 27.8013 526.641 28.6763C527.391 29.5096 527.766 30.6554 527.766 32.1138C527.766 32.3221 527.578 32.7179 527.203 33.3013C526.87 33.8429 526.433 34.4888 525.891 35.2388C525.474 35.7804 525.037 36.3638 524.578 36.9888H524.641C524.433 37.2804 524.203 37.5721 523.953 37.8638C523.328 38.6554 522.662 39.5096 521.953 40.4263C521.245 41.3429 520.578 42.2388 519.953 43.1138C519.328 43.9471 518.808 44.7179 518.391 45.4263C517.974 46.1346 517.766 46.6763 517.766 47.0513C517.766 47.1346 517.808 47.1763 517.891 47.1763C518.516 47.1763 519.37 46.7596 520.453 45.9263C521.537 45.0513 522.808 43.9054 524.266 42.4888C525.724 41.0304 527.495 39.3429 529.578 37.4263C529.662 37.3429 529.766 37.2804 529.891 37.2388C530.058 37.1554 530.141 37.2388 530.141 37.4888C530.141 37.9054 530.078 38.2388 529.953 38.4888C529.828 38.6971 529.724 38.8221 529.641 38.8638C529.016 39.4888 528.558 39.9679 528.266 40.3013C527.974 40.5929 527.224 41.3429 526.016 42.5513C524.849 43.7179 523.703 44.7804 522.578 45.7388C521.453 46.6971 520.391 47.4679 519.391 48.0513C518.433 48.6763 517.62 48.9888 516.953 48.9888C516.203 48.9888 515.599 48.6346 515.141 47.9263C514.724 47.2179 514.516 46.4263 514.516 45.5513C514.516 44.7596 514.808 43.7596 515.391 42.5513C516.016 41.3429 516.641 40.2388 517.266 39.2388C517.891 38.1971 518.391 37.4054 518.766 36.8638C519.641 35.6138 520.474 34.4888 521.266 33.4888C522.058 32.4888 522.558 31.8429 522.766 31.5513C523.058 31.1346 523.287 30.7804 523.453 30.4888C523.662 30.1554 523.766 29.9054 523.766 29.7388C523.766 29.6138 523.703 29.5513 523.578 29.5513C523.412 29.6763 522.016 30.9054 519.391 33.2388C516.808 35.5721 514.516 37.7596 512.516 39.8013C512.433 39.8846 512.308 39.9679 512.141 40.0513C512.016 40.0929 511.953 39.9888 511.953 39.7388C511.912 39.3221 511.953 39.0096 512.078 38.8013C512.203 38.5513 512.308 38.4054 512.391 38.3638C512.974 37.6971 513.391 37.1971 513.641 36.8638C513.933 36.5304 514.641 35.7596 515.766 34.5513C516.933 33.3013 518.058 32.1763 519.141 31.1763C519.974 30.3846 520.912 29.5513 521.953 28.6763C522.995 27.8013 523.849 27.3638 524.516 27.3638ZM542.391 37.6763C541.016 39.6763 539.766 41.3221 538.641 42.6138C537.516 43.9054 536.391 45.0513 535.266 46.0513C534.141 47.0513 533.078 47.8638 532.078 48.4888C531.078 49.1138 530.203 49.4263 529.453 49.4263C528.62 49.4263 527.933 48.9263 527.391 47.9263C526.808 46.9679 526.516 45.9263 526.516 44.8013C526.516 43.9263 526.766 42.8638 527.266 41.6138C527.766 40.3221 528.349 39.0929 529.016 37.9263C529.683 36.7179 530.328 35.6971 530.953 34.8638C531.62 33.9888 532.078 33.4888 532.328 33.3638C532.62 32.4054 533.141 31.4888 533.891 30.6138C534.641 29.6971 535.495 28.9054 536.453 28.2388C537.412 27.5721 538.391 27.0513 539.391 26.6763C540.433 26.2596 541.328 26.0513 542.078 26.0513C542.37 26.0513 542.745 26.1554 543.203 26.3638C543.703 26.5304 544.183 26.7804 544.641 27.1138C545.099 27.4054 545.495 27.7596 545.828 28.1763C546.162 28.5929 546.328 29.0304 546.328 29.4888C546.328 30.3221 546.016 31.3846 545.391 32.6763C544.808 33.9679 543.808 35.6346 542.391 37.6763ZM540.953 37.4263C542.078 35.7179 542.995 34.1138 543.703 32.6138C544.412 31.0721 544.766 29.9054 544.766 29.1138C544.766 28.8221 544.599 28.6763 544.266 28.6763C543.766 28.6763 543.141 28.8638 542.391 29.2388C541.641 29.5721 540.849 30.0096 540.016 30.5513C539.183 31.0929 538.391 31.7179 537.641 32.4263C536.891 33.1346 536.266 33.8221 535.766 34.4888C535.933 34.6554 536.016 34.8638 536.016 35.1138C536.016 35.3638 535.683 35.9888 535.016 36.9888L534.016 38.4263C533.516 39.1346 532.995 39.9054 532.453 40.7388C531.912 41.5304 531.412 42.3221 530.953 43.1138C530.495 43.8638 530.12 44.6138 529.828 45.3638C529.537 46.0721 529.391 46.6763 529.391 47.1763C529.391 47.3013 529.474 47.3638 529.641 47.3638C530.391 47.3638 531.183 47.1346 532.016 46.6763C532.891 46.2596 533.766 45.6763 534.641 44.9263C535.516 44.1763 536.37 43.3221 537.203 42.3638C538.078 41.3638 538.891 40.3429 539.641 39.3013L540.953 37.4263ZM267.828 108.739C268.245 108.239 268.808 107.468 269.516 106.426C270.224 105.426 271.058 104.26 272.016 102.926C270.474 103.885 268.828 104.905 267.078 105.989C265.328 107.072 263.433 108.26 261.391 109.551C258.933 111.093 256.912 112.447 255.328 113.614C253.703 114.822 252.433 115.864 251.516 116.739C250.558 117.614 249.912 118.343 249.578 118.926C249.203 119.551 249.016 120.051 249.016 120.426C249.016 120.885 249.183 121.197 249.516 121.364C249.849 121.53 250.224 121.614 250.641 121.614C250.974 121.614 251.203 121.593 251.328 121.551C254.662 120.635 257.62 119.093 260.203 116.926C262.745 114.76 265.287 112.03 267.828 108.739ZM282.016 96.6763L285.578 93.8638C286.495 93.1138 287.37 92.3846 288.203 91.6763C289.078 90.9263 289.912 90.1554 290.703 89.3638C292.162 87.9471 294.245 86.0096 296.953 83.5513C296.995 83.4679 297.099 83.4054 297.266 83.3638C297.433 83.2804 297.516 83.3638 297.516 83.6138C297.558 84.0304 297.516 84.3638 297.391 84.6138C297.266 84.8221 297.183 84.9471 297.141 84.9888C294.641 87.6138 292.662 89.6138 291.203 90.9888C290.078 92.1138 288.87 93.2179 287.578 94.3013C286.328 95.3429 284.933 96.4679 283.391 97.6763L278.891 101.051C278.016 102.218 277.203 103.343 276.453 104.426C275.578 105.593 274.766 106.655 274.016 107.614C273.308 108.572 272.703 109.364 272.203 109.989C270.328 112.364 268.578 114.405 266.953 116.114C265.287 117.864 263.662 119.301 262.078 120.426C260.495 121.551 258.912 122.385 257.328 122.926C255.703 123.468 254.016 123.739 252.266 123.739C251.141 123.739 250.141 123.364 249.266 122.614C248.349 121.864 247.891 120.926 247.891 119.801C247.891 118.468 248.662 117.03 250.203 115.489C251.703 113.947 253.703 112.322 256.203 110.614C258.662 108.947 261.474 107.176 264.641 105.301C267.808 103.468 271.058 101.551 274.391 99.5513C275.933 97.3429 277.578 95.0304 279.328 92.6138C281.078 90.1554 282.745 87.8013 284.328 85.5513C282.995 86.9679 281.683 88.3013 280.391 89.5513C279.141 90.8013 277.953 91.9054 276.828 92.8638C275.745 93.8221 274.745 94.5721 273.828 95.1138C272.953 95.6971 272.224 95.9888 271.641 95.9888C271.141 95.9888 270.558 95.6971 269.891 95.1138C269.224 94.5721 268.891 93.5513 268.891 92.0513C268.891 91.5513 269.058 90.9054 269.391 90.1138C269.683 89.3221 270.099 88.4679 270.641 87.5513C271.183 86.5929 271.787 85.6138 272.453 84.6138C273.12 83.6138 273.808 82.6346 274.516 81.6763C275.058 80.8846 275.662 80.0513 276.328 79.1763C276.995 78.3013 277.641 77.5096 278.266 76.8013C278.891 76.0929 279.433 75.5096 279.891 75.0513C280.391 74.5929 280.724 74.3638 280.891 74.3638C281.141 74.3638 281.37 74.4888 281.578 74.7388C281.828 74.9888 282.058 75.2804 282.266 75.6138C282.474 75.9471 282.641 76.3013 282.766 76.6763C282.891 77.0513 282.953 77.3846 282.953 77.6763C282.953 77.8013 282.683 78.2388 282.141 78.9888C281.641 79.7388 280.995 80.6554 280.203 81.7388C279.412 82.7804 278.558 83.9263 277.641 85.1763C276.724 86.4263 275.87 87.6138 275.078 88.7388C274.287 89.8638 273.62 90.8846 273.078 91.8013C272.578 92.6763 272.328 93.3013 272.328 93.6763C272.328 93.7596 272.37 93.8013 272.453 93.8013C272.828 93.8013 273.453 93.4888 274.328 92.8638C275.203 92.2388 276.183 91.4263 277.266 90.4263C278.391 89.4263 279.578 88.3221 280.828 87.1138C282.078 85.8638 283.308 84.6346 284.516 83.4263C285.724 82.2179 286.849 81.0721 287.891 79.9888C288.933 78.9054 289.808 78.0304 290.516 77.3638C291.099 76.6554 291.578 76.0929 291.953 75.6763C292.37 75.2596 292.662 75.0513 292.828 75.0513C293.037 75.0513 293.266 75.1763 293.516 75.4263C293.766 75.6763 293.995 75.9679 294.203 76.3013C294.412 76.6346 294.578 77.0096 294.703 77.4263C294.828 77.8013 294.891 78.1138 294.891 78.3638C294.891 78.5304 294.558 79.0929 293.891 80.0513C293.224 80.9679 292.412 82.0929 291.453 83.4263C291.495 83.3846 291.328 83.6138 290.953 84.1138C290.62 84.5721 290.12 85.2596 289.453 86.1763C288.828 87.0513 288.099 88.0721 287.266 89.2388C286.474 90.3221 284.808 92.6763 282.266 96.3013L282.016 96.6763ZM305.078 87.6138C304.787 87.7388 304.474 87.8638 304.141 87.9888C303.016 88.7388 301.933 89.4888 300.891 90.2388C299.891 90.9888 298.995 91.7179 298.203 92.4263C297.453 93.0929 296.849 93.7388 296.391 94.3638C295.933 94.9471 295.703 95.4888 295.703 95.9888C295.703 96.1971 295.578 96.3013 295.328 96.3013C295.245 96.3013 295.162 96.2596 295.078 96.1763C294.495 95.8429 294.016 95.4471 293.641 94.9888C293.266 94.5721 293.078 94.1138 293.078 93.6138C293.078 93.0721 293.37 92.4471 293.953 91.7388C294.537 90.9888 295.328 90.1971 296.328 89.3638C297.328 88.5304 298.474 87.6554 299.766 86.7388C301.058 85.8221 302.391 84.9054 303.766 83.9888C303.683 83.1554 303.641 82.2804 303.641 81.3638V79.1138C302.849 79.8221 302.058 80.5304 301.266 81.2388C298.641 83.5721 296.328 85.7596 294.328 87.8013C294.245 87.8846 294.12 87.9679 293.953 88.0513C293.828 88.0929 293.766 87.9888 293.766 87.7388C293.724 87.3221 293.766 87.0096 293.891 86.8013C294.016 86.5513 294.12 86.4054 294.203 86.3638C294.787 85.6971 295.203 85.1971 295.453 84.8638C295.745 84.5304 296.453 83.7596 297.578 82.5513C298.745 81.3013 299.87 80.1763 300.953 79.1763C301.787 78.3846 302.724 77.5513 303.766 76.6763C303.891 76.5513 304.016 76.4471 304.141 76.3638C304.308 75.8221 304.474 75.4679 304.641 75.3013C305.016 74.9263 305.224 74.7388 305.266 74.7388C305.724 74.7388 306.12 74.9054 306.453 75.2388C306.787 75.5721 306.974 78.3429 307.016 83.5513C308.808 81.3429 310.245 79.4263 311.328 77.8013C312.953 75.3846 313.87 74.0721 314.078 73.8638C314.495 73.5304 314.787 73.3638 314.953 73.3638C315.162 73.3638 315.391 73.4888 315.641 73.7388C315.891 73.9888 316.12 74.2804 316.328 74.6138C316.537 74.9471 316.703 75.3013 316.828 75.6763C316.953 76.0513 317.016 76.3846 317.016 76.6763C317.016 76.7596 316.912 76.9679 316.703 77.3013C316.495 77.6346 316.224 78.0304 315.891 78.4888L309.953 87.0513C311.328 85.7179 312.703 84.4679 314.078 83.3013C315.495 82.0929 316.828 81.0096 318.078 80.0513C319.37 79.0513 320.558 78.1971 321.641 77.4888C322.724 76.7388 323.62 76.1763 324.328 75.8013C324.578 75.6763 324.87 75.6763 325.203 75.8013C325.537 75.8846 325.828 76.0513 326.078 76.3013C326.328 76.5513 326.516 76.8429 326.641 77.1763C326.808 77.4679 326.87 77.7388 326.828 77.9888C326.787 78.0721 326.683 78.1554 326.516 78.2388C326.391 78.3221 325.766 78.6763 324.641 79.3013C323.558 79.8846 322.328 80.5929 320.953 81.4263C319.578 82.2179 318.245 83.0304 316.953 83.8638C315.662 84.6971 314.766 85.3638 314.266 85.8638C314.183 85.9471 314.099 86.0096 314.016 86.0513C314.433 86.1346 314.828 86.2596 315.203 86.4263C315.578 86.5513 315.849 86.8013 316.016 87.1763C316.391 88.0096 316.808 88.9888 317.266 90.1138C317.766 91.2388 318.349 92.3221 319.016 93.3638C319.683 94.4054 320.412 95.2804 321.203 95.9888C321.995 96.7388 322.891 97.1138 323.891 97.1138C324.224 97.1138 324.662 97.0096 325.203 96.8013C325.745 96.6346 326.078 96.5513 326.203 96.5513C326.453 96.5513 326.578 96.6554 326.578 96.8638C326.578 96.9888 326.453 97.1554 326.203 97.3638C325.953 97.5721 325.62 97.7596 325.203 97.9263C324.828 98.1346 324.391 98.3013 323.891 98.4263C323.391 98.5929 322.87 98.6763 322.328 98.6763C320.87 98.6763 319.558 98.2804 318.391 97.4888C317.224 96.6971 316.203 95.7388 315.328 94.6138C314.453 93.5304 313.703 92.3846 313.078 91.1763C312.495 89.9679 312.058 88.9471 311.766 88.1138C311.766 88.1554 311.745 88.1763 311.703 88.1763C311.62 88.2596 311.287 88.5721 310.703 89.1138C310.12 89.6554 309.433 90.3013 308.641 91.0513C307.891 91.8013 307.12 92.5721 306.328 93.3638C305.537 94.1554 304.891 94.8638 304.391 95.4888C304.016 96.0304 303.724 96.4471 303.516 96.7388C303.349 97.0304 303.224 97.2388 303.141 97.3638C303.058 97.4888 302.995 97.5721 302.953 97.6138C302.912 97.6554 302.849 97.6763 302.766 97.6763C302.558 97.7179 302.308 97.6138 302.016 97.3638C301.766 97.1554 301.495 96.7596 301.203 96.1763C301.078 95.8846 301.141 95.4054 301.391 94.7388C301.849 93.5721 302.558 92.1138 303.516 90.3638C303.974 89.4888 304.495 88.5721 305.078 87.6138ZM345.391 82.7388C345.433 82.6554 345.537 82.5929 345.703 82.5513C345.87 82.4679 345.953 82.5513 345.953 82.8013C345.953 83.2179 345.87 83.5513 345.703 83.8013C345.578 84.0096 345.495 84.1346 345.453 84.1763C345.12 84.5096 344.724 84.8846 344.266 85.3013C343.849 85.7179 342.974 86.5304 341.641 87.7388C340.266 88.9054 338.849 89.9888 337.391 90.9888C335.933 91.9471 334.433 92.7596 332.891 93.4263C331.391 94.0513 329.933 94.3638 328.516 94.3638C327.016 94.3638 325.849 93.9679 325.016 93.1763C324.224 92.3846 323.828 91.2804 323.828 89.8638C323.828 88.7804 324.058 87.6346 324.516 86.4263C324.933 85.2179 325.516 84.0096 326.266 82.8013C327.016 81.5929 327.891 80.4471 328.891 79.3638C329.849 78.2388 330.849 77.2596 331.891 76.4263C332.974 75.5513 334.058 74.8638 335.141 74.3638C336.224 73.8638 337.266 73.6138 338.266 73.6138C338.599 73.6138 339.037 73.6763 339.578 73.8013C340.078 73.8846 340.578 74.0513 341.078 74.3013C341.578 74.5513 341.995 74.9054 342.328 75.3638C342.703 75.7804 342.891 76.3221 342.891 76.9888C342.891 78.0721 342.62 79.0721 342.078 79.9888C341.495 80.9054 340.766 81.7388 339.891 82.4888C339.016 83.1971 338.058 83.8429 337.016 84.4263C335.933 84.9679 334.891 85.4263 333.891 85.8013C332.849 86.1346 331.891 86.4054 331.016 86.6138C330.183 86.7804 329.558 86.8429 329.141 86.8013C328.558 87.7596 328.12 88.6554 327.828 89.4888C327.495 90.3221 327.328 91.0929 327.328 91.8013C327.328 92.0513 327.391 92.2388 327.516 92.3638C327.641 92.4471 328.016 92.4888 328.641 92.4888C330.808 92.4888 332.87 91.9679 334.828 90.9263C336.828 89.8846 338.703 88.6346 340.453 87.1763C342.203 85.6763 343.849 84.1971 345.391 82.7388ZM341.203 76.5513C341.203 76.1346 340.995 75.9263 340.578 75.9263C339.995 75.9263 339.287 76.1971 338.453 76.7388C337.578 77.2388 336.662 77.9263 335.703 78.8013C334.745 79.6346 333.808 80.6138 332.891 81.7388C331.933 82.8221 331.058 83.9263 330.266 85.0513C331.474 84.7596 332.724 84.2804 334.016 83.6138C335.308 82.9054 336.474 82.1346 337.516 81.3013C338.599 80.4679 339.495 79.6346 340.203 78.8013C340.87 77.9263 341.203 77.1763 341.203 76.5513ZM381.703 84.9263C381.745 84.8429 381.849 84.7804 382.016 84.7388C382.183 84.6554 382.266 84.7388 382.266 84.9888C382.266 85.4054 382.183 85.7388 382.016 85.9888C381.891 86.1971 381.808 86.3221 381.766 86.3638C381.141 86.9888 380.349 87.8221 379.391 88.8638C378.474 89.9054 377.724 90.7388 377.141 91.3638C376.558 91.9888 375.703 92.7804 374.578 93.7388C373.453 94.6971 372.391 95.4679 371.391 96.0513C370.433 96.6763 369.62 96.9888 368.953 96.9888C368.245 96.9888 367.662 96.6346 367.203 95.9263C366.745 95.2179 366.516 94.4263 366.516 93.5513C366.516 93.0096 366.683 92.3221 367.016 91.4888C367.391 90.6554 367.849 89.7596 368.391 88.8013C368.974 87.8013 369.599 86.8013 370.266 85.8013C370.933 84.8013 371.558 83.8846 372.141 83.0513C372.766 82.1763 373.308 81.4263 373.766 80.8013C374.224 80.1763 374.516 79.7596 374.641 79.5513C375.308 78.6763 375.641 78.0721 375.641 77.7388C375.641 77.6138 375.578 77.5513 375.453 77.5513C374.912 77.5513 374.037 77.9888 372.828 78.8638C371.662 79.7388 370.328 80.8221 368.828 82.1138C367.37 83.4054 365.849 84.8221 364.266 86.3638C362.724 87.9054 361.287 89.3429 359.953 90.6763C358.662 91.9679 357.578 93.0721 356.703 93.9888C355.87 94.9054 355.433 95.4054 355.391 95.4888L355.516 95.2388C355.058 95.7804 354.766 96.0513 354.641 96.0513C354.433 96.0929 354.12 95.9263 353.703 95.5513C353.287 95.1763 352.912 94.6971 352.578 94.1138C352.412 93.6971 352.495 93.2179 352.828 92.6763C353.328 91.8429 353.974 90.7804 354.766 89.4888C355.599 88.1971 356.474 86.8429 357.391 85.4263C358.308 84.0096 359.224 82.5929 360.141 81.1763C361.099 79.7596 361.995 78.4888 362.828 77.3638C363.203 76.9054 363.474 76.4888 363.641 76.1138C363.808 75.7388 363.953 75.4263 364.078 75.1763C364.245 74.9263 364.391 74.7388 364.516 74.6138C364.683 74.4888 364.912 74.4263 365.203 74.4263C365.578 74.4263 365.995 74.7388 366.453 75.3638C366.912 75.9471 367.224 76.5513 367.391 77.1763C367.474 77.5513 367.453 77.8638 367.328 78.1138C367.203 78.3638 366.974 78.7179 366.641 79.1763C366.308 79.5929 365.912 80.1346 365.453 80.8013C364.995 81.4263 364.495 82.1138 363.953 82.8638C363.453 83.6138 362.912 84.4054 362.328 85.2388C361.745 86.0721 361.183 86.8846 360.641 87.6763C361.808 86.5513 363.141 85.2804 364.641 83.8638C366.183 82.4471 367.703 81.1138 369.203 79.8638C370.745 78.6138 372.162 77.5513 373.453 76.6763C374.745 75.8013 375.745 75.3638 376.453 75.3638C377.162 75.3638 377.87 75.8013 378.578 76.6763C379.287 77.5096 379.641 78.6554 379.641 80.1138C379.641 80.3638 379.391 80.8638 378.891 81.6138C378.433 82.3221 377.828 83.1763 377.078 84.1763C376.328 85.1346 375.537 86.1763 374.703 87.3013C373.87 88.3846 373.078 89.4471 372.328 90.4888C371.578 91.4888 370.953 92.4054 370.453 93.2388C369.995 94.0721 369.766 94.6763 369.766 95.0513C369.766 95.1346 369.808 95.1763 369.891 95.1763C370.516 95.1763 371.37 94.7596 372.453 93.9263C373.537 93.0513 374.849 91.8429 376.391 90.3013C377.933 88.7179 379.703 86.9263 381.703 84.9263ZM392.703 85.6763C391.328 87.6763 390.078 89.3221 388.953 90.6138C387.828 91.9054 386.703 93.0513 385.578 94.0513C384.453 95.0513 383.391 95.8638 382.391 96.4888C381.391 97.1138 380.516 97.4263 379.766 97.4263C378.933 97.4263 378.245 96.9263 377.703 95.9263C377.12 94.9679 376.828 93.9263 376.828 92.8013C376.828 91.9263 377.078 90.8638 377.578 89.6138C378.078 88.3221 378.662 87.0929 379.328 85.9263C379.995 84.7179 380.641 83.6971 381.266 82.8638C381.933 81.9888 382.391 81.4888 382.641 81.3638C382.933 80.4054 383.453 79.4888 384.203 78.6138C384.953 77.6971 385.808 76.9054 386.766 76.2388C387.724 75.5721 388.703 75.0513 389.703 74.6763C390.745 74.2596 391.641 74.0513 392.391 74.0513C392.683 74.0513 393.058 74.1554 393.516 74.3638C394.016 74.5304 394.495 74.7804 394.953 75.1138C395.412 75.4054 395.808 75.7596 396.141 76.1763C396.474 76.5929 396.641 77.0304 396.641 77.4888C396.641 78.3221 396.328 79.3846 395.703 80.6763C395.12 81.9679 394.12 83.6346 392.703 85.6763ZM391.266 85.4263C392.391 83.7179 393.308 82.1138 394.016 80.6138C394.724 79.0721 395.078 77.9054 395.078 77.1138C395.078 76.8221 394.912 76.6763 394.578 76.6763C394.078 76.6763 393.453 76.8638 392.703 77.2388C391.953 77.5721 391.162 78.0096 390.328 78.5513C389.495 79.0929 388.703 79.7179 387.953 80.4263C387.203 81.1346 386.578 81.8221 386.078 82.4888C386.245 82.6554 386.328 82.8638 386.328 83.1138C386.328 83.3638 385.995 83.9888 385.328 84.9888L384.328 86.4263C383.828 87.1346 383.308 87.9054 382.766 88.7388C382.224 89.5304 381.724 90.3221 381.266 91.1138C380.808 91.8638 380.433 92.6138 380.141 93.3638C379.849 94.0721 379.703 94.6763 379.703 95.1763C379.703 95.3013 379.787 95.3638 379.953 95.3638C380.703 95.3638 381.495 95.1346 382.328 94.6763C383.203 94.2596 384.078 93.6763 384.953 92.9263C385.828 92.1763 386.683 91.3221 387.516 90.3638C388.391 89.3638 389.203 88.3429 389.953 87.3013L391.266 85.4263ZM418.828 85.1138C418.912 85.0304 419.016 84.9679 419.141 84.9263C419.308 84.8429 419.391 84.9263 419.391 85.1763C419.391 85.5929 419.308 85.9263 419.141 86.1763C419.016 86.3846 418.933 86.5096 418.891 86.5513C417.308 88.3013 415.808 89.8846 414.391 91.3013C412.974 92.6763 411.683 93.7804 410.516 94.6138C409.391 95.4888 408.412 95.9263 407.578 95.9263C407.037 95.9263 406.433 95.6346 405.766 95.0513C405.141 94.5096 404.828 93.5096 404.828 92.0513C404.828 91.3429 405.12 90.3638 405.703 89.1138C406.328 87.8638 407.078 86.5513 407.953 85.1763C406.578 86.6346 405.245 88.0096 403.953 89.3013C402.662 90.5929 401.453 91.7388 400.328 92.7388C399.203 93.6971 398.183 94.4679 397.266 95.0513C396.349 95.6346 395.578 95.9263 394.953 95.9263C394.453 95.9263 393.87 95.6346 393.203 95.0513C392.537 94.5096 392.203 93.5096 392.203 92.0513C392.203 91.5513 392.37 90.9054 392.703 90.1138C393.037 89.2804 393.453 88.4054 393.953 87.4888C394.495 86.5304 395.287 85.4263 396.328 84.1763C397.412 82.8846 398.058 82.2388 398.266 82.2388C398.474 82.2388 398.703 82.3638 398.953 82.6138C399.203 82.8221 399.433 83.1138 399.641 83.4888C399.849 83.8221 400.016 84.1763 400.141 84.5513C400.266 84.9263 400.328 85.2388 400.328 85.4888C400.328 85.6138 400.058 86.0513 399.516 86.8013C399.016 87.5513 398.62 88.0929 398.328 88.4263C398.078 88.7596 397.828 89.1763 397.578 89.6763C397.328 90.1346 396.933 90.8221 396.391 91.7388C395.891 92.6138 395.641 93.2388 395.641 93.6138C395.641 93.7388 395.683 93.8013 395.766 93.8013C396.141 93.8013 396.724 93.5304 397.516 92.9888C398.308 92.4054 399.224 91.6763 400.266 90.8013C401.308 89.8846 402.412 88.8638 403.578 87.7388C404.745 86.5721 405.912 85.4054 407.078 84.2388C408.245 83.0721 409.349 81.9471 410.391 80.8638C411.433 79.7804 412.349 78.8429 413.141 78.0513C413.724 77.3429 414.245 76.7804 414.703 76.3638C415.162 75.9054 415.495 75.6763 415.703 75.6763C415.912 75.6763 416.141 75.8013 416.391 76.0513C416.641 76.3013 416.87 76.5929 417.078 76.9263C417.287 77.2596 417.453 77.6346 417.578 78.0513C417.703 78.4263 417.766 78.7388 417.766 78.9888C417.766 79.1138 417.516 79.5304 417.016 80.2388C416.558 80.9054 415.974 81.7179 415.266 82.6763C414.599 83.6346 413.849 84.6763 413.016 85.8013C412.183 86.9263 411.412 88.0096 410.703 89.0513C410.037 90.0929 409.453 91.0304 408.953 91.8638C408.495 92.6554 408.266 93.2388 408.266 93.6138C408.266 93.7388 408.308 93.8013 408.391 93.8013C409.016 93.8013 409.766 93.4471 410.641 92.7388C411.558 92.0304 412.641 91.0513 413.891 89.8013C415.141 88.5513 416.787 86.9888 418.828 85.1138ZM412.328 108.739C412.745 108.239 413.308 107.468 414.016 106.426C414.724 105.426 415.558 104.26 416.516 102.926C414.974 103.885 413.328 104.905 411.578 105.989C409.828 107.072 407.933 108.26 405.891 109.551C403.433 111.093 401.412 112.447 399.828 113.614C398.203 114.822 396.933 115.864 396.016 116.739C395.058 117.614 394.412 118.343 394.078 118.926C393.703 119.551 393.516 120.051 393.516 120.426C393.516 120.885 393.683 121.197 394.016 121.364C394.349 121.53 394.724 121.614 395.141 121.614C395.474 121.614 395.703 121.593 395.828 121.551C399.162 120.635 402.12 119.093 404.703 116.926C407.245 114.76 409.787 112.03 412.328 108.739ZM426.516 96.6763L430.078 93.8638C430.995 93.1138 431.87 92.3846 432.703 91.6763C433.578 90.9263 434.412 90.1554 435.203 89.3638C436.662 87.9471 438.745 86.0096 441.453 83.5513C441.495 83.4679 441.599 83.4054 441.766 83.3638C441.933 83.2804 442.016 83.3638 442.016 83.6138C442.058 84.0304 442.016 84.3638 441.891 84.6138C441.766 84.8221 441.683 84.9471 441.641 84.9888C439.141 87.6138 437.162 89.6138 435.703 90.9888C434.578 92.1138 433.37 93.2179 432.078 94.3013C430.828 95.3429 429.433 96.4679 427.891 97.6763L423.391 101.051C422.516 102.218 421.703 103.343 420.953 104.426C420.078 105.593 419.266 106.655 418.516 107.614C417.808 108.572 417.203 109.364 416.703 109.989C414.828 112.364 413.078 114.405 411.453 116.114C409.787 117.864 408.162 119.301 406.578 120.426C404.995 121.551 403.412 122.385 401.828 122.926C400.203 123.468 398.516 123.739 396.766 123.739C395.641 123.739 394.641 123.364 393.766 122.614C392.849 121.864 392.391 120.926 392.391 119.801C392.391 118.468 393.162 117.03 394.703 115.489C396.203 113.947 398.203 112.322 400.703 110.614C403.162 108.947 405.974 107.176 409.141 105.301C412.308 103.468 415.558 101.551 418.891 99.5513C420.433 97.3429 422.078 95.0304 423.828 92.6138C425.578 90.1554 427.245 87.8013 428.828 85.5513C427.495 86.9679 426.183 88.3013 424.891 89.5513C423.641 90.8013 422.453 91.9054 421.328 92.8638C420.245 93.8221 419.245 94.5721 418.328 95.1138C417.453 95.6971 416.724 95.9888 416.141 95.9888C415.641 95.9888 415.058 95.6971 414.391 95.1138C413.724 94.5721 413.391 93.5513 413.391 92.0513C413.391 91.5513 413.558 90.9054 413.891 90.1138C414.183 89.3221 414.599 88.4679 415.141 87.5513C415.683 86.5929 416.287 85.6138 416.953 84.6138C417.62 83.6138 418.308 82.6346 419.016 81.6763C419.558 80.8846 420.162 80.0513 420.828 79.1763C421.495 78.3013 422.141 77.5096 422.766 76.8013C423.391 76.0929 423.933 75.5096 424.391 75.0513C424.891 74.5929 425.224 74.3638 425.391 74.3638C425.641 74.3638 425.87 74.4888 426.078 74.7388C426.328 74.9888 426.558 75.2804 426.766 75.6138C426.974 75.9471 427.141 76.3013 427.266 76.6763C427.391 77.0513 427.453 77.3846 427.453 77.6763C427.453 77.8013 427.183 78.2388 426.641 78.9888C426.141 79.7388 425.495 80.6554 424.703 81.7388C423.912 82.7804 423.058 83.9263 422.141 85.1763C421.224 86.4263 420.37 87.6138 419.578 88.7388C418.787 89.8638 418.12 90.8846 417.578 91.8013C417.078 92.6763 416.828 93.3013 416.828 93.6763C416.828 93.7596 416.87 93.8013 416.953 93.8013C417.328 93.8013 417.953 93.4888 418.828 92.8638C419.703 92.2388 420.683 91.4263 421.766 90.4263C422.891 89.4263 424.078 88.3221 425.328 87.1138C426.578 85.8638 427.808 84.6346 429.016 83.4263C430.224 82.2179 431.349 81.0721 432.391 79.9888C433.433 78.9054 434.308 78.0304 435.016 77.3638C435.599 76.6554 436.078 76.0929 436.453 75.6763C436.87 75.2596 437.162 75.0513 437.328 75.0513C437.537 75.0513 437.766 75.1763 438.016 75.4263C438.266 75.6763 438.495 75.9679 438.703 76.3013C438.912 76.6346 439.078 77.0096 439.203 77.4263C439.328 77.8013 439.391 78.1138 439.391 78.3638C439.391 78.5304 439.058 79.0929 438.391 80.0513C437.724 80.9679 436.912 82.0929 435.953 83.4263C435.995 83.3846 435.828 83.6138 435.453 84.1138C435.12 84.5721 434.62 85.2596 433.953 86.1763C433.328 87.0513 432.599 88.0721 431.766 89.2388C430.974 90.3221 429.308 92.6763 426.766 96.3013L426.516 96.6763ZM456.953 82.1138C456.703 82.4471 456.433 82.8221 456.141 83.2388C455.724 83.7804 455.349 84.2804 455.016 84.7388C454.724 85.1971 454.453 85.5721 454.203 85.8638C453.578 86.6554 452.912 87.5096 452.203 88.4263C451.495 89.3429 450.828 90.2388 450.203 91.1138C449.578 91.9471 449.058 92.7179 448.641 93.4263C448.224 94.1346 448.016 94.6763 448.016 95.0513C448.016 95.1346 448.058 95.1763 448.141 95.1763C448.766 95.1763 449.62 94.7596 450.703 93.9263C451.787 93.0513 453.058 91.9054 454.516 90.4888C455.974 89.0304 457.745 87.3429 459.828 85.4263C459.912 85.3429 460.016 85.2804 460.141 85.2388C460.308 85.1554 460.391 85.2388 460.391 85.4888C460.391 85.9054 460.328 86.2388 460.203 86.4888C460.078 86.6971 459.974 86.8221 459.891 86.8638C459.266 87.4888 458.808 87.9679 458.516 88.3013C458.224 88.5929 457.474 89.3429 456.266 90.5513C455.099 91.7179 453.953 92.7804 452.828 93.7388C451.703 94.6971 450.641 95.4679 449.641 96.0513C448.683 96.6763 447.87 96.9888 447.203 96.9888C446.453 96.9888 445.849 96.6346 445.391 95.9263C444.974 95.2179 444.766 94.4263 444.766 93.5513C444.766 92.7596 445.058 91.7596 445.641 90.5513C446.266 89.3429 446.891 88.2388 447.516 87.2388C448.141 86.1971 448.641 85.4054 449.016 84.8638C449.766 83.7804 450.828 82.3846 452.203 80.6763C453.62 78.9679 454.328 78.0304 454.328 77.8638H452.391C452.099 77.8638 451.808 77.8638 451.516 77.8638C451.224 77.8638 450.912 77.8221 450.578 77.7388L449.953 77.5513C448.537 78.7596 447.141 79.9888 445.766 81.2388C443.141 83.5721 440.828 85.7596 438.828 87.8013C438.745 87.8846 438.62 87.9679 438.453 88.0513C438.328 88.0929 438.266 87.9888 438.266 87.7388C438.224 87.3221 438.266 87.0096 438.391 86.8013C438.516 86.5513 438.62 86.4054 438.703 86.3638C439.287 85.6971 439.703 85.1971 439.953 84.8638C440.245 84.5304 440.953 83.7596 442.078 82.5513C443.245 81.3013 444.37 80.1763 445.453 79.1763C446.287 78.3846 447.203 77.5513 448.203 76.6763C447.912 76.3429 447.766 75.9471 447.766 75.4888C447.766 75.1971 447.891 75.0513 448.141 75.0513C448.183 75.0513 448.287 75.0929 448.453 75.1763C448.662 75.3013 449.016 75.3846 449.516 75.4263C450.058 75.4679 450.683 75.4888 451.391 75.4888C452.141 75.4888 452.912 75.4888 453.703 75.4888C454.537 75.4471 455.287 75.4054 455.953 75.3638C456.703 75.3221 457.474 75.2596 458.266 75.1763C458.724 75.1763 459.141 75.4054 459.516 75.8638C459.933 76.2804 460.141 76.8429 460.141 77.5513C460.141 77.8846 460.078 78.1763 459.953 78.4263C459.87 78.6763 459.766 78.8846 459.641 79.0513C459.308 79.5513 458.703 80.2596 457.828 81.1763C457.537 81.4679 457.245 81.7804 456.953 82.1138ZM483.703 85.3013C483.787 85.2179 483.891 85.1554 484.016 85.1138C484.183 85.0304 484.266 85.1138 484.266 85.3638C484.266 85.7804 484.183 86.1138 484.016 86.3638C483.891 86.5721 483.808 86.6971 483.766 86.7388C482.058 88.3638 480.495 89.8846 479.078 91.3013C477.662 92.6763 476.37 93.7804 475.203 94.6138C474.078 95.4888 473.099 95.9263 472.266 95.9263C471.724 95.9263 471.12 95.6346 470.453 95.0513C469.828 94.5096 469.516 93.5096 469.516 92.0513C469.516 91.3429 469.808 90.3638 470.391 89.1138C471.016 87.8638 471.766 86.5513 472.641 85.1763C471.266 86.6346 469.933 88.0096 468.641 89.3013C467.349 90.5929 466.141 91.7388 465.016 92.7388C463.891 93.6971 462.87 94.4679 461.953 95.0513C461.037 95.6346 460.266 95.9263 459.641 95.9263C459.141 95.9263 458.558 95.6346 457.891 95.0513C457.224 94.5096 456.891 93.5096 456.891 92.0513C456.891 91.5513 457.058 90.9054 457.391 90.1138C457.724 89.2804 458.141 88.4054 458.641 87.4888C459.183 86.5304 459.787 85.5513 460.453 84.5513C461.162 83.5513 461.87 82.5721 462.578 81.6138C463.12 80.8221 463.724 80.0096 464.391 79.1763C465.058 78.3013 465.683 77.5096 466.266 76.8013C466.891 76.0929 467.433 75.5096 467.891 75.0513C468.391 74.5929 468.745 74.3638 468.953 74.3638C469.162 74.3638 469.391 74.4888 469.641 74.7388C469.891 74.9471 470.12 75.2388 470.328 75.6138C470.537 75.9471 470.703 76.3013 470.828 76.6763C470.953 77.0513 471.016 77.3638 471.016 77.6138C471.016 77.7388 470.745 78.1763 470.203 78.9263C469.703 79.6763 469.058 80.5929 468.266 81.6763C467.474 82.7179 466.599 83.8638 465.641 85.1138C464.724 86.3638 463.87 87.5513 463.078 88.6763C462.287 89.8013 461.62 90.8221 461.078 91.7388C460.578 92.6138 460.328 93.2388 460.328 93.6138C460.328 93.7388 460.37 93.8013 460.453 93.8013C460.828 93.8013 461.412 93.5304 462.203 92.9888C462.995 92.4054 463.912 91.6763 464.953 90.8013C465.995 89.8846 467.099 88.8638 468.266 87.7388C469.433 86.5721 470.599 85.4054 471.766 84.2388C472.933 83.0721 474.037 81.9471 475.078 80.8638C476.12 79.7804 477.037 78.8429 477.828 78.0513C478.412 77.3429 478.933 76.7804 479.391 76.3638C479.849 75.9054 480.183 75.6763 480.391 75.6763C480.599 75.6763 480.828 75.8013 481.078 76.0513C481.328 76.3013 481.558 76.5929 481.766 76.9263C481.974 77.2596 482.141 77.6346 482.266 78.0513C482.391 78.4263 482.453 78.7388 482.453 78.9888C482.453 79.1138 482.203 79.5304 481.703 80.2388C481.245 80.9054 480.662 81.7179 479.953 82.6763C479.287 83.6346 478.537 84.6763 477.703 85.8013C476.87 86.9263 476.099 88.0096 475.391 89.0513C474.724 90.0929 474.141 91.0304 473.641 91.8638C473.183 92.6554 472.953 93.2388 472.953 93.6138C472.953 93.7388 472.995 93.8013 473.078 93.8013C473.703 93.8013 474.453 93.4471 475.328 92.7388C476.245 92.0304 477.328 91.0513 478.578 89.8013C479.828 88.5513 481.537 87.0513 483.703 85.3013ZM504.828 85.1138C504.912 85.0304 505.016 84.9679 505.141 84.9263C505.308 84.8429 505.391 84.9263 505.391 85.1763C505.391 85.5929 505.308 85.9263 505.141 86.1763C505.016 86.3846 504.933 86.5096 504.891 86.5513C503.308 88.3013 501.808 89.8846 500.391 91.3013C498.974 92.6763 497.683 93.7804 496.516 94.6138C495.391 95.4888 494.412 95.9263 493.578 95.9263C493.037 95.9263 492.433 95.6346 491.766 95.0513C491.141 94.5096 490.828 93.5096 490.828 92.0513C490.828 91.3429 491.12 90.3638 491.703 89.1138C492.328 87.8638 493.078 86.5513 493.953 85.1763C492.578 86.6346 491.245 88.0096 489.953 89.3013C488.662 90.5929 487.453 91.7388 486.328 92.7388C485.203 93.6971 484.183 94.4679 483.266 95.0513C482.349 95.6346 481.578 95.9263 480.953 95.9263C480.453 95.9263 479.87 95.6346 479.203 95.0513C478.537 94.5096 478.203 93.5096 478.203 92.0513C478.203 91.5513 478.37 90.9054 478.703 90.1138C479.037 89.2804 479.453 88.4054 479.953 87.4888C480.495 86.5304 481.287 85.4263 482.328 84.1763C483.412 82.8846 484.058 82.2388 484.266 82.2388C484.474 82.2388 484.703 82.3638 484.953 82.6138C485.203 82.8221 485.433 83.1138 485.641 83.4888C485.849 83.8221 486.016 84.1763 486.141 84.5513C486.266 84.9263 486.328 85.2388 486.328 85.4888C486.328 85.6138 486.058 86.0513 485.516 86.8013C485.016 87.5513 484.62 88.0929 484.328 88.4263C484.078 88.7596 483.828 89.1763 483.578 89.6763C483.328 90.1346 482.933 90.8221 482.391 91.7388C481.891 92.6138 481.641 93.2388 481.641 93.6138C481.641 93.7388 481.683 93.8013 481.766 93.8013C482.141 93.8013 482.724 93.5304 483.516 92.9888C484.308 92.4054 485.224 91.6763 486.266 90.8013C487.308 89.8846 488.412 88.8638 489.578 87.7388C490.745 86.5721 491.912 85.4054 493.078 84.2388C494.245 83.0721 495.349 81.9471 496.391 80.8638C497.433 79.7804 498.349 78.8429 499.141 78.0513C499.724 77.3429 500.245 76.7804 500.703 76.3638C501.162 75.9054 501.495 75.6763 501.703 75.6763C501.912 75.6763 502.141 75.8013 502.391 76.0513C502.641 76.3013 502.87 76.5929 503.078 76.9263C503.287 77.2596 503.453 77.6346 503.578 78.0513C503.703 78.4263 503.766 78.7388 503.766 78.9888C503.766 79.1138 503.516 79.5304 503.016 80.2388C502.558 80.9054 501.974 81.7179 501.266 82.6763C500.599 83.6346 499.849 84.6763 499.016 85.8013C498.183 86.9263 497.412 88.0096 496.703 89.0513C496.037 90.0929 495.453 91.0304 494.953 91.8638C494.495 92.6554 494.266 93.2388 494.266 93.6138C494.266 93.7388 494.308 93.8013 494.391 93.8013C495.016 93.8013 495.766 93.4471 496.641 92.7388C497.558 92.0304 498.641 91.0513 499.891 89.8013C501.141 88.5513 502.787 86.9888 504.828 85.1138ZM514.766 85.6763C513.391 87.6763 512.141 89.3221 511.016 90.6138C509.891 91.9054 508.766 93.0513 507.641 94.0513C506.516 95.0513 505.453 95.8638 504.453 96.4888C503.453 97.1138 502.578 97.4263 501.828 97.4263C500.995 97.4263 500.308 96.9263 499.766 95.9263C499.183 94.9679 498.891 93.9263 498.891 92.8013C498.891 91.9263 499.141 90.8638 499.641 89.6138C500.141 88.3221 500.724 87.0929 501.391 85.9263C502.058 84.7179 502.703 83.6971 503.328 82.8638C503.995 81.9888 504.453 81.4888 504.703 81.3638C504.995 80.4054 505.516 79.4888 506.266 78.6138C507.016 77.6971 507.87 76.9054 508.828 76.2388C509.787 75.5721 510.766 75.0513 511.766 74.6763C512.808 74.2596 513.703 74.0513 514.453 74.0513C514.745 74.0513 515.12 74.1554 515.578 74.3638C516.078 74.5304 516.558 74.7804 517.016 75.1138C517.474 75.4054 517.87 75.7596 518.203 76.1763C518.537 76.5929 518.703 77.0304 518.703 77.4888C518.703 78.3221 518.391 79.3846 517.766 80.6763C517.183 81.9679 516.183 83.6346 514.766 85.6763ZM513.328 85.4263C514.453 83.7179 515.37 82.1138 516.078 80.6138C516.787 79.0721 517.141 77.9054 517.141 77.1138C517.141 76.8221 516.974 76.6763 516.641 76.6763C516.141 76.6763 515.516 76.8638 514.766 77.2388C514.016 77.5721 513.224 78.0096 512.391 78.5513C511.558 79.0929 510.766 79.7179 510.016 80.4263C509.266 81.1346 508.641 81.8221 508.141 82.4888C508.308 82.6554 508.391 82.8638 508.391 83.1138C508.391 83.3638 508.058 83.9888 507.391 84.9888L506.391 86.4263C505.891 87.1346 505.37 87.9054 504.828 88.7388C504.287 89.5304 503.787 90.3221 503.328 91.1138C502.87 91.8638 502.495 92.6138 502.203 93.3638C501.912 94.0721 501.766 94.6763 501.766 95.1763C501.766 95.3013 501.849 95.3638 502.016 95.3638C502.766 95.3638 503.558 95.1346 504.391 94.6763C505.266 94.2596 506.141 93.6763 507.016 92.9263C507.891 92.1763 508.745 91.3221 509.578 90.3638C510.453 89.3638 511.266 88.3429 512.016 87.3013L513.328 85.4263ZM535.203 84.2388C535.245 84.1554 535.349 84.0929 535.516 84.0513C535.683 83.9679 535.766 84.0513 535.766 84.3013C535.766 84.7179 535.683 85.0513 535.516 85.3013C535.391 85.5096 535.308 85.6346 535.266 85.6763C534.266 86.7179 532.828 88.1138 530.953 89.8638C529.078 91.6138 527.12 93.0721 525.078 94.2388C523.037 95.3638 520.995 95.9263 518.953 95.9263C517.453 95.9263 516.308 95.5304 515.516 94.7388C514.683 93.9471 514.266 92.8429 514.266 91.4263C514.266 89.8013 514.766 88.0096 515.766 86.0513C516.808 84.0513 518.099 82.1971 519.641 80.4888C521.183 78.7388 522.828 77.2804 524.578 76.1138C526.37 74.9471 527.995 74.3638 529.453 74.3638C529.703 74.3638 530.078 74.4263 530.578 74.5513C531.12 74.6346 531.641 74.8013 532.141 75.0513C532.641 75.3013 533.078 75.6554 533.453 76.1138C533.87 76.5304 534.078 77.0721 534.078 77.7388C534.078 78.5721 533.828 79.4679 533.328 80.4263C532.828 81.3846 532.245 82.2596 531.578 83.0513C530.953 83.8429 530.308 84.5096 529.641 85.0513C529.016 85.5513 528.578 85.8013 528.328 85.8013C527.995 85.8013 527.683 85.6763 527.391 85.4263C527.099 85.1763 526.953 84.9263 526.953 84.6763C526.953 84.5096 527.037 84.3638 527.203 84.2388C527.953 83.6554 528.662 83.0096 529.328 82.3013C529.995 81.5929 530.558 80.9054 531.016 80.2388C531.516 79.5721 531.912 78.9679 532.203 78.4263C532.495 77.8429 532.641 77.3638 532.641 76.9888C532.641 76.5721 532.433 76.3638 532.016 76.3638C531.433 76.3638 530.662 76.6763 529.703 77.3013C528.787 77.8846 527.787 78.6763 526.703 79.6763C525.662 80.6346 524.599 81.7388 523.516 82.9888C522.474 84.2388 521.516 85.4888 520.641 86.7388C519.808 87.9888 519.12 89.1971 518.578 90.3638C518.037 91.5304 517.766 92.5304 517.766 93.3638C517.766 93.6138 517.828 93.8013 517.953 93.9263C518.078 94.0096 518.453 94.0513 519.078 94.0513C521.037 94.0513 522.974 93.5513 524.891 92.5513C526.808 91.5096 528.683 90.1763 530.516 88.5513C532.391 86.9263 533.953 85.4888 535.203 84.2388ZM533.203 94.9263C533.287 95.0096 533.516 94.9263 533.891 94.6763C534.308 94.4679 534.766 94.1554 535.266 93.7388C535.808 93.3221 536.328 92.8638 536.828 92.3638C537.328 91.8638 537.724 91.3846 538.016 90.9263C538.349 90.4679 538.516 90.0721 538.516 89.7388C538.516 89.3638 538.245 89.1346 537.703 89.0513C537.578 88.9679 537.495 88.9263 537.453 88.9263L537.203 89.1763C536.745 89.6346 536.245 90.1763 535.703 90.8013C535.203 91.4263 534.745 92.0304 534.328 92.6138C533.912 93.1971 533.578 93.7179 533.328 94.1763C533.12 94.5929 533.078 94.8429 533.203 94.9263ZM537.641 87.9888C537.641 88.0304 537.662 88.0721 537.703 88.1138V88.3013C537.912 88.3429 538.12 88.4263 538.328 88.5513C538.578 88.6346 538.787 88.7179 538.953 88.8013C539.537 89.2179 539.766 89.7388 539.641 90.3638V90.4263C541.099 88.9679 542.849 87.3013 544.891 85.4263C544.974 85.3429 545.078 85.2804 545.203 85.2388C545.37 85.1554 545.453 85.2388 545.453 85.4888C545.453 85.9054 545.391 86.2388 545.266 86.4888C545.141 86.6971 545.037 86.8221 544.953 86.8638C544.328 87.4888 543.87 87.9679 543.578 88.3013C543.287 88.5929 542.537 89.3429 541.328 90.5513C540.162 91.7179 539.016 92.7804 537.891 93.7388C536.766 94.6971 535.703 95.4679 534.703 96.0513C533.745 96.6763 532.933 96.9888 532.266 96.9888C531.516 96.9888 530.933 96.6346 530.516 95.9263C530.058 95.2179 529.828 94.4263 529.828 93.5513C529.828 92.7596 530.141 91.7596 530.766 90.5513C531.349 89.3429 531.953 88.2388 532.578 87.2388C533.203 86.1971 534.433 84.3638 536.266 81.7388C538.141 79.0721 539.37 77.4263 539.953 76.8013C540.578 76.1763 541.016 75.8638 541.266 75.8638C541.474 75.8638 541.703 75.9888 541.953 76.2388C542.203 76.4888 542.433 76.7804 542.641 77.1138C542.849 77.4471 543.016 77.8221 543.141 78.2388C543.266 78.6138 543.328 78.9263 543.328 79.1763C543.328 79.3429 543.12 79.7388 542.703 80.3638C542.453 80.6554 541.724 81.7596 540.516 83.6763C539.308 85.5513 538.349 86.9888 537.641 87.9888Z" fill="white"/>
</g>
<defs>
<filter id="filter0_d_196_36" x="0.95343" y="0.61377" width="549.375" height="131.125" filterUnits="userSpaceOnUse" color-interpolation-filters="sRGB">
<feFlood flood-opacity="0" result="BackgroundImageFix"/>
<feColorMatrix in="SourceAlpha" type="matrix" values="0 0 0 0 0 0 0 0 0 0 0 0 0 0 0 0 0 0 127 0" result="hardAlpha"/>
<feOffset dy="4"/>
<feGaussianBlur stdDeviation="2"/>
<feComposite in2="hardAlpha" operator="out"/>
<feColorMatrix type="matrix" values="0 0 0 0 0 0 0 0 0 0 0 0 0 0 0 0 0 0 0.25 0"/>
<feBlend mode="normal" in2="BackgroundImageFix" result="effect1_dropShadow_196_36"/>
<feBlend mode="normal" in="SourceGraphic" in2="effect1_dropShadow_196_36" result="shape"/>
</filter>
</defs>
</svg>
