<svg width="233" height="70" viewBox="0 0 233 70" fill="none" xmlns="http://www.w3.org/2000/svg">
<path d="M39.0938 14.499C40.7604 14.249 42.6146 13.6657 44.6562 12.749C46.7396 11.8324 48.6771 10.7907 50.4688 9.62402C52.3021 8.41569 53.8229 7.18652 55.0312 5.93652C56.2812 4.68652 56.9062 3.60319 56.9062 2.68652C56.9062 1.93652 56.4479 1.56152 55.5312 1.56152C54.2812 1.56152 52.5729 1.87402 50.4062 2.49902C48.2396 3.08236 45.8021 3.93652 43.0938 5.06152C40.4271 6.18652 37.5729 7.51986 34.5312 9.06152C31.5312 10.6032 28.5521 12.3115 25.5938 14.1865C22.6354 16.0199 19.8021 17.999 17.0938 20.124C14.3854 22.2074 11.9896 24.374 9.90625 26.624C7.86458 28.874 6.21875 31.1657 4.96875 33.499C3.76042 35.8324 3.15625 38.1449 3.15625 40.4365C3.15625 41.3115 3.26042 42.1449 3.46875 42.9365C3.67708 43.7282 4.07292 44.4157 4.65625 44.999C5.28125 45.5824 6.15625 46.0407 7.28125 46.374C8.40625 46.7074 9.88542 46.874 11.7188 46.874C14.5521 46.874 17.3229 46.4157 20.0312 45.499C22.7812 44.624 25.3646 43.499 27.7812 42.124C30.1979 40.749 32.4062 39.2699 34.4062 37.6865C36.4479 36.1032 38.1979 34.624 39.6562 33.249C41.1562 31.874 42.3438 30.7282 43.2188 29.8115C44.0938 28.8532 44.5729 28.3532 44.6562 28.3115C44.6979 28.3115 44.7188 28.3115 44.7188 28.3115C44.7604 28.2699 44.8229 28.249 44.9062 28.249C45.2396 28.249 45.6146 28.4157 46.0312 28.749C46.4479 29.0824 46.6562 29.4157 46.6562 29.749C46.6562 29.999 46.1146 30.6449 45.0312 31.6865C43.9896 32.7282 42.5729 33.9574 40.7812 35.374C38.9896 36.749 36.9062 38.2074 34.5312 39.749C32.1979 41.2907 29.7396 42.7074 27.1562 43.999C24.5729 45.3324 21.9479 46.4157 19.2812 47.249C16.6562 48.124 14.1562 48.5615 11.7812 48.5615C10.2812 48.5615 8.82292 48.3949 7.40625 48.0615C6.03125 47.7282 4.82292 47.1657 3.78125 46.374C2.73958 45.5824 1.90625 44.5615 1.28125 43.3115C0.65625 42.1032 0.34375 40.5824 0.34375 38.749C0.34375 36.5824 0.84375 34.3949 1.84375 32.1865C2.88542 29.9365 4.30208 27.7074 6.09375 25.499C7.88542 23.249 9.96875 21.0824 12.3438 18.999C14.7188 16.874 17.2812 14.874 20.0312 12.999C22.7812 11.124 25.6146 9.39486 28.5312 7.81152C31.4896 6.22819 34.4062 4.87402 37.2812 3.74902C40.1562 2.62402 42.9062 1.74902 45.5312 1.12402C48.1979 0.457357 50.6354 0.124023 52.8438 0.124023C54.8438 0.124023 56.4688 0.499023 57.7188 1.24902C57.9271 1.37402 58.1979 1.81152 58.5312 2.56152C58.9062 3.31152 59.0938 4.12402 59.0938 4.99902C59.0938 6.04069 58.7396 7.08236 58.0312 8.12402C57.3646 9.16569 56.4688 10.1657 55.3438 11.124C54.2604 12.0824 53.0312 12.999 51.6562 13.874C50.2812 14.7074 48.9062 15.4365 47.5312 16.0615C46.1979 16.6865 44.9271 17.1865 43.7188 17.5615C42.5104 17.8949 41.5312 18.0615 40.7812 18.0615H40.3438C40.2188 18.0615 40.0104 17.9574 39.7188 17.749C39.4688 17.5407 39.2188 17.3115 38.9688 17.0615C38.7188 16.7699 38.4896 16.4782 38.2812 16.1865C38.0729 15.8532 37.9688 15.5615 37.9688 15.3115C37.9688 15.1032 38.0521 14.9365 38.2188 14.8115C38.3854 14.6449 38.6771 14.5407 39.0938 14.499ZM81.4062 31.0615C81.4896 30.9782 81.5938 30.9157 81.7188 30.874C81.8854 30.7907 81.9688 30.874 81.9688 31.124C81.9688 31.5407 81.9062 31.874 81.7812 32.124C81.6562 32.3324 81.5521 32.4574 81.4688 32.499C80.8438 33.124 80.3854 33.6032 80.0938 33.9365C79.8021 34.2282 79.0521 34.9782 77.8438 36.1865C76.6771 37.3532 75.5312 38.4157 74.4062 39.374C73.2812 40.3324 72.2188 41.1032 71.2188 41.6865C70.2604 42.3115 69.4479 42.624 68.7812 42.624C68.0312 42.624 67.4271 42.2699 66.9688 41.5615C66.5521 40.8532 66.3438 40.0615 66.3438 39.1865C66.3438 38.3949 66.6354 37.3949 67.2188 36.1865C67.8438 34.9782 68.5312 33.7907 69.2812 32.624C70.0729 31.4157 70.8229 30.3324 71.5312 29.374C72.2396 28.4157 72.6979 27.7907 72.9062 27.499C73.2396 27.0407 73.4896 26.6657 73.6562 26.374C73.8646 26.0824 73.9688 25.8532 73.9688 25.6865C73.9688 25.5615 73.9062 25.499 73.7812 25.499C73.2396 25.499 72.4062 25.874 71.2812 26.624C70.1979 27.3324 68.9896 28.249 67.6562 29.374C66.3646 30.4574 65.0104 31.6657 63.5938 32.999C62.2188 34.2907 60.9479 35.499 59.7812 36.624C58.6146 37.749 57.6562 38.7074 56.9062 39.499C56.1562 40.2907 55.7604 40.7282 55.7188 40.8115L55.7812 40.5615C55.7396 40.6449 55.7188 40.7282 55.7188 40.8115C54.9688 40.8115 54.3646 40.4574 53.9062 39.749C53.4896 39.0407 53.2812 38.2282 53.2812 37.3115C53.2812 36.5199 53.6146 35.499 54.2812 34.249C54.9896 32.999 55.7812 31.749 56.6562 30.499C57.5312 29.249 58.3646 28.124 59.1562 27.124C59.9479 26.124 60.4479 25.4782 60.6562 25.1865C60.9479 24.7699 61.1771 24.4157 61.3438 24.124C61.5521 23.7907 61.6562 23.5407 61.6562 23.374C61.6562 23.249 61.5938 23.1865 61.4688 23.1865C60.9271 23.1865 60.0521 23.624 58.8438 24.499C57.6354 25.374 56.3021 26.4574 54.8438 27.749C53.3854 29.0407 51.8646 30.4574 50.2812 31.999C48.6979 33.5407 47.2604 34.9782 45.9688 36.3115C44.6771 37.6032 43.5938 38.7074 42.7188 39.624C41.8854 40.5407 41.4479 41.0407 41.4062 41.124L41.4688 40.874C41.0521 41.4157 40.7812 41.6865 40.6562 41.6865C40.4479 41.7282 40.1354 41.5615 39.7188 41.1865C39.2604 40.8115 38.8854 40.3324 38.5938 39.749C38.5104 39.5824 38.4688 39.3949 38.4688 39.1865C38.4688 38.9365 38.5729 38.6449 38.7812 38.3115C39.3229 37.4782 39.9896 36.4157 40.7812 35.124C41.5729 33.8324 42.4271 32.4782 43.3438 31.0615C44.2604 29.6449 45.1979 28.2282 46.1562 26.8115C47.1146 25.3949 48.0104 24.124 48.8438 22.999C49.1771 22.5407 49.4271 22.124 49.5938 21.749C49.8021 21.374 49.9688 21.0615 50.0938 20.8115C50.2188 20.5615 50.3438 20.374 50.4688 20.249C50.6354 20.124 50.8854 20.0615 51.2188 20.0615C51.5938 20.0615 51.9896 20.374 52.4062 20.999C52.8646 21.5824 53.1771 22.1865 53.3438 22.8115C53.4271 23.1865 53.4062 23.499 53.2812 23.749C53.1562 23.999 52.9271 24.3532 52.5938 24.8115C52.3021 25.2282 51.9271 25.7699 51.4688 26.4365C51.0104 27.0615 50.5104 27.749 49.9688 28.499C49.4688 29.249 48.9271 30.0407 48.3438 30.874C47.7604 31.7074 47.1979 32.5199 46.6562 33.3115C47.8229 32.1865 49.1562 30.9157 50.6562 29.499C52.1979 28.0824 53.7188 26.749 55.2188 25.499C56.7604 24.249 58.1771 23.1865 59.4688 22.3115C60.7604 21.4365 61.7396 20.999 62.4062 20.999C63.1146 20.999 63.8229 21.4365 64.5312 22.3115C65.2812 23.1449 65.6562 24.2907 65.6562 25.749C65.6562 25.9574 65.4688 26.3532 65.0938 26.9365C64.7604 27.4782 64.3229 28.124 63.7812 28.874C63.2396 29.624 62.6146 30.4365 61.9062 31.3115C61.2396 32.1865 60.5729 33.0824 59.9062 33.999C60.9062 33.0824 62.1146 31.999 63.5312 30.749C64.9479 29.499 66.3646 28.3324 67.7812 27.249C69.2396 26.1657 70.5729 25.249 71.7812 24.499C73.0312 23.7074 74.0104 23.3115 74.7188 23.3115C75.0521 23.3115 75.4062 23.4365 75.7812 23.6865C76.1979 23.8949 76.5521 24.2074 76.8438 24.624C77.1771 24.999 77.4479 25.4782 77.6562 26.0615C77.8646 26.6449 77.9688 27.3115 77.9688 28.0615C77.9688 28.3115 77.7604 28.749 77.3438 29.374C76.9271 29.999 76.4062 30.7074 75.7812 31.499C75.1562 32.2907 74.4896 33.1449 73.7812 34.0615C73.0729 34.9782 72.4062 35.874 71.7812 36.749C71.1562 37.5824 70.6354 38.3532 70.2188 39.0615C69.8021 39.7699 69.5938 40.3115 69.5938 40.6865C69.5938 40.7699 69.6354 40.8115 69.7188 40.8115C70.3438 40.8115 71.1979 40.3949 72.2812 39.5615C73.3646 38.6865 74.6354 37.5407 76.0938 36.124C77.5521 34.6657 79.3229 32.9782 81.4062 31.0615ZM105.156 30.499C105.198 30.4157 105.302 30.3532 105.469 30.3115C105.635 30.2282 105.719 30.3115 105.719 30.5615C105.719 30.9782 105.635 31.3115 105.469 31.5615C105.344 31.7699 105.26 31.8949 105.219 31.9365C103.177 34.1449 101.281 36.1032 99.5312 37.8115C97.8229 39.5199 96.2396 40.9365 94.7812 42.0615C93.3646 43.1865 92.2604 43.749 91.4688 43.749C90.7604 43.749 90.1771 43.3949 89.7188 42.6865C89.2604 41.9782 89.0312 41.1657 89.0312 40.249C89.0312 39.6657 89.2812 38.8324 89.7812 37.749C90.2812 36.6657 90.9271 35.4574 91.7188 34.124C90.8438 35.0407 89.9271 35.9574 88.9688 36.874C88.0521 37.749 87.1562 38.5407 86.2812 39.249C85.4479 39.9157 84.6771 40.4574 83.9688 40.874C83.3021 41.3324 82.7604 41.5615 82.3438 41.5615C82.0938 41.5615 81.7396 41.4782 81.2812 41.3115C80.8646 41.1865 80.4271 40.9365 79.9688 40.5615C79.5521 40.2282 79.1979 39.749 78.9062 39.124C78.5729 38.4574 78.4062 37.624 78.4062 36.624C78.4062 35.7907 78.6562 34.8324 79.1562 33.749C79.6562 32.624 80.3229 31.499 81.1562 30.374C81.9896 29.249 82.9271 28.1449 83.9688 27.0615C85.0104 25.9782 86.0729 25.0199 87.1562 24.1865C88.2396 23.3115 89.3021 22.624 90.3438 22.124C91.3854 21.5824 92.3021 21.3115 93.0938 21.3115C93.7604 21.3115 94.3646 21.4365 94.9062 21.6865C95.4896 21.9365 95.9896 22.2699 96.4062 22.6865C96.8229 23.1032 97.1354 23.5615 97.3438 24.0615C97.5938 24.5615 97.7188 25.0824 97.7188 25.624C97.7188 25.6657 97.6979 25.6865 97.6562 25.6865C97.6562 25.6865 97.6562 25.7074 97.6562 25.749C98.5729 24.7074 99.2188 24.1865 99.5938 24.1865C99.8021 24.1865 100.031 24.3115 100.281 24.5615C100.531 24.7699 100.76 25.0615 100.969 25.4365C101.177 25.7699 101.344 26.124 101.469 26.499C101.594 26.874 101.656 27.1865 101.656 27.4365C101.656 27.5615 101.406 27.9782 100.906 28.6865C100.448 29.3532 99.8646 30.1657 99.1562 31.124C98.4896 32.0824 97.7396 33.124 96.9062 34.249C96.0729 35.3324 95.3021 36.3949 94.5938 37.4365C93.9271 38.4365 93.3438 39.3532 92.8438 40.1865C92.3854 41.0199 92.1562 41.624 92.1562 41.999C92.1562 42.0824 92.1979 42.124 92.2812 42.124C92.5312 42.124 93.0729 41.7699 93.9062 41.0615C94.7396 40.3949 95.7188 39.5407 96.8438 38.499C97.9688 37.4157 99.1771 36.2282 100.469 34.9365C101.802 33.6449 102.76 32.7282 103.344 32.1865C103.969 31.6032 104.573 31.0407 105.156 30.499ZM81.9688 39.6865C82.4688 39.6865 83.1354 39.4365 83.9688 38.9365C84.8021 38.3949 85.7188 37.7074 86.7188 36.874C87.7604 36.0407 88.8438 35.0824 89.9688 33.999C91.0938 32.874 92.1979 31.749 93.2812 30.624C93.0729 30.5407 92.8854 30.4157 92.7188 30.249C92.5938 30.0824 92.5312 29.8949 92.5312 29.6865C92.5312 29.5615 92.6979 29.3324 93.0312 28.999C93.4062 28.6657 93.8021 28.2907 94.2188 27.874C94.6354 27.4157 95.0104 26.9157 95.3438 26.374C95.7188 25.8324 95.9062 25.3115 95.9062 24.8115C95.9062 24.3532 95.6771 24.124 95.2188 24.124C94.8438 24.124 94.2396 24.3949 93.4062 24.9365C92.5729 25.4782 91.6354 26.2074 90.5938 27.124C89.5938 27.999 88.5521 28.999 87.4688 30.124C86.4271 31.2074 85.4479 32.3115 84.5312 33.4365C83.6562 34.5615 82.9271 35.624 82.3438 36.624C81.8021 37.624 81.5312 38.4782 81.5312 39.1865C81.5312 39.5199 81.6771 39.6865 81.9688 39.6865ZM117.844 30.5615C118.385 29.6865 118.969 28.7699 119.594 27.8115C120.385 26.6449 121.135 25.5824 121.844 24.624C122.594 23.6657 123.26 22.874 123.844 22.249C124.469 21.624 124.906 21.3115 125.156 21.3115C125.365 21.3115 125.594 21.4365 125.844 21.6865C126.094 21.9365 126.323 22.2282 126.531 22.5615C126.74 22.8949 126.906 23.2699 127.031 23.6865C127.156 24.0615 127.219 24.374 127.219 24.624C127.219 24.7907 126.99 25.1865 126.531 25.8115C126.115 26.4365 125.573 27.2074 124.906 28.124C124.24 28.999 123.51 29.9782 122.719 31.0615C121.927 32.1032 121.198 33.124 120.531 34.124C119.865 35.0824 119.302 35.9574 118.844 36.749C118.427 37.5407 118.219 38.124 118.219 38.499C118.219 38.5824 118.281 38.624 118.406 38.624C119.156 38.624 120.115 38.1657 121.281 37.249C122.49 36.2907 123.635 35.2907 124.719 34.249C125.802 33.1657 126.969 32.0199 128.219 30.8115C128.302 30.7282 128.406 30.6657 128.531 30.624C128.698 30.5407 128.781 30.624 128.781 30.874C128.781 31.2907 128.698 31.624 128.531 31.874C128.406 32.0824 128.323 32.2074 128.281 32.249C127.656 32.9157 126.844 33.7907 125.844 34.874C124.885 35.9157 123.906 36.8324 122.906 37.624C121.906 38.4157 120.948 39.0615 120.031 39.5615C119.115 40.0199 118.302 40.249 117.594 40.249C116.844 40.249 116.24 39.8949 115.781 39.1865C115.365 38.4782 115.156 37.6657 115.156 36.749C115.156 36.2074 115.365 35.4574 115.781 34.499C116.031 33.9574 116.302 33.3949 116.594 32.8115C116.01 33.1032 115.427 33.374 114.844 33.624C113.302 34.2907 111.823 34.624 110.406 34.624C109.24 34.624 108.281 34.374 107.531 33.874C106.99 34.6657 106.385 35.5615 105.719 36.5615C103.719 39.5199 102.698 41.0407 102.656 41.124L102.781 40.874C102.323 41.4157 102.031 41.6865 101.906 41.6865C101.698 41.7282 101.385 41.5615 100.969 41.1865C100.552 40.8115 100.177 40.3324 99.8438 39.749C99.6771 39.3324 99.7604 38.8532 100.094 38.3115C100.594 37.4782 101.24 36.4157 102.031 35.124C102.865 33.8324 103.74 32.4782 104.656 31.0615C105.573 29.6449 106.49 28.2282 107.406 26.8115C108.365 25.3949 109.26 24.124 110.094 22.999C110.469 22.5407 110.74 22.124 110.906 21.749C111.073 21.374 111.219 21.0615 111.344 20.8115C111.51 20.5615 111.656 20.374 111.781 20.249C111.948 20.124 112.177 20.0615 112.469 20.0615C112.844 20.0615 113.26 20.374 113.719 20.999C114.177 21.5824 114.49 22.1865 114.656 22.8115C114.74 23.1865 114.719 23.499 114.594 23.749C114.469 23.999 114.24 24.3532 113.906 24.8115C113.573 25.2282 113.177 25.7699 112.719 26.4365C112.26 27.0615 111.76 27.749 111.219 28.499C110.719 29.249 110.177 30.0407 109.594 30.874C109.51 30.999 109.406 31.1657 109.281 31.374C109.24 31.5824 109.219 31.8115 109.219 32.0615C109.219 32.3115 109.281 32.499 109.406 32.624C109.531 32.7074 109.906 32.749 110.531 32.749C112.698 32.749 114.781 32.2282 116.781 31.1865C117.156 30.9782 117.51 30.7699 117.844 30.5615ZM127.406 39.6865C127.906 39.6865 128.573 39.4365 129.406 38.9365C130.281 38.3949 131.219 37.7074 132.219 36.874C133.26 36.0407 134.323 35.0824 135.406 33.999C136.531 32.874 137.635 31.749 138.719 30.624C138.26 30.4157 138.031 30.1032 138.031 29.6865C138.031 29.5615 138.198 29.3324 138.531 28.999C138.906 28.6657 139.281 28.2907 139.656 27.874C140.073 27.4157 140.448 26.9157 140.781 26.374C141.156 25.8324 141.344 25.3115 141.344 24.8115C141.344 24.3532 141.115 24.124 140.656 24.124C140.281 24.124 139.677 24.3949 138.844 24.9365C138.01 25.4782 137.073 26.2074 136.031 27.124C135.031 27.999 133.99 28.999 132.906 30.124C131.865 31.2074 130.885 32.3115 129.969 33.4365C129.094 34.5615 128.365 35.624 127.781 36.624C127.24 37.624 126.969 38.4782 126.969 39.1865C126.969 39.5199 127.115 39.6865 127.406 39.6865ZM105.656 67.124C107.656 66.5824 109.51 65.8115 111.219 64.8115C112.885 63.8532 114.531 62.6032 116.156 61.0615C117.781 59.5615 119.448 57.749 121.156 55.624C122.823 53.5407 124.677 51.1032 126.719 48.3115C125.135 49.2699 123.448 50.3115 121.656 51.4365C119.823 52.5615 117.844 53.7907 115.719 55.124C113.26 56.7074 111.24 58.0824 109.656 59.249C108.031 60.4574 106.76 61.499 105.844 62.374C104.885 63.249 104.24 63.9782 103.906 64.5615C103.531 65.1865 103.344 65.6865 103.344 66.0615C103.344 66.5199 103.51 66.8324 103.844 66.999C104.177 67.1657 104.552 67.249 104.969 67.249C105.177 67.249 105.406 67.2074 105.656 67.124ZM134.219 45.374C131.51 49.0407 129.094 52.2699 126.969 55.0615C124.469 58.3115 122.115 60.9782 119.906 63.0615C117.698 65.1865 115.531 66.7699 113.406 67.8115C111.281 68.8532 109.01 69.374 106.594 69.374C105.469 69.374 104.469 68.999 103.594 68.249C102.677 67.499 102.219 66.5407 102.219 65.374C102.219 63.999 102.99 62.5407 104.531 60.999C106.073 59.4574 108.115 57.8324 110.656 56.124C113.198 54.4157 116.094 52.6032 119.344 50.6865C122.552 48.8115 125.823 46.874 129.156 44.874C130.156 43.4574 131.219 41.9574 132.344 40.374C133.469 38.8324 134.656 37.1865 135.906 35.4365C135.115 36.2282 134.302 36.999 133.469 37.749C132.677 38.499 131.927 39.1657 131.219 39.749C130.51 40.2907 129.865 40.7282 129.281 41.0615C128.698 41.3949 128.219 41.5615 127.844 41.5615C127.594 41.5615 127.24 41.4782 126.781 41.3115C126.323 41.1865 125.865 40.9365 125.406 40.5615C124.99 40.2282 124.635 39.749 124.344 39.124C124.01 38.4574 123.844 37.624 123.844 36.624C123.844 35.7907 124.094 34.8324 124.594 33.749C125.094 32.624 125.76 31.499 126.594 30.374C127.427 29.249 128.365 28.1449 129.406 27.0615C130.448 25.9782 131.51 25.0199 132.594 24.1865C133.719 23.3115 134.802 22.624 135.844 22.124C136.885 21.5824 137.802 21.3115 138.594 21.3115C139.26 21.3115 139.865 21.4365 140.406 21.6865C140.99 21.9365 141.469 22.2699 141.844 22.6865C142.26 23.1032 142.573 23.5615 142.781 24.0615C143.031 24.5615 143.156 25.0824 143.156 25.624V25.749C144.073 24.7074 144.698 24.1865 145.031 24.1865C145.24 24.1865 145.469 24.3115 145.719 24.5615C145.969 24.7699 146.198 25.0615 146.406 25.4365C146.615 25.7699 146.781 26.124 146.906 26.499C147.031 26.874 147.094 27.1865 147.094 27.4365C147.094 27.5615 146.948 27.8324 146.656 28.249C146.406 28.6657 146.052 29.1865 145.594 29.8115C145.094 30.5615 144.51 31.374 143.844 32.249C143.26 32.999 142.594 33.8949 141.844 34.9365C141.26 35.7282 140.219 37.1657 138.719 39.249C139.719 38.499 140.552 37.8324 141.219 37.249C142.052 36.4574 142.865 35.6657 143.656 34.874C145.115 33.499 147.198 31.5615 149.906 29.0615C149.906 28.9782 149.99 28.8949 150.156 28.8115C150.323 28.7282 150.427 28.8115 150.469 29.0615C150.51 29.4782 150.469 29.8115 150.344 30.0615C150.219 30.3115 150.135 30.4574 150.094 30.499C147.635 33.124 145.677 35.1449 144.219 36.5615C143.052 37.6865 141.844 38.7907 140.594 39.874C139.344 40.9574 137.219 42.7907 134.219 45.374ZM170.719 30.499C170.76 30.4157 170.865 30.3532 171.031 30.3115C171.198 30.2282 171.281 30.3115 171.281 30.5615C171.281 30.9782 171.198 31.3115 171.031 31.5615C170.906 31.7699 170.823 31.8949 170.781 31.9365C168.74 34.1449 166.844 36.1032 165.094 37.8115C163.385 39.5199 161.802 40.9365 160.344 42.0615C158.927 43.1865 157.823 43.749 157.031 43.749C156.323 43.749 155.74 43.3949 155.281 42.6865C154.823 41.9782 154.594 41.1657 154.594 40.249C154.594 39.6657 154.844 38.8324 155.344 37.749C155.844 36.6657 156.49 35.4574 157.281 34.124C156.406 35.0407 155.49 35.9574 154.531 36.874C153.615 37.749 152.719 38.5407 151.844 39.249C151.01 39.9157 150.24 40.4574 149.531 40.874C148.865 41.3324 148.323 41.5615 147.906 41.5615C147.656 41.5615 147.302 41.4782 146.844 41.3115C146.427 41.1865 145.99 40.9365 145.531 40.5615C145.115 40.2282 144.76 39.749 144.469 39.124C144.135 38.4574 143.969 37.624 143.969 36.624C143.969 35.7907 144.219 34.8324 144.719 33.749C145.219 32.624 145.885 31.499 146.719 30.374C147.552 29.249 148.49 28.1449 149.531 27.0615C150.573 25.9782 151.635 25.0199 152.719 24.1865C153.802 23.3115 154.865 22.624 155.906 22.124C156.948 21.5824 157.865 21.3115 158.656 21.3115C159.323 21.3115 159.927 21.4365 160.469 21.6865C161.052 21.9365 161.552 22.2699 161.969 22.6865C162.385 23.1032 162.698 23.5615 162.906 24.0615C163.156 24.5615 163.281 25.0824 163.281 25.624C163.281 25.6657 163.26 25.6865 163.219 25.6865C163.219 25.6865 163.219 25.7074 163.219 25.749C164.135 24.7074 164.781 24.1865 165.156 24.1865C165.365 24.1865 165.594 24.3115 165.844 24.5615C166.094 24.7699 166.323 25.0615 166.531 25.4365C166.74 25.7699 166.906 26.124 167.031 26.499C167.156 26.874 167.219 27.1865 167.219 27.4365C167.219 27.5615 166.969 27.9782 166.469 28.6865C166.01 29.3532 165.427 30.1657 164.719 31.124C164.052 32.0824 163.302 33.124 162.469 34.249C161.635 35.3324 160.865 36.3949 160.156 37.4365C159.49 38.4365 158.906 39.3532 158.406 40.1865C157.948 41.0199 157.719 41.624 157.719 41.999C157.719 42.0824 157.76 42.124 157.844 42.124C158.094 42.124 158.635 41.7699 159.469 41.0615C160.302 40.3949 161.281 39.5407 162.406 38.499C163.531 37.4157 164.74 36.2282 166.031 34.9365C167.365 33.6449 168.323 32.7282 168.906 32.1865C169.531 31.6032 170.135 31.0407 170.719 30.499ZM147.531 39.6865C148.031 39.6865 148.698 39.4365 149.531 38.9365C150.365 38.3949 151.281 37.7074 152.281 36.874C153.323 36.0407 154.406 35.0824 155.531 33.999C156.656 32.874 157.76 31.749 158.844 30.624C158.635 30.5407 158.448 30.4157 158.281 30.249C158.156 30.0824 158.094 29.8949 158.094 29.6865C158.094 29.5615 158.26 29.3324 158.594 28.999C158.969 28.6657 159.365 28.2907 159.781 27.874C160.198 27.4157 160.573 26.9157 160.906 26.374C161.281 25.8324 161.469 25.3115 161.469 24.8115C161.469 24.3532 161.24 24.124 160.781 24.124C160.406 24.124 159.802 24.3949 158.969 24.9365C158.135 25.4782 157.198 26.2074 156.156 27.124C155.156 27.999 154.115 28.999 153.031 30.124C151.99 31.2074 151.01 32.3115 150.094 33.4365C149.219 34.5615 148.49 35.624 147.906 36.624C147.365 37.624 147.094 38.4782 147.094 39.1865C147.094 39.5199 147.24 39.6865 147.531 39.6865ZM189.969 31.4365C189.177 32.8532 188.219 34.2699 187.094 35.6865C186.01 37.0615 184.802 38.3115 183.469 39.4365C182.177 40.5615 180.802 41.4782 179.344 42.1865C177.885 42.8949 176.448 43.249 175.031 43.249C173.615 43.249 172.406 42.999 171.406 42.499C170.406 42.0407 169.719 41.5199 169.344 40.9365C167.635 42.8115 166.01 44.624 164.469 46.374C162.885 48.1657 161.448 49.8115 160.156 51.3115C158.948 52.9365 157.823 54.4782 156.781 55.9365C155.74 57.3949 154.823 58.6865 154.031 59.8115C153.198 60.9365 152.531 61.874 152.031 62.624C151.49 63.4157 151.135 63.9365 150.969 64.1865C150.76 64.5615 150.531 64.6657 150.281 64.499C150.031 64.3324 149.719 64.0824 149.344 63.749C149.01 63.4157 148.76 62.9365 148.594 62.3115C148.385 61.6865 148.406 61.0824 148.656 60.499C148.823 60.249 149.031 59.9574 149.281 59.624C151.406 56.3324 153.385 53.3324 155.219 50.624C157.052 47.9574 158.948 45.249 160.906 42.499C162.865 39.749 165.031 36.7907 167.406 33.624C169.781 30.4574 172.573 26.749 175.781 22.499C175.865 22.374 175.927 22.2699 175.969 22.1865C176.01 22.0615 176.031 21.9157 176.031 21.749C176.115 21.0824 176.406 20.9574 176.906 21.374C177.865 22.1657 178.469 23.0615 178.719 24.0615C179.01 25.0199 178.802 25.9782 178.094 26.9365C177.26 28.0199 176.385 29.1865 175.469 30.4365C174.552 31.6865 173.594 32.999 172.594 34.374C174.344 32.5407 176.052 30.7907 177.719 29.124C179.427 27.4157 180.99 25.9157 182.406 24.624C183.865 23.2907 185.115 22.249 186.156 21.499C187.198 20.7074 187.948 20.3115 188.406 20.3115C188.906 20.3115 189.365 20.4574 189.781 20.749C190.24 20.999 190.635 21.3532 190.969 21.8115C191.302 22.2282 191.573 22.7282 191.781 23.3115C191.99 23.8949 192.094 24.499 192.094 25.124C192.094 25.7907 191.969 26.5407 191.719 27.374C191.51 28.1657 191.198 29.0199 190.781 29.9365L189.969 31.4365ZM173.219 36.6865C171.76 38.4365 170.948 39.5199 170.781 39.9365C170.823 39.9365 170.927 39.9574 171.094 39.999C171.26 39.999 171.469 39.999 171.719 39.999C173.76 39.999 175.677 39.4365 177.469 38.3115C179.302 37.1449 180.948 35.7282 182.406 34.0615L183.719 32.499C184.469 31.499 185.156 30.499 185.781 29.499C186.406 28.499 186.927 27.5615 187.344 26.6865C187.76 25.7699 188.073 24.9574 188.281 24.249C188.531 23.5407 188.656 22.9782 188.656 22.5615C188.656 22.3949 188.573 22.3115 188.406 22.3115C188.073 22.3115 187.427 22.7074 186.469 23.499C185.51 24.2907 184.344 25.3532 182.969 26.6865C181.594 27.9782 180.073 29.499 178.406 31.249C176.74 32.9574 175.01 34.7699 173.219 36.6865ZM232.156 31.0615C232.24 30.9782 232.344 30.9157 232.469 30.874C232.635 30.7907 232.719 30.874 232.719 31.124C232.719 31.5407 232.656 31.874 232.531 32.124C232.406 32.3324 232.302 32.4574 232.219 32.499C231.594 33.124 231.135 33.6032 230.844 33.9365C230.552 34.2282 229.802 34.9782 228.594 36.1865C227.427 37.3532 226.281 38.4157 225.156 39.374C224.031 40.3324 222.969 41.1032 221.969 41.6865C221.01 42.3115 220.198 42.624 219.531 42.624C218.781 42.624 218.177 42.2699 217.719 41.5615C217.302 40.8532 217.094 40.0615 217.094 39.1865C217.094 38.3949 217.385 37.3949 217.969 36.1865C218.594 34.9782 219.281 33.7907 220.031 32.624C220.823 31.4157 221.573 30.3324 222.281 29.374C222.99 28.4157 223.448 27.7907 223.656 27.499C223.99 27.0407 224.24 26.6657 224.406 26.374C224.615 26.0824 224.719 25.8532 224.719 25.6865C224.719 25.5615 224.656 25.499 224.531 25.499C223.99 25.499 223.156 25.874 222.031 26.624C220.948 27.3324 219.74 28.249 218.406 29.374C217.115 30.4574 215.76 31.6657 214.344 32.999C212.969 34.2907 211.698 35.499 210.531 36.624C209.365 37.749 208.406 38.7074 207.656 39.499C206.906 40.2907 206.51 40.7282 206.469 40.8115L206.531 40.5615C206.49 40.6449 206.469 40.7282 206.469 40.8115C205.719 40.8115 205.115 40.4574 204.656 39.749C204.24 39.0407 204.031 38.2282 204.031 37.3115C204.031 36.5199 204.365 35.499 205.031 34.249C205.74 32.999 206.531 31.749 207.406 30.499C208.281 29.249 209.115 28.124 209.906 27.124C210.698 26.124 211.198 25.4782 211.406 25.1865C211.698 24.7699 211.927 24.4157 212.094 24.124C212.302 23.7907 212.406 23.5407 212.406 23.374C212.406 23.249 212.344 23.1865 212.219 23.1865C211.677 23.1865 210.802 23.624 209.594 24.499C208.385 25.374 207.052 26.4574 205.594 27.749C204.135 29.0407 202.615 30.4574 201.031 31.999C199.448 33.5407 198.01 34.9782 196.719 36.3115C195.427 37.6032 194.344 38.7074 193.469 39.624C192.635 40.5407 192.198 41.0407 192.156 41.124L192.219 40.874C191.802 41.4157 191.531 41.6865 191.406 41.6865C191.198 41.7282 190.885 41.5615 190.469 41.1865C190.01 40.8115 189.635 40.3324 189.344 39.749C189.26 39.5824 189.219 39.3949 189.219 39.1865C189.219 38.9365 189.323 38.6449 189.531 38.3115C190.073 37.4782 190.74 36.4157 191.531 35.124C192.323 33.8324 193.177 32.4782 194.094 31.0615C195.01 29.6449 195.948 28.2282 196.906 26.8115C197.865 25.3949 198.76 24.124 199.594 22.999C199.927 22.5407 200.177 22.124 200.344 21.749C200.552 21.374 200.719 21.0615 200.844 20.8115C200.969 20.5615 201.094 20.374 201.219 20.249C201.385 20.124 201.635 20.0615 201.969 20.0615C202.344 20.0615 202.74 20.374 203.156 20.999C203.615 21.5824 203.927 22.1865 204.094 22.8115C204.177 23.1865 204.156 23.499 204.031 23.749C203.906 23.999 203.677 24.3532 203.344 24.8115C203.052 25.2282 202.677 25.7699 202.219 26.4365C201.76 27.0615 201.26 27.749 200.719 28.499C200.219 29.249 199.677 30.0407 199.094 30.874C198.51 31.7074 197.948 32.5199 197.406 33.3115C198.573 32.1865 199.906 30.9157 201.406 29.499C202.948 28.0824 204.469 26.749 205.969 25.499C207.51 24.249 208.927 23.1865 210.219 22.3115C211.51 21.4365 212.49 20.999 213.156 20.999C213.865 20.999 214.573 21.4365 215.281 22.3115C216.031 23.1449 216.406 24.2907 216.406 25.749C216.406 25.9574 216.219 26.3532 215.844 26.9365C215.51 27.4782 215.073 28.124 214.531 28.874C213.99 29.624 213.365 30.4365 212.656 31.3115C211.99 32.1865 211.323 33.0824 210.656 33.999C211.656 33.0824 212.865 31.999 214.281 30.749C215.698 29.499 217.115 28.3324 218.531 27.249C219.99 26.1657 221.323 25.249 222.531 24.499C223.781 23.7074 224.76 23.3115 225.469 23.3115C225.802 23.3115 226.156 23.4365 226.531 23.6865C226.948 23.8949 227.302 24.2074 227.594 24.624C227.927 24.999 228.198 25.4782 228.406 26.0615C228.615 26.6449 228.719 27.3115 228.719 28.0615C228.719 28.3115 228.51 28.749 228.094 29.374C227.677 29.999 227.156 30.7074 226.531 31.499C225.906 32.2907 225.24 33.1449 224.531 34.0615C223.823 34.9782 223.156 35.874 222.531 36.749C221.906 37.5824 221.385 38.3532 220.969 39.0615C220.552 39.7699 220.344 40.3115 220.344 40.6865C220.344 40.7699 220.385 40.8115 220.469 40.8115C221.094 40.8115 221.948 40.3949 223.031 39.5615C224.115 38.6865 225.385 37.5407 226.844 36.124C228.302 34.6657 230.073 32.9782 232.156 31.0615Z" fill="url(#paint0_linear_196_775)"/>
<defs>
<linearGradient id="paint0_linear_196_775" x1="269.457" y1="8.86686" x2="-11.5987" y2="104.038" gradientUnits="userSpaceOnUse">
<stop stop-color="#86CFEB"/>
<stop offset="1" stop-color="#49A9CD"/>
</linearGradient>
</defs>
</svg>
