<svg width="705" height="88" viewBox="0 0 705 88" fill="none" xmlns="http://www.w3.org/2000/svg">
<g filter="url(#filter0_d_196_654)">
<path d="M52.6076 44.0449C52.7743 43.7949 52.9409 43.5241 53.1076 43.2324C53.4826 42.6074 53.8784 41.9616 54.2951 41.2949C50.9201 42.0866 47.4409 42.9616 43.8576 43.9199C40.1909 44.9616 36.6076 46.0449 33.1076 47.1699C29.6493 48.2533 26.3784 49.3574 23.2951 50.4824C20.2118 51.6491 17.5034 52.7741 15.1701 53.8574C12.8368 54.9408 10.9826 55.9616 9.6076 56.9199C8.27427 57.9199 7.6076 58.7949 7.6076 59.5449C7.6076 59.8783 7.94094 60.1908 8.6076 60.4824C9.31594 60.7741 10.1284 61.0449 11.0451 61.2949C12.0034 61.5449 12.9826 61.7324 13.9826 61.8574C15.0243 62.0241 15.8576 62.1074 16.4826 62.1074C20.6493 62.1074 24.7326 61.3991 28.7326 59.9824C32.7743 58.6074 36.4826 56.8783 39.8576 54.7949C43.2743 52.7116 46.2743 50.4408 48.8576 47.9824C50.3159 46.6074 51.5659 45.2949 52.6076 44.0449ZM60.4201 39.9824C59.2951 41.5658 58.2534 43.0658 57.2951 44.4824C57.0868 44.8158 56.8784 45.1699 56.6701 45.5449C55.4618 47.4616 53.8784 49.3574 51.9201 51.2324C50.0034 53.1074 47.7951 54.8991 45.2951 56.6074C42.7951 58.3574 40.1284 59.8991 37.2951 61.2324C34.5034 62.5658 31.6284 63.6283 28.6701 64.4199C25.7118 65.2116 22.8368 65.6074 20.0451 65.6074C17.7951 65.6074 15.7118 65.4199 13.7951 65.0449C11.9201 64.6699 10.2951 64.1699 8.9201 63.5449C7.58677 62.9199 6.5451 62.1908 5.7951 61.3574C5.00344 60.5658 4.6076 59.7533 4.6076 58.9199C4.6076 57.9616 5.2951 56.9616 6.6701 55.9199C8.0451 54.8783 9.7951 53.8366 11.9201 52.7949C14.0868 51.7949 16.4826 50.8158 19.1076 49.8574C21.7743 48.8574 24.3576 47.9616 26.8576 47.1699C29.3576 46.3366 31.6493 45.6283 33.7326 45.0449C35.8576 44.4199 37.4618 43.9616 38.5451 43.6699C41.7951 42.7533 44.8368 41.9408 47.6701 41.2324C50.4201 40.5658 53.0034 39.9616 55.4201 39.4199C55.5034 39.3366 55.5868 39.2324 55.6701 39.1074C55.7534 38.8991 55.8159 38.7116 55.8576 38.5449L56.0451 38.4824C56.2118 38.2741 56.3576 38.0658 56.4826 37.8574C57.8993 35.6908 59.3576 33.5449 60.8576 31.4199C64.3576 26.4616 68.3784 21.2116 72.9201 15.6699C69.7118 18.0449 66.6493 20.5033 63.7326 23.0449C62.1909 24.3783 60.4409 25.9199 58.4826 27.6699C56.5659 29.3783 54.6493 31.0241 52.7326 32.6074C50.6909 34.2324 48.8993 35.5241 47.3576 36.4824C45.8159 37.4408 44.5868 37.9199 43.6701 37.9199C42.8784 37.9199 42.1284 37.6283 41.4201 37.0449C40.7534 36.4616 40.4826 35.5658 40.6076 34.3574C40.7326 33.1908 41.2951 31.7533 42.2951 30.0449C43.3368 28.2949 44.6493 26.3991 46.2326 24.3574C47.0243 23.3991 47.8576 22.4199 48.7326 21.4199L48.5451 21.3574C50.1701 19.5658 51.7743 17.8366 53.3576 16.1699C55.1493 14.2949 56.7534 12.6491 58.1701 11.2324C59.5868 9.77409 60.7326 8.62826 61.6076 7.79492C62.4826 6.96159 62.9618 6.54492 63.0451 6.54492C63.1284 6.54492 63.2534 6.58659 63.4201 6.66992C63.7534 6.91992 64.0034 7.14909 64.1701 7.35742C64.3784 7.56576 64.6701 8.10742 65.0451 8.98242C65.1701 9.31576 65.2326 9.58659 65.2326 9.79492C65.2326 10.0033 64.8159 10.6074 63.9826 11.6074C63.1493 12.5658 62.0451 13.7949 60.6701 15.2949C59.2951 16.7533 57.7326 18.3991 55.9826 20.2324C55.2743 20.9408 52.9826 23.4408 49.1076 27.7324C45.2743 32.0241 43.3159 34.5866 43.2326 35.4199C43.2326 35.6283 43.3784 35.7324 43.6701 35.7324C44.2118 35.7324 45.2534 35.2324 46.7951 34.2324C48.3368 33.1908 50.2118 31.8366 52.4201 30.1699C54.2951 28.7116 56.1284 27.2533 57.9201 25.7949C59.7534 24.3366 61.3368 23.0033 62.6701 21.7949C65.0451 19.6699 67.1909 17.7741 69.1076 16.1074C71.0659 14.4408 72.6909 13.1074 73.9826 12.1074C75.3159 11.0658 76.1701 10.5449 76.5451 10.5449C76.7534 10.5449 77.0034 10.6074 77.2951 10.7324C77.4201 10.7741 77.5659 10.8366 77.7326 10.9199C78.1493 11.1699 78.5451 11.4824 78.9201 11.8574C79.2951 12.2324 79.6076 12.6283 79.8576 13.0449C80.1493 13.4616 80.2951 13.8158 80.2951 14.1074L79.1076 15.6074C78.2743 16.6074 77.1909 17.9408 75.8576 19.6074C74.5243 21.2741 73.0034 23.1908 71.2951 25.3574C69.6284 27.5241 67.8993 29.7741 66.1076 32.1074C64.5659 34.1491 63.0659 36.1908 61.6076 38.2324C63.1076 37.9408 64.5034 37.6908 65.7951 37.4824C67.7951 37.1908 69.4618 36.9616 70.7951 36.7949C72.3784 36.6283 73.7534 36.5033 74.9201 36.4199H74.9826C75.1493 36.4199 75.3993 36.5241 75.7326 36.7324C76.1076 36.8991 76.3368 37.0241 76.4201 37.1074C76.5868 37.2324 76.6701 37.3991 76.6701 37.6074C76.6701 37.8991 76.5034 38.0449 76.1701 38.0449H75.7951C75.7534 38.0033 75.5659 37.9824 75.2326 37.9824C73.3576 37.9824 71.0034 38.1908 68.1701 38.6074C65.7951 38.9408 63.2118 39.3991 60.4201 39.9824ZM101.17 35.7324C100.67 35.7741 100.003 36.0866 99.1701 36.6699C98.3784 37.2116 97.5034 37.9408 96.5451 38.8574C95.5868 39.7324 94.5868 40.7741 93.5451 41.9824C92.5034 43.1491 91.4826 44.3158 90.4826 45.4824C90.9409 45.7741 91.1909 46.1074 91.2326 46.4824C91.2326 46.6074 91.0659 46.8574 90.7326 47.2324C90.3993 47.5658 90.0451 47.9616 89.6701 48.4199C89.3368 48.8783 89.0034 49.3783 88.6701 49.9199C88.3784 50.4616 88.2326 51.0033 88.2326 51.5449C88.2743 51.9616 88.5243 52.1491 88.9826 52.1074C89.3576 52.1074 89.9409 51.7949 90.7326 51.1699C91.5243 50.5866 92.3993 49.8158 93.3576 48.8574C94.3159 47.8991 95.2951 46.8366 96.2951 45.6699C97.2951 44.5033 98.1909 43.3366 98.9826 42.1699C99.8159 40.9616 100.483 39.8366 100.983 38.7949C101.483 37.7533 101.712 36.8783 101.67 36.1699C101.628 35.8366 101.462 35.6908 101.17 35.7324ZM121.045 6.91992C119.087 7.58659 117.295 8.46159 115.67 9.54492C114.045 10.6283 112.462 11.9824 110.92 13.6074C109.42 15.2324 107.899 17.1491 106.358 19.3574C104.816 21.5658 103.128 24.1283 101.295 27.0449C102.795 26.0033 104.42 24.8574 106.17 23.6074C107.92 22.3574 109.795 21.0033 111.795 19.5449C114.17 17.8366 116.108 16.3366 117.608 15.0449C119.149 13.7533 120.358 12.6491 121.233 11.7324C122.108 10.7741 122.691 9.98242 122.983 9.35742C123.316 8.73242 123.462 8.23242 123.42 7.85742C123.42 7.39909 123.233 7.10742 122.858 6.98242C122.524 6.81576 122.149 6.75326 121.733 6.79492C121.399 6.79492 121.17 6.83659 121.045 6.91992ZM85.3576 50.8574C84.4826 52.1908 84.0243 52.8783 83.9826 52.9199C83.8159 53.1699 83.6909 53.3574 83.6076 53.4824C83.5243 53.6074 83.4618 53.6699 83.4201 53.6699C83.3784 53.7116 83.3368 53.7324 83.2951 53.7324C82.7951 53.8158 82.2534 53.3158 81.6701 52.2324C81.5868 51.9824 81.6701 51.5033 81.9201 50.7949C82.3784 49.6283 83.0868 48.1699 84.0451 46.4199C85.0034 44.6699 87.5034 40.6491 91.5451 34.3574C95.5868 28.0658 98.6284 23.3991 100.67 20.3574C102.92 16.9824 105.066 14.1699 107.108 11.9199C109.191 9.66992 111.253 7.96159 113.295 6.79492C115.337 5.62826 117.566 4.96159 119.983 4.79492C121.108 4.71159 122.128 5.02409 123.045 5.73242C124.003 6.39909 124.524 7.29492 124.608 8.41992C124.691 9.79492 124.003 11.3158 122.545 12.9824C121.128 14.6074 119.212 16.3574 116.795 18.2324C114.378 20.0658 111.608 22.0449 108.483 24.1699C105.399 26.2949 102.274 28.4616 99.1076 30.6699C98.1909 32.1699 97.2118 33.7533 96.1701 35.4199C95.1701 37.0449 94.1076 38.7741 92.9826 40.6074C93.7326 39.7324 94.4826 38.8991 95.2326 38.1074C95.9826 37.3158 96.6909 36.6283 97.3576 36.0449C98.0243 35.4199 98.6284 34.9199 99.1701 34.5449C99.7534 34.1283 100.233 33.8991 100.608 33.8574C100.858 33.8574 101.212 33.9199 101.67 34.0449C102.128 34.1283 102.587 34.3574 103.045 34.7324C103.545 35.0658 103.962 35.5449 104.295 36.1699C104.67 36.7533 104.878 37.5449 104.92 38.5449C105.003 39.4199 104.816 40.4199 104.358 41.5449C103.941 42.6283 103.358 43.7741 102.608 44.9824C101.858 46.1908 100.983 47.3783 99.9826 48.5449C99.0243 49.6699 98.0243 50.6699 96.9826 51.5449C95.9409 52.4616 94.9201 53.2116 93.9201 53.7949C92.9201 54.4199 92.0243 54.7533 91.2326 54.7949C89.1076 55.0449 87.6076 54.6283 86.7326 53.5449C85.9409 52.6699 85.4826 51.7741 85.3576 50.8574ZM130.858 40.9199C130.899 40.8366 131.003 40.7741 131.17 40.7324C131.337 40.6491 131.42 40.7324 131.42 40.9824C131.42 41.3991 131.337 41.7324 131.17 41.9824C131.045 42.1908 130.962 42.3158 130.92 42.3574C128.878 44.5658 126.983 46.5241 125.233 48.2324C123.524 49.9408 121.941 51.3574 120.483 52.4824C119.066 53.6074 117.962 54.1699 117.17 54.1699C116.462 54.1699 115.878 53.8158 115.42 53.1074C114.962 52.3991 114.733 51.5866 114.733 50.6699C114.733 50.0866 114.983 49.2533 115.483 48.1699C115.983 47.0866 116.628 45.8783 117.42 44.5449C116.545 45.4616 115.628 46.3783 114.67 47.2949C113.753 48.1699 112.858 48.9616 111.983 49.6699C111.149 50.3366 110.378 50.8783 109.67 51.2949C109.003 51.7533 108.462 51.9824 108.045 51.9824C107.795 51.9824 107.441 51.8991 106.983 51.7324C106.566 51.6074 106.128 51.3574 105.67 50.9824C105.253 50.6491 104.899 50.1699 104.608 49.5449C104.274 48.8783 104.108 48.0449 104.108 47.0449C104.108 46.2116 104.358 45.2533 104.858 44.1699C105.358 43.0449 106.024 41.9199 106.858 40.7949C107.691 39.6699 108.628 38.5658 109.67 37.4824C110.712 36.3991 111.774 35.4408 112.858 34.6074C113.941 33.7324 115.003 33.0449 116.045 32.5449C117.087 32.0033 118.003 31.7324 118.795 31.7324C119.462 31.7324 120.066 31.8574 120.608 32.1074C121.191 32.3574 121.691 32.6908 122.108 33.1074C122.524 33.5241 122.837 33.9824 123.045 34.4824C123.295 34.9824 123.42 35.5033 123.42 36.0449C123.42 36.0866 123.399 36.1074 123.358 36.1074C123.358 36.1074 123.358 36.1283 123.358 36.1699C124.274 35.1283 124.92 34.6074 125.295 34.6074C125.503 34.6074 125.733 34.7324 125.983 34.9824C126.233 35.1908 126.462 35.4824 126.67 35.8574C126.878 36.1908 127.045 36.5449 127.17 36.9199C127.295 37.2949 127.358 37.6074 127.358 37.8574C127.358 37.9824 127.108 38.3991 126.608 39.1074C126.149 39.7741 125.566 40.5866 124.858 41.5449C124.191 42.5033 123.441 43.5449 122.608 44.6699C121.774 45.7533 121.003 46.8158 120.295 47.8574C119.628 48.8574 119.045 49.7741 118.545 50.6074C118.087 51.4408 117.858 52.0449 117.858 52.4199C117.858 52.5033 117.899 52.5449 117.983 52.5449C118.233 52.5449 118.774 52.1908 119.608 51.4824C120.441 50.8158 121.42 49.9616 122.545 48.9199C123.67 47.8366 124.878 46.6491 126.17 45.3574C127.503 44.0658 128.462 43.1491 129.045 42.6074C129.67 42.0241 130.274 41.4616 130.858 40.9199ZM107.67 50.1074C108.17 50.1074 108.837 49.8574 109.67 49.3574C110.503 48.8158 111.42 48.1283 112.42 47.2949C113.462 46.4616 114.545 45.5033 115.67 44.4199C116.795 43.2949 117.899 42.1699 118.983 41.0449C118.774 40.9616 118.587 40.8366 118.42 40.6699C118.295 40.5033 118.233 40.3158 118.233 40.1074C118.233 39.9824 118.399 39.7533 118.733 39.4199C119.108 39.0866 119.503 38.7116 119.92 38.2949C120.337 37.8366 120.712 37.3366 121.045 36.7949C121.42 36.2533 121.608 35.7324 121.608 35.2324C121.608 34.7741 121.378 34.5449 120.92 34.5449C120.545 34.5449 119.941 34.8158 119.108 35.3574C118.274 35.8991 117.337 36.6283 116.295 37.5449C115.295 38.4199 114.253 39.4199 113.17 40.5449C112.128 41.6283 111.149 42.7324 110.233 43.8574C109.358 44.9824 108.628 46.0449 108.045 47.0449C107.503 48.0449 107.233 48.8991 107.233 49.6074C107.233 49.9408 107.378 50.1074 107.67 50.1074ZM146.983 40.2949C147.024 40.2116 147.128 40.1491 147.295 40.1074C147.462 40.0241 147.545 40.1074 147.545 40.3574C147.545 40.7741 147.462 41.1074 147.295 41.3574C147.17 41.5658 147.087 41.6908 147.045 41.7324C146.045 42.7741 144.608 44.1699 142.733 45.9199C140.858 47.6699 138.899 49.1283 136.858 50.2949C134.816 51.4199 132.774 51.9824 130.733 51.9824C129.233 51.9824 128.087 51.5866 127.295 50.7949C126.462 50.0033 126.045 48.8991 126.045 47.4824C126.045 45.8574 126.545 44.0658 127.545 42.1074C128.587 40.1074 129.878 38.2533 131.42 36.5449C132.962 34.7949 134.608 33.3366 136.358 32.1699C138.149 31.0033 139.774 30.4199 141.233 30.4199C141.483 30.4199 141.858 30.4824 142.358 30.6074C142.899 30.6908 143.42 30.8574 143.92 31.1074C144.42 31.3574 144.858 31.7116 145.233 32.1699C145.649 32.5866 145.858 33.1283 145.858 33.7949C145.858 34.6283 145.608 35.5241 145.108 36.4824C144.608 37.4408 144.024 38.3158 143.358 39.1074C142.733 39.8991 142.087 40.5658 141.42 41.1074C140.795 41.6074 140.358 41.8574 140.108 41.8574C139.774 41.8574 139.462 41.7324 139.17 41.4824C138.878 41.2324 138.733 40.9824 138.733 40.7324C138.733 40.5658 138.816 40.4199 138.983 40.2949C139.733 39.7116 140.441 39.0658 141.108 38.3574C141.774 37.6491 142.337 36.9616 142.795 36.2949C143.295 35.6283 143.691 35.0241 143.983 34.4824C144.274 33.8991 144.42 33.4199 144.42 33.0449C144.42 32.6283 144.212 32.4199 143.795 32.4199C143.212 32.4199 142.441 32.7324 141.483 33.3574C140.566 33.9408 139.566 34.7324 138.483 35.7324C137.441 36.6908 136.378 37.7949 135.295 39.0449C134.253 40.2949 133.295 41.5449 132.42 42.7949C131.587 44.0449 130.899 45.2533 130.358 46.4199C129.816 47.5866 129.545 48.5866 129.545 49.4199C129.545 49.6699 129.608 49.8574 129.733 49.9824C129.858 50.0658 130.233 50.1074 130.858 50.1074C132.816 50.1074 134.753 49.6074 136.67 48.6074C138.587 47.5658 140.462 46.2324 142.295 44.6074C144.17 42.9824 145.733 41.5449 146.983 40.2949ZM175.17 35.7324C174.67 35.7741 174.003 36.0866 173.17 36.6699C172.378 37.2116 171.503 37.9408 170.545 38.8574C169.587 39.7324 168.587 40.7741 167.545 41.9824C166.503 43.1491 165.483 44.3158 164.483 45.4824C164.941 45.7741 165.191 46.1074 165.233 46.4824C165.233 46.6074 165.066 46.8574 164.733 47.2324C164.399 47.5658 164.045 47.9616 163.67 48.4199C163.337 48.8783 163.003 49.3783 162.67 49.9199C162.378 50.4616 162.233 51.0033 162.233 51.5449C162.274 51.9616 162.524 52.1491 162.983 52.1074C163.358 52.1074 163.941 51.7949 164.733 51.1699C165.524 50.5866 166.399 49.8158 167.358 48.8574C168.316 47.8991 169.295 46.8366 170.295 45.6699C171.295 44.5033 172.191 43.3366 172.983 42.1699C173.816 40.9616 174.483 39.8366 174.983 38.7949C175.483 37.7533 175.712 36.8783 175.67 36.1699C175.628 35.8366 175.462 35.6908 175.17 35.7324ZM195.045 6.91992C193.087 7.58659 191.295 8.46159 189.67 9.54492C188.045 10.6283 186.462 11.9824 184.92 13.6074C183.42 15.2324 181.899 17.1491 180.358 19.3574C178.816 21.5658 177.128 24.1283 175.295 27.0449C176.795 26.0033 178.42 24.8574 180.17 23.6074C181.92 22.3574 183.795 21.0033 185.795 19.5449C188.17 17.8366 190.108 16.3366 191.608 15.0449C193.149 13.7533 194.358 12.6491 195.233 11.7324C196.108 10.7741 196.691 9.98242 196.983 9.35742C197.316 8.73242 197.462 8.23242 197.42 7.85742C197.42 7.39909 197.233 7.10742 196.858 6.98242C196.524 6.81576 196.149 6.75326 195.733 6.79492C195.399 6.79492 195.17 6.83659 195.045 6.91992ZM159.358 50.8574C158.483 52.1908 158.024 52.8783 157.983 52.9199C157.816 53.1699 157.691 53.3574 157.608 53.4824C157.524 53.6074 157.462 53.6699 157.42 53.6699C157.378 53.7116 157.337 53.7324 157.295 53.7324C156.795 53.8158 156.253 53.3158 155.67 52.2324C155.587 51.9824 155.67 51.5033 155.92 50.7949C156.378 49.6283 157.087 48.1699 158.045 46.4199C159.003 44.6699 161.503 40.6491 165.545 34.3574C169.587 28.0658 172.628 23.3991 174.67 20.3574C176.92 16.9824 179.066 14.1699 181.108 11.9199C183.191 9.66992 185.253 7.96159 187.295 6.79492C189.337 5.62826 191.566 4.96159 193.983 4.79492C195.108 4.71159 196.128 5.02409 197.045 5.73242C198.003 6.39909 198.524 7.29492 198.608 8.41992C198.691 9.79492 198.003 11.3158 196.545 12.9824C195.128 14.6074 193.212 16.3574 190.795 18.2324C188.378 20.0658 185.608 22.0449 182.483 24.1699C179.399 26.2949 176.274 28.4616 173.108 30.6699C172.191 32.1699 171.212 33.7533 170.17 35.4199C169.17 37.0449 168.108 38.7741 166.983 40.6074C167.733 39.7324 168.483 38.8991 169.233 38.1074C169.983 37.3158 170.691 36.6283 171.358 36.0449C172.024 35.4199 172.628 34.9199 173.17 34.5449C173.753 34.1283 174.233 33.8991 174.608 33.8574C174.858 33.8574 175.212 33.9199 175.67 34.0449C176.128 34.1283 176.587 34.3574 177.045 34.7324C177.545 35.0658 177.962 35.5449 178.295 36.1699C178.67 36.7533 178.878 37.5449 178.92 38.5449C179.003 39.4199 178.816 40.4199 178.358 41.5449C177.941 42.6283 177.358 43.7741 176.608 44.9824C175.858 46.1908 174.983 47.3783 173.983 48.5449C173.024 49.6699 172.024 50.6699 170.983 51.5449C169.941 52.4616 168.92 53.2116 167.92 53.7949C166.92 54.4199 166.024 54.7533 165.233 54.7949C163.108 55.0449 161.608 54.6283 160.733 53.5449C159.941 52.6699 159.483 51.7741 159.358 50.8574ZM199.045 40.2949C199.087 40.2116 199.191 40.1491 199.358 40.1074C199.524 40.0241 199.608 40.1074 199.608 40.3574C199.608 40.7741 199.524 41.1074 199.358 41.3574C199.233 41.5658 199.149 41.6908 199.108 41.7324C198.108 42.7741 196.67 44.1699 194.795 45.9199C192.92 47.6699 190.962 49.1283 188.92 50.2949C186.878 51.4199 184.837 51.9824 182.795 51.9824C181.295 51.9824 180.149 51.5866 179.358 50.7949C178.524 50.0033 178.108 48.8991 178.108 47.4824C178.108 45.8574 178.608 44.0658 179.608 42.1074C180.649 40.1074 181.941 38.2533 183.483 36.5449C185.024 34.7949 186.67 33.3366 188.42 32.1699C190.212 31.0033 191.837 30.4199 193.295 30.4199C193.545 30.4199 193.92 30.4824 194.42 30.6074C194.962 30.6908 195.483 30.8574 195.983 31.1074C196.483 31.3574 196.92 31.7116 197.295 32.1699C197.712 32.5866 197.92 33.1283 197.92 33.7949C197.92 34.6283 197.67 35.5241 197.17 36.4824C196.67 37.4408 196.087 38.3158 195.42 39.1074C194.795 39.8991 194.149 40.5658 193.483 41.1074C192.858 41.6074 192.42 41.8574 192.17 41.8574C191.837 41.8574 191.524 41.7324 191.233 41.4824C190.941 41.2324 190.795 40.9824 190.795 40.7324C190.795 40.5658 190.878 40.4199 191.045 40.2949C191.795 39.7116 192.503 39.0658 193.17 38.3574C193.837 37.6491 194.399 36.9616 194.858 36.2949C195.358 35.6283 195.753 35.0241 196.045 34.4824C196.337 33.8991 196.483 33.4199 196.483 33.0449C196.483 32.6283 196.274 32.4199 195.858 32.4199C195.274 32.4199 194.503 32.7324 193.545 33.3574C192.628 33.9408 191.628 34.7324 190.545 35.7324C189.503 36.6908 188.441 37.7949 187.358 39.0449C186.316 40.2949 185.358 41.5449 184.483 42.7949C183.649 44.0449 182.962 45.2533 182.42 46.4199C181.878 47.5866 181.608 48.5866 181.608 49.4199C181.608 49.6699 181.67 49.8574 181.795 49.9824C181.92 50.0658 182.295 50.1074 182.92 50.1074C184.878 50.1074 186.816 49.6074 188.733 48.6074C190.649 47.5658 192.524 46.2324 194.358 44.6074C196.233 42.9824 197.795 41.5449 199.045 40.2949ZM218.045 38.7949C218.087 38.7116 218.191 38.6491 218.358 38.6074C218.524 38.5241 218.608 38.6074 218.608 38.8574C218.608 39.2741 218.524 39.6074 218.358 39.8574C218.233 40.0658 218.149 40.1908 218.108 40.2324C217.774 40.5658 217.378 40.9408 216.92 41.3574C216.503 41.7741 215.628 42.5866 214.295 43.7949C212.92 44.9616 211.503 46.0449 210.045 47.0449C208.587 48.0033 207.087 48.8158 205.545 49.4824C204.045 50.1074 202.587 50.4199 201.17 50.4199C199.67 50.4199 198.503 50.0241 197.67 49.2324C196.878 48.4408 196.483 47.3366 196.483 45.9199C196.483 44.8366 196.712 43.6908 197.17 42.4824C197.587 41.2741 198.17 40.0658 198.92 38.8574C199.67 37.6491 200.545 36.5033 201.545 35.4199C202.503 34.2949 203.503 33.3158 204.545 32.4824C205.628 31.6074 206.712 30.9199 207.795 30.4199C208.878 29.9199 209.92 29.6699 210.92 29.6699C211.253 29.6699 211.691 29.7324 212.233 29.8574C212.733 29.9408 213.233 30.1074 213.733 30.3574C214.233 30.6074 214.649 30.9616 214.983 31.4199C215.358 31.8366 215.545 32.3783 215.545 33.0449C215.545 34.1283 215.274 35.1283 214.733 36.0449C214.149 36.9616 213.42 37.7949 212.545 38.5449C211.67 39.2533 210.712 39.8991 209.67 40.4824C208.587 41.0241 207.545 41.4824 206.545 41.8574C205.503 42.1908 204.545 42.4616 203.67 42.6699C202.837 42.8366 202.212 42.8991 201.795 42.8574C201.212 43.8158 200.774 44.7116 200.483 45.5449C200.149 46.3783 199.983 47.1491 199.983 47.8574C199.983 48.1074 200.045 48.2949 200.17 48.4199C200.295 48.5033 200.67 48.5449 201.295 48.5449C203.462 48.5449 205.524 48.0241 207.483 46.9824C209.483 45.9408 211.358 44.6908 213.108 43.2324C214.858 41.7324 216.503 40.2533 218.045 38.7949ZM213.858 32.6074C213.858 32.1908 213.649 31.9824 213.233 31.9824C212.649 31.9824 211.941 32.2533 211.108 32.7949C210.233 33.2949 209.316 33.9824 208.358 34.8574C207.399 35.6908 206.462 36.6699 205.545 37.7949C204.587 38.8783 203.712 39.9824 202.92 41.1074C204.128 40.8158 205.378 40.3366 206.67 39.6699C207.962 38.9616 209.128 38.1908 210.17 37.3574C211.253 36.5241 212.149 35.6908 212.858 34.8574C213.524 33.9824 213.858 33.2324 213.858 32.6074ZM254.358 40.9824C254.399 40.8991 254.503 40.8366 254.67 40.7949C254.837 40.7116 254.92 40.7949 254.92 41.0449C254.92 41.4616 254.837 41.7949 254.67 42.0449C254.545 42.2533 254.462 42.3783 254.42 42.4199C253.795 43.0449 253.003 43.8783 252.045 44.9199C251.128 45.9616 250.378 46.7949 249.795 47.4199C249.212 48.0449 248.358 48.8366 247.233 49.7949C246.108 50.7533 245.045 51.5241 244.045 52.1074C243.087 52.7324 242.274 53.0449 241.608 53.0449C240.899 53.0449 240.316 52.6908 239.858 51.9824C239.399 51.2741 239.17 50.4824 239.17 49.6074C239.17 49.0658 239.337 48.3783 239.67 47.5449C240.045 46.7116 240.503 45.8158 241.045 44.8574C241.628 43.8574 242.253 42.8574 242.92 41.8574C243.587 40.8574 244.212 39.9408 244.795 39.1074C245.42 38.2324 245.962 37.4824 246.42 36.8574C246.878 36.2324 247.17 35.8158 247.295 35.6074C247.962 34.7324 248.295 34.1283 248.295 33.7949C248.295 33.6699 248.233 33.6074 248.108 33.6074C247.566 33.6074 246.691 34.0449 245.483 34.9199C244.316 35.7949 242.983 36.8783 241.483 38.1699C240.024 39.4616 238.503 40.8783 236.92 42.4199C235.378 43.9616 233.941 45.3991 232.608 46.7324C231.316 48.0241 230.233 49.1283 229.358 50.0449C228.524 50.9616 228.087 51.4616 228.045 51.5449L228.17 51.2949C227.712 51.8366 227.42 52.1074 227.295 52.1074C227.087 52.1491 226.774 51.9824 226.358 51.6074C225.941 51.2324 225.566 50.7533 225.233 50.1699C225.066 49.7533 225.149 49.2741 225.483 48.7324C225.983 47.8991 226.628 46.8366 227.42 45.5449C228.253 44.2533 229.128 42.8991 230.045 41.4824C230.962 40.0658 231.878 38.6491 232.795 37.2324C233.753 35.8158 234.649 34.5449 235.483 33.4199C235.858 32.9616 236.128 32.5449 236.295 32.1699C236.462 31.7949 236.608 31.4824 236.733 31.2324C236.899 30.9824 237.045 30.7949 237.17 30.6699C237.337 30.5449 237.566 30.4824 237.858 30.4824C238.233 30.4824 238.649 30.7949 239.108 31.4199C239.566 32.0033 239.878 32.6074 240.045 33.2324C240.128 33.6074 240.108 33.9199 239.983 34.1699C239.858 34.4199 239.628 34.7741 239.295 35.2324C238.962 35.6491 238.566 36.1908 238.108 36.8574C237.649 37.4824 237.149 38.1699 236.608 38.9199C236.108 39.6699 235.566 40.4616 234.983 41.2949C234.399 42.1283 233.837 42.9408 233.295 43.7324C234.462 42.6074 235.795 41.3366 237.295 39.9199C238.837 38.5033 240.358 37.1699 241.858 35.9199C243.399 34.6699 244.816 33.6074 246.108 32.7324C247.399 31.8574 248.399 31.4199 249.108 31.4199C249.816 31.4199 250.524 31.8574 251.233 32.7324C251.941 33.5658 252.295 34.7116 252.295 36.1699C252.295 36.4199 252.045 36.9199 251.545 37.6699C251.087 38.3783 250.483 39.2324 249.733 40.2324C248.983 41.1908 248.191 42.2324 247.358 43.3574C246.524 44.4408 245.733 45.5033 244.983 46.5449C244.233 47.5449 243.608 48.4616 243.108 49.2949C242.649 50.1283 242.42 50.7324 242.42 51.1074C242.42 51.1908 242.462 51.2324 242.545 51.2324C243.17 51.2324 244.024 50.8158 245.108 49.9824C246.191 49.1074 247.503 47.8991 249.045 46.3574C250.587 44.7741 252.358 42.9824 254.358 40.9824ZM265.358 41.7324C263.983 43.7324 262.733 45.3783 261.608 46.6699C260.483 47.9616 259.358 49.1074 258.233 50.1074C257.108 51.1074 256.045 51.9199 255.045 52.5449C254.045 53.1699 253.17 53.4824 252.42 53.4824C251.587 53.4824 250.899 52.9824 250.358 51.9824C249.774 51.0241 249.483 49.9824 249.483 48.8574C249.483 47.9824 249.733 46.9199 250.233 45.6699C250.733 44.3783 251.316 43.1491 251.983 41.9824C252.649 40.7741 253.295 39.7533 253.92 38.9199C254.587 38.0449 255.045 37.5449 255.295 37.4199C255.587 36.4616 256.108 35.5449 256.858 34.6699C257.608 33.7533 258.462 32.9616 259.42 32.2949C260.378 31.6283 261.358 31.1074 262.358 30.7324C263.399 30.3158 264.295 30.1074 265.045 30.1074C265.337 30.1074 265.712 30.2116 266.17 30.4199C266.67 30.5866 267.149 30.8366 267.608 31.1699C268.066 31.4616 268.462 31.8158 268.795 32.2324C269.128 32.6491 269.295 33.0866 269.295 33.5449C269.295 34.3783 268.983 35.4408 268.358 36.7324C267.774 38.0241 266.774 39.6908 265.358 41.7324ZM263.92 41.4824C265.045 39.7741 265.962 38.1699 266.67 36.6699C267.378 35.1283 267.733 33.9616 267.733 33.1699C267.733 32.8783 267.566 32.7324 267.233 32.7324C266.733 32.7324 266.108 32.9199 265.358 33.2949C264.608 33.6283 263.816 34.0658 262.983 34.6074C262.149 35.1491 261.358 35.7741 260.608 36.4824C259.858 37.1908 259.233 37.8783 258.733 38.5449C258.899 38.7116 258.983 38.9199 258.983 39.1699C258.983 39.4199 258.649 40.0449 257.983 41.0449L256.983 42.4824C256.483 43.1908 255.962 43.9616 255.42 44.7949C254.878 45.5866 254.378 46.3783 253.92 47.1699C253.462 47.9199 253.087 48.6699 252.795 49.4199C252.503 50.1283 252.358 50.7324 252.358 51.2324C252.358 51.3574 252.441 51.4199 252.608 51.4199C253.358 51.4199 254.149 51.1908 254.983 50.7324C255.858 50.3158 256.733 49.7324 257.608 48.9824C258.483 48.2324 259.337 47.3783 260.17 46.4199C261.045 45.4199 261.858 44.3991 262.608 43.3574L263.92 41.4824ZM291.483 41.1699C291.566 41.0866 291.67 41.0241 291.795 40.9824C291.962 40.8991 292.045 40.9824 292.045 41.2324C292.045 41.6491 291.962 41.9824 291.795 42.2324C291.67 42.4408 291.587 42.5658 291.545 42.6074C289.962 44.3574 288.462 45.9408 287.045 47.3574C285.628 48.7324 284.337 49.8366 283.17 50.6699C282.045 51.5449 281.066 51.9824 280.233 51.9824C279.691 51.9824 279.087 51.6908 278.42 51.1074C277.795 50.5658 277.483 49.5658 277.483 48.1074C277.483 47.3991 277.774 46.4199 278.358 45.1699C278.983 43.9199 279.733 42.6074 280.608 41.2324C279.233 42.6908 277.899 44.0658 276.608 45.3574C275.316 46.6491 274.108 47.7949 272.983 48.7949C271.858 49.7533 270.837 50.5241 269.92 51.1074C269.003 51.6908 268.233 51.9824 267.608 51.9824C267.108 51.9824 266.524 51.6908 265.858 51.1074C265.191 50.5658 264.858 49.5658 264.858 48.1074C264.858 47.6074 265.024 46.9616 265.358 46.1699C265.691 45.3366 266.108 44.4616 266.608 43.5449C267.149 42.5866 267.941 41.4824 268.983 40.2324C270.066 38.9408 270.712 38.2949 270.92 38.2949C271.128 38.2949 271.358 38.4199 271.608 38.6699C271.858 38.8783 272.087 39.1699 272.295 39.5449C272.503 39.8783 272.67 40.2324 272.795 40.6074C272.92 40.9824 272.983 41.2949 272.983 41.5449C272.983 41.6699 272.712 42.1074 272.17 42.8574C271.67 43.6074 271.274 44.1491 270.983 44.4824C270.733 44.8158 270.483 45.2324 270.233 45.7324C269.983 46.1908 269.587 46.8783 269.045 47.7949C268.545 48.6699 268.295 49.2949 268.295 49.6699C268.295 49.7949 268.337 49.8574 268.42 49.8574C268.795 49.8574 269.378 49.5866 270.17 49.0449C270.962 48.4616 271.878 47.7324 272.92 46.8574C273.962 45.9408 275.066 44.9199 276.233 43.7949C277.399 42.6283 278.566 41.4616 279.733 40.2949C280.899 39.1283 282.003 38.0033 283.045 36.9199C284.087 35.8366 285.003 34.8991 285.795 34.1074C286.378 33.3991 286.899 32.8366 287.358 32.4199C287.816 31.9616 288.149 31.7324 288.358 31.7324C288.566 31.7324 288.795 31.8574 289.045 32.1074C289.295 32.3574 289.524 32.6491 289.733 32.9824C289.941 33.3158 290.108 33.6908 290.233 34.1074C290.358 34.4824 290.42 34.7949 290.42 35.0449C290.42 35.1699 290.17 35.5866 289.67 36.2949C289.212 36.9616 288.628 37.7741 287.92 38.7324C287.253 39.6908 286.503 40.7324 285.67 41.8574C284.837 42.9824 284.066 44.0658 283.358 45.1074C282.691 46.1491 282.108 47.0866 281.608 47.9199C281.149 48.7116 280.92 49.2949 280.92 49.6699C280.92 49.7949 280.962 49.8574 281.045 49.8574C281.67 49.8574 282.42 49.5033 283.295 48.7949C284.212 48.0866 285.295 47.1074 286.545 45.8574C287.795 44.6074 289.441 43.0449 291.483 41.1699ZM284.983 64.7949C285.399 64.2949 285.962 63.5241 286.67 62.4824C287.378 61.4824 288.212 60.3158 289.17 58.9824C287.628 59.9408 285.983 60.9616 284.233 62.0449C282.483 63.1283 280.587 64.3158 278.545 65.6074C276.087 67.1491 274.066 68.5033 272.483 69.6699C270.858 70.8783 269.587 71.9199 268.67 72.7949C267.712 73.6699 267.066 74.3991 266.733 74.9824C266.358 75.6074 266.17 76.1074 266.17 76.4824C266.17 76.9408 266.337 77.2533 266.67 77.4199C267.003 77.5866 267.378 77.6699 267.795 77.6699C268.128 77.6699 268.358 77.6491 268.483 77.6074C271.816 76.6908 274.774 75.1491 277.358 72.9824C279.899 70.8158 282.441 68.0866 284.983 64.7949ZM299.17 52.7324L302.733 49.9199C303.649 49.1699 304.524 48.4408 305.358 47.7324C306.233 46.9824 307.066 46.2116 307.858 45.4199C309.316 44.0033 311.399 42.0658 314.108 39.6074C314.149 39.5241 314.253 39.4616 314.42 39.4199C314.587 39.3366 314.67 39.4199 314.67 39.6699C314.712 40.0866 314.67 40.4199 314.545 40.6699C314.42 40.8783 314.337 41.0033 314.295 41.0449C311.795 43.6699 309.816 45.6699 308.358 47.0449C307.233 48.1699 306.024 49.2741 304.733 50.3574C303.483 51.3991 302.087 52.5241 300.545 53.7324L296.045 57.1074C295.17 58.2741 294.358 59.3991 293.608 60.4824C292.733 61.6491 291.92 62.7116 291.17 63.6699C290.462 64.6283 289.858 65.4199 289.358 66.0449C287.483 68.4199 285.733 70.4616 284.108 72.1699C282.441 73.9199 280.816 75.3574 279.233 76.4824C277.649 77.6074 276.066 78.4408 274.483 78.9824C272.858 79.5241 271.17 79.7949 269.42 79.7949C268.295 79.7949 267.295 79.4199 266.42 78.6699C265.503 77.9199 265.045 76.9824 265.045 75.8574C265.045 74.5241 265.816 73.0866 267.358 71.5449C268.858 70.0033 270.858 68.3783 273.358 66.6699C275.816 65.0033 278.628 63.2324 281.795 61.3574C284.962 59.5241 288.212 57.6074 291.545 55.6074C293.087 53.3991 294.733 51.0866 296.483 48.6699C298.233 46.2116 299.899 43.8574 301.483 41.6074C300.149 43.0241 298.837 44.3574 297.545 45.6074C296.295 46.8574 295.108 47.9616 293.983 48.9199C292.899 49.8783 291.899 50.6283 290.983 51.1699C290.108 51.7533 289.378 52.0449 288.795 52.0449C288.295 52.0449 287.712 51.7533 287.045 51.1699C286.378 50.6283 286.045 49.6074 286.045 48.1074C286.045 47.6074 286.212 46.9616 286.545 46.1699C286.837 45.3783 287.253 44.5241 287.795 43.6074C288.337 42.6491 288.941 41.6699 289.608 40.6699C290.274 39.6699 290.962 38.6908 291.67 37.7324C292.212 36.9408 292.816 36.1074 293.483 35.2324C294.149 34.3574 294.795 33.5658 295.42 32.8574C296.045 32.1491 296.587 31.5658 297.045 31.1074C297.545 30.6491 297.878 30.4199 298.045 30.4199C298.295 30.4199 298.524 30.5449 298.733 30.7949C298.983 31.0449 299.212 31.3366 299.42 31.6699C299.628 32.0033 299.795 32.3574 299.92 32.7324C300.045 33.1074 300.108 33.4408 300.108 33.7324C300.108 33.8574 299.837 34.2949 299.295 35.0449C298.795 35.7949 298.149 36.7116 297.358 37.7949C296.566 38.8366 295.712 39.9824 294.795 41.2324C293.878 42.4824 293.024 43.6699 292.233 44.7949C291.441 45.9199 290.774 46.9408 290.233 47.8574C289.733 48.7324 289.483 49.3574 289.483 49.7324C289.483 49.8158 289.524 49.8574 289.608 49.8574C289.983 49.8574 290.608 49.5449 291.483 48.9199C292.358 48.2949 293.337 47.4824 294.42 46.4824C295.545 45.4824 296.733 44.3783 297.983 43.1699C299.233 41.9199 300.462 40.6908 301.67 39.4824C302.878 38.2741 304.003 37.1283 305.045 36.0449C306.087 34.9616 306.962 34.0866 307.67 33.4199C308.253 32.7116 308.733 32.1491 309.108 31.7324C309.524 31.3158 309.816 31.1074 309.983 31.1074C310.191 31.1074 310.42 31.2324 310.67 31.4824C310.92 31.7324 311.149 32.0241 311.358 32.3574C311.566 32.6908 311.733 33.0658 311.858 33.4824C311.983 33.8574 312.045 34.1699 312.045 34.4199C312.045 34.5866 311.712 35.1491 311.045 36.1074C310.378 37.0241 309.566 38.1491 308.608 39.4824C308.649 39.4408 308.483 39.6699 308.108 40.1699C307.774 40.6283 307.274 41.3158 306.608 42.2324C305.983 43.1074 305.253 44.1283 304.42 45.2949C303.628 46.3783 301.962 48.7324 299.42 52.3574L299.17 52.7324ZM329.608 38.1699C329.358 38.5033 329.087 38.8783 328.795 39.2949C328.378 39.8366 328.003 40.3366 327.67 40.7949C327.378 41.2533 327.108 41.6283 326.858 41.9199C326.233 42.7116 325.566 43.5658 324.858 44.4824C324.149 45.3991 323.483 46.2949 322.858 47.1699C322.233 48.0033 321.712 48.7741 321.295 49.4824C320.878 50.1908 320.67 50.7324 320.67 51.1074C320.67 51.1908 320.712 51.2324 320.795 51.2324C321.42 51.2324 322.274 50.8158 323.358 49.9824C324.441 49.1074 325.712 47.9616 327.17 46.5449C328.628 45.0866 330.399 43.3991 332.483 41.4824C332.566 41.3991 332.67 41.3366 332.795 41.2949C332.962 41.2116 333.045 41.2949 333.045 41.5449C333.045 41.9616 332.983 42.2949 332.858 42.5449C332.733 42.7533 332.628 42.8783 332.545 42.9199C331.92 43.5449 331.462 44.0241 331.17 44.3574C330.878 44.6491 330.128 45.3991 328.92 46.6074C327.753 47.7741 326.608 48.8366 325.483 49.7949C324.358 50.7533 323.295 51.5241 322.295 52.1074C321.337 52.7324 320.524 53.0449 319.858 53.0449C319.108 53.0449 318.503 52.6908 318.045 51.9824C317.628 51.2741 317.42 50.4824 317.42 49.6074C317.42 48.8158 317.712 47.8158 318.295 46.6074C318.92 45.3991 319.545 44.2949 320.17 43.2949C320.795 42.2533 321.295 41.4616 321.67 40.9199C322.42 39.8366 323.483 38.4408 324.858 36.7324C326.274 35.0241 326.983 34.0866 326.983 33.9199H325.045C324.753 33.9199 324.462 33.9199 324.17 33.9199C323.878 33.9199 323.566 33.8783 323.233 33.7949L322.608 33.6074C321.191 34.8158 319.795 36.0449 318.42 37.2949C315.795 39.6283 313.483 41.8158 311.483 43.8574C311.399 43.9408 311.274 44.0241 311.108 44.1074C310.983 44.1491 310.92 44.0449 310.92 43.7949C310.878 43.3783 310.92 43.0658 311.045 42.8574C311.17 42.6074 311.274 42.4616 311.358 42.4199C311.941 41.7533 312.358 41.2533 312.608 40.9199C312.899 40.5866 313.608 39.8158 314.733 38.6074C315.899 37.3574 317.024 36.2324 318.108 35.2324C318.941 34.4408 319.858 33.6074 320.858 32.7324C320.566 32.3991 320.42 32.0033 320.42 31.5449C320.42 31.2533 320.545 31.1074 320.795 31.1074C320.837 31.1074 320.941 31.1491 321.108 31.2324C321.316 31.3574 321.67 31.4408 322.17 31.4824C322.712 31.5241 323.337 31.5449 324.045 31.5449C324.795 31.5449 325.566 31.5449 326.358 31.5449C327.191 31.5033 327.941 31.4616 328.608 31.4199C329.358 31.3783 330.128 31.3158 330.92 31.2324C331.378 31.2324 331.795 31.4616 332.17 31.9199C332.587 32.3366 332.795 32.8991 332.795 33.6074C332.795 33.9408 332.733 34.2324 332.608 34.4824C332.524 34.7324 332.42 34.9408 332.295 35.1074C331.962 35.6074 331.358 36.3158 330.483 37.2324C330.191 37.5241 329.899 37.8366 329.608 38.1699ZM356.358 41.3574C356.441 41.2741 356.545 41.2116 356.67 41.1699C356.837 41.0866 356.92 41.1699 356.92 41.4199C356.92 41.8366 356.837 42.1699 356.67 42.4199C356.545 42.6283 356.462 42.7533 356.42 42.7949C354.712 44.4199 353.149 45.9408 351.733 47.3574C350.316 48.7324 349.024 49.8366 347.858 50.6699C346.733 51.5449 345.753 51.9824 344.92 51.9824C344.378 51.9824 343.774 51.6908 343.108 51.1074C342.483 50.5658 342.17 49.5658 342.17 48.1074C342.17 47.3991 342.462 46.4199 343.045 45.1699C343.67 43.9199 344.42 42.6074 345.295 41.2324C343.92 42.6908 342.587 44.0658 341.295 45.3574C340.003 46.6491 338.795 47.7949 337.67 48.7949C336.545 49.7533 335.524 50.5241 334.608 51.1074C333.691 51.6908 332.92 51.9824 332.295 51.9824C331.795 51.9824 331.212 51.6908 330.545 51.1074C329.878 50.5658 329.545 49.5658 329.545 48.1074C329.545 47.6074 329.712 46.9616 330.045 46.1699C330.378 45.3366 330.795 44.4616 331.295 43.5449C331.837 42.5866 332.441 41.6074 333.108 40.6074C333.816 39.6074 334.524 38.6283 335.233 37.6699C335.774 36.8783 336.378 36.0658 337.045 35.2324C337.712 34.3574 338.337 33.5658 338.92 32.8574C339.545 32.1491 340.087 31.5658 340.545 31.1074C341.045 30.6491 341.399 30.4199 341.608 30.4199C341.816 30.4199 342.045 30.5449 342.295 30.7949C342.545 31.0033 342.774 31.2949 342.983 31.6699C343.191 32.0033 343.358 32.3574 343.483 32.7324C343.608 33.1074 343.67 33.4199 343.67 33.6699C343.67 33.7949 343.399 34.2324 342.858 34.9824C342.358 35.7324 341.712 36.6491 340.92 37.7324C340.128 38.7741 339.253 39.9199 338.295 41.1699C337.378 42.4199 336.524 43.6074 335.733 44.7324C334.941 45.8574 334.274 46.8783 333.733 47.7949C333.233 48.6699 332.983 49.2949 332.983 49.6699C332.983 49.7949 333.024 49.8574 333.108 49.8574C333.483 49.8574 334.066 49.5866 334.858 49.0449C335.649 48.4616 336.566 47.7324 337.608 46.8574C338.649 45.9408 339.753 44.9199 340.92 43.7949C342.087 42.6283 343.253 41.4616 344.42 40.2949C345.587 39.1283 346.691 38.0033 347.733 36.9199C348.774 35.8366 349.691 34.8991 350.483 34.1074C351.066 33.3991 351.587 32.8366 352.045 32.4199C352.503 31.9616 352.837 31.7324 353.045 31.7324C353.253 31.7324 353.483 31.8574 353.733 32.1074C353.983 32.3574 354.212 32.6491 354.42 32.9824C354.628 33.3158 354.795 33.6908 354.92 34.1074C355.045 34.4824 355.108 34.7949 355.108 35.0449C355.108 35.1699 354.858 35.5866 354.358 36.2949C353.899 36.9616 353.316 37.7741 352.608 38.7324C351.941 39.6908 351.191 40.7324 350.358 41.8574C349.524 42.9824 348.753 44.0658 348.045 45.1074C347.378 46.1491 346.795 47.0866 346.295 47.9199C345.837 48.7116 345.608 49.2949 345.608 49.6699C345.608 49.7949 345.649 49.8574 345.733 49.8574C346.358 49.8574 347.108 49.5033 347.983 48.7949C348.899 48.0866 349.983 47.1074 351.233 45.8574C352.483 44.6074 354.191 43.1074 356.358 41.3574ZM393.17 41.4824C393.253 41.3991 393.358 41.3366 393.483 41.2949C393.649 41.2116 393.733 41.2949 393.733 41.5449C393.733 41.9616 393.67 42.2949 393.545 42.5449C393.42 42.7533 393.316 42.8783 393.233 42.9199C392.608 43.5449 392.149 44.0241 391.858 44.3574C391.566 44.6491 390.816 45.3991 389.608 46.6074C388.441 47.7741 387.295 48.8366 386.17 49.7949C385.045 50.7533 383.983 51.5241 382.983 52.1074C382.024 52.7324 381.212 53.0449 380.545 53.0449C379.795 53.0449 379.191 52.6908 378.733 51.9824C378.316 51.2741 378.108 50.4824 378.108 49.6074C378.108 48.8158 378.399 47.8158 378.983 46.6074C379.608 45.3991 380.295 44.2116 381.045 43.0449C381.837 41.8366 382.587 40.7533 383.295 39.7949C384.003 38.8366 384.462 38.2116 384.67 37.9199C385.003 37.4616 385.253 37.0866 385.42 36.7949C385.628 36.5033 385.733 36.2741 385.733 36.1074C385.733 35.9824 385.67 35.9199 385.545 35.9199C385.003 35.9199 384.17 36.2949 383.045 37.0449C381.962 37.7533 380.753 38.6699 379.42 39.7949C378.128 40.8783 376.774 42.0866 375.358 43.4199C373.983 44.7116 372.712 45.9199 371.545 47.0449C370.378 48.1699 369.42 49.1283 368.67 49.9199C367.92 50.7116 367.524 51.1491 367.483 51.2324L367.545 50.9824C367.503 51.0658 367.483 51.1491 367.483 51.2324C366.733 51.2324 366.128 50.8783 365.67 50.1699C365.253 49.4616 365.045 48.6491 365.045 47.7324C365.045 46.9408 365.378 45.9199 366.045 44.6699C366.753 43.4199 367.545 42.1699 368.42 40.9199C369.295 39.6699 370.128 38.5449 370.92 37.5449C371.712 36.5449 372.212 35.8991 372.42 35.6074C372.712 35.1908 372.941 34.8366 373.108 34.5449C373.316 34.2116 373.42 33.9616 373.42 33.7949C373.42 33.6699 373.358 33.6074 373.233 33.6074C372.691 33.6074 371.816 34.0449 370.608 34.9199C369.399 35.7949 368.066 36.8783 366.608 38.1699C365.149 39.4616 363.628 40.8783 362.045 42.4199C360.462 43.9616 359.024 45.3991 357.733 46.7324C356.441 48.0241 355.358 49.1283 354.483 50.0449C353.649 50.9616 353.212 51.4616 353.17 51.5449L353.233 51.2949C352.816 51.8366 352.545 52.1074 352.42 52.1074C352.212 52.1491 351.899 51.9824 351.483 51.6074C351.024 51.2324 350.649 50.7533 350.358 50.1699C350.274 50.0033 350.233 49.8158 350.233 49.6074C350.233 49.3574 350.337 49.0658 350.545 48.7324C351.087 47.8991 351.753 46.8366 352.545 45.5449C353.337 44.2533 354.191 42.8991 355.108 41.4824C356.024 40.0658 356.962 38.6491 357.92 37.2324C358.878 35.8158 359.774 34.5449 360.608 33.4199C360.941 32.9616 361.191 32.5449 361.358 32.1699C361.566 31.7949 361.733 31.4824 361.858 31.2324C361.983 30.9824 362.108 30.7949 362.233 30.6699C362.399 30.5449 362.649 30.4824 362.983 30.4824C363.358 30.4824 363.753 30.7949 364.17 31.4199C364.628 32.0033 364.941 32.6074 365.108 33.2324C365.191 33.6074 365.17 33.9199 365.045 34.1699C364.92 34.4199 364.691 34.7741 364.358 35.2324C364.066 35.6491 363.691 36.1908 363.233 36.8574C362.774 37.4824 362.274 38.1699 361.733 38.9199C361.233 39.6699 360.691 40.4616 360.108 41.2949C359.524 42.1283 358.962 42.9408 358.42 43.7324C359.587 42.6074 360.92 41.3366 362.42 39.9199C363.962 38.5033 365.483 37.1699 366.983 35.9199C368.524 34.6699 369.941 33.6074 371.233 32.7324C372.524 31.8574 373.503 31.4199 374.17 31.4199C374.878 31.4199 375.587 31.8574 376.295 32.7324C377.045 33.5658 377.42 34.7116 377.42 36.1699C377.42 36.3783 377.233 36.7741 376.858 37.3574C376.524 37.8991 376.087 38.5449 375.545 39.2949C375.003 40.0449 374.378 40.8574 373.67 41.7324C373.003 42.6074 372.337 43.5033 371.67 44.4199C372.67 43.5033 373.878 42.4199 375.295 41.1699C376.712 39.9199 378.128 38.7533 379.545 37.6699C381.003 36.5866 382.337 35.6699 383.545 34.9199C384.795 34.1283 385.774 33.7324 386.483 33.7324C386.816 33.7324 387.17 33.8574 387.545 34.1074C387.962 34.3158 388.316 34.6283 388.608 35.0449C388.941 35.4199 389.212 35.8991 389.42 36.4824C389.628 37.0658 389.733 37.7324 389.733 38.4824C389.733 38.7324 389.524 39.1699 389.108 39.7949C388.691 40.4199 388.17 41.1283 387.545 41.9199C386.92 42.7116 386.253 43.5658 385.545 44.4824C384.837 45.3991 384.17 46.2949 383.545 47.1699C382.92 48.0033 382.399 48.7741 381.983 49.4824C381.566 50.1908 381.358 50.7324 381.358 51.1074C381.358 51.1908 381.399 51.2324 381.483 51.2324C382.108 51.2324 382.962 50.8158 384.045 49.9824C385.128 49.1074 386.399 47.9616 387.858 46.5449C389.316 45.0866 391.087 43.3991 393.17 41.4824ZM411.108 40.2949C411.149 40.2116 411.253 40.1491 411.42 40.1074C411.587 40.0241 411.67 40.1074 411.67 40.3574C411.67 40.7741 411.587 41.1074 411.42 41.3574C411.295 41.5658 411.212 41.6908 411.17 41.7324C410.17 42.7741 408.733 44.1699 406.858 45.9199C404.983 47.6699 403.024 49.1283 400.983 50.2949C398.941 51.4199 396.899 51.9824 394.858 51.9824C393.358 51.9824 392.212 51.5866 391.42 50.7949C390.587 50.0033 390.17 48.8991 390.17 47.4824C390.17 45.8574 390.67 44.0658 391.67 42.1074C392.712 40.1074 394.003 38.2533 395.545 36.5449C397.087 34.7949 398.733 33.3366 400.483 32.1699C402.274 31.0033 403.899 30.4199 405.358 30.4199C405.608 30.4199 405.983 30.4824 406.483 30.6074C407.024 30.6908 407.545 30.8574 408.045 31.1074C408.545 31.3574 408.983 31.7116 409.358 32.1699C409.774 32.5866 409.983 33.1283 409.983 33.7949C409.983 34.6283 409.733 35.5241 409.233 36.4824C408.733 37.4408 408.149 38.3158 407.483 39.1074C406.858 39.8991 406.212 40.5658 405.545 41.1074C404.92 41.6074 404.483 41.8574 404.233 41.8574C403.899 41.8574 403.587 41.7324 403.295 41.4824C403.003 41.2324 402.858 40.9824 402.858 40.7324C402.858 40.5658 402.941 40.4199 403.108 40.2949C403.858 39.7116 404.566 39.0658 405.233 38.3574C405.899 37.6491 406.462 36.9616 406.92 36.2949C407.42 35.6283 407.816 35.0241 408.108 34.4824C408.399 33.8991 408.545 33.4199 408.545 33.0449C408.545 32.6283 408.337 32.4199 407.92 32.4199C407.337 32.4199 406.566 32.7324 405.608 33.3574C404.691 33.9408 403.691 34.7324 402.608 35.7324C401.566 36.6908 400.503 37.7949 399.42 39.0449C398.378 40.2949 397.42 41.5449 396.545 42.7949C395.712 44.0449 395.024 45.2533 394.483 46.4199C393.941 47.5866 393.67 48.5866 393.67 49.4199C393.67 49.6699 393.733 49.8574 393.858 49.9824C393.983 50.0658 394.358 50.1074 394.983 50.1074C396.941 50.1074 398.878 49.6074 400.795 48.6074C402.712 47.5658 404.587 46.2324 406.42 44.6074C408.295 42.9824 409.858 41.5449 411.108 40.2949ZM420.42 40.2949C420.545 40.4199 420.858 40.3366 421.358 40.0449C421.899 39.7116 422.503 39.2741 423.17 38.7324C423.878 38.1491 424.566 37.5241 425.233 36.8574C425.899 36.1491 426.441 35.4824 426.858 34.8574C427.316 34.2324 427.545 33.6908 427.545 33.2324C427.587 32.7741 427.295 32.4824 426.67 32.3574C426.503 32.2741 426.399 32.2116 426.358 32.1699L425.983 32.5449C425.358 33.1699 424.691 33.8991 423.983 34.7324C423.274 35.5658 422.628 36.3783 422.045 37.1699C421.503 37.9616 421.066 38.6491 420.733 39.2324C420.399 39.8158 420.295 40.1699 420.42 40.2949ZM428.983 33.2324C429.274 32.8991 429.545 32.6074 429.795 32.3574C430.253 31.9408 430.587 31.7324 430.795 31.7324C431.003 31.7324 431.233 31.8574 431.483 32.1074C431.733 32.3574 431.962 32.6491 432.17 32.9824C432.378 33.3158 432.545 33.6908 432.67 34.1074C432.795 34.4824 432.858 34.7949 432.858 35.0449C432.858 35.1699 432.608 35.5866 432.108 36.2949C431.649 36.9616 431.066 37.7741 430.358 38.7324C429.691 39.6908 428.941 40.7324 428.108 41.8574C427.274 42.9824 426.503 44.0658 425.795 45.1074C425.128 46.1491 424.545 47.0866 424.045 47.9199C423.587 48.7116 423.358 49.2949 423.358 49.6699C423.358 49.7949 423.399 49.8574 423.483 49.8574C424.108 49.8574 424.858 49.5033 425.733 48.7949C426.649 48.0866 427.733 47.1074 428.983 45.8574C430.233 44.6074 431.878 43.0449 433.92 41.1699C434.003 41.0866 434.108 41.0241 434.233 40.9824C434.399 40.8991 434.483 40.9824 434.483 41.2324C434.483 41.6491 434.399 41.9824 434.233 42.2324C434.108 42.4408 434.024 42.5658 433.983 42.6074C432.399 44.3574 430.899 45.9408 429.483 47.3574C428.066 48.7324 426.774 49.8366 425.608 50.6699C424.483 51.5449 423.503 51.9824 422.67 51.9824C422.128 51.9824 421.524 51.6908 420.858 51.1074C420.233 50.5658 419.92 49.5658 419.92 48.1074C419.92 47.3991 420.233 46.4199 420.858 45.1699C421.358 44.0866 421.962 42.9616 422.67 41.7949C422.503 41.9199 422.337 42.0449 422.17 42.1699C421.087 43.2949 420.045 44.3574 419.045 45.3574C417.753 46.6491 416.545 47.7949 415.42 48.7949C414.295 49.7533 413.274 50.5241 412.358 51.1074C411.441 51.6908 410.67 51.9824 410.045 51.9824C409.545 51.9824 408.962 51.6908 408.295 51.1074C407.628 50.5658 407.295 49.5658 407.295 48.1074C407.295 47.6074 407.462 46.9616 407.795 46.1699C408.128 45.3366 408.545 44.4616 409.045 43.5449C409.587 42.5866 410.378 41.4824 411.42 40.2324C412.503 38.9408 413.149 38.2949 413.358 38.2949C413.566 38.2949 413.795 38.4199 414.045 38.6699C414.295 38.8783 414.524 39.1699 414.733 39.5449C414.941 39.8783 415.108 40.2324 415.233 40.6074C415.358 40.9824 415.42 41.2949 415.42 41.5449C415.42 41.6699 415.149 42.1074 414.608 42.8574C414.108 43.6074 413.712 44.1491 413.42 44.4824C413.17 44.8158 412.92 45.2324 412.67 45.7324C412.42 46.1908 412.024 46.8783 411.483 47.7949C410.983 48.6699 410.733 49.2949 410.733 49.6699C410.733 49.7949 410.774 49.8574 410.858 49.8574C411.233 49.8574 411.816 49.5866 412.608 49.0449C413.399 48.4616 414.316 47.7324 415.358 46.8574C416.399 45.9408 417.503 44.8991 418.67 43.7324C418.962 43.4408 419.253 43.1491 419.545 42.8574H419.483C419.024 42.6908 418.628 42.4408 418.295 42.1074C417.962 41.7324 417.712 41.2949 417.545 40.7949C417.42 40.2949 417.358 39.8158 417.358 39.3574C417.316 38.8158 417.524 38.0658 417.983 37.1074C418.483 36.1491 419.108 35.1908 419.858 34.2324C420.608 33.2741 421.399 32.4199 422.233 31.6699C423.066 30.8783 423.837 30.3574 424.545 30.1074C425.045 29.9408 425.483 29.9616 425.858 30.1699C426.274 30.3783 426.566 30.6908 426.733 31.1074V31.3574C426.983 31.4408 427.233 31.5449 427.483 31.6699C427.774 31.7949 428.024 31.9199 428.233 32.0449C428.691 32.3783 428.941 32.7741 428.983 33.2324ZM430.545 53.9199C431.128 53.7116 431.712 53.6074 432.295 53.6074C432.878 53.6491 433.358 54.0241 433.733 54.7324C433.899 55.0658 433.941 55.4199 433.858 55.7949C433.816 56.2116 433.649 56.6074 433.358 56.9824C433.108 57.3574 432.753 57.6908 432.295 57.9824C431.878 58.2741 431.378 58.4408 430.795 58.4824C430.045 58.5658 429.503 58.4199 429.17 58.0449C428.795 57.6699 428.608 57.2116 428.608 56.6699C428.566 56.1699 428.712 55.6491 429.045 55.1074C429.378 54.5658 429.878 54.1699 430.545 53.9199ZM466.358 2.79492C466.441 3.29492 466.42 3.75326 466.295 4.16992C466.17 4.58659 465.983 5.02409 465.733 5.48242C465.316 6.19076 464.587 7.33659 463.545 8.91992C462.545 10.5033 461.337 12.3783 459.92 14.5449C458.545 16.6699 457.024 19.0033 455.358 21.5449C453.733 24.0449 452.066 26.5866 450.358 29.1699C448.691 31.7533 447.066 34.2533 445.483 36.6699C443.899 39.0866 442.462 41.2741 441.17 43.2324C439.92 45.1908 438.878 46.8158 438.045 48.1074C437.253 49.3574 436.774 50.1283 436.608 50.4199C436.441 50.6699 436.17 50.8366 435.795 50.9199C435.42 51.0033 435.128 50.9408 434.92 50.7324C434.337 50.2324 433.878 49.5658 433.545 48.7324C433.253 47.8991 433.337 47.1699 433.795 46.5449C433.962 46.3366 434.503 45.5449 435.42 44.1699C436.337 42.7533 437.483 41.0033 438.858 38.9199C440.274 36.7949 441.837 34.4199 443.545 31.7949C445.253 29.1283 447.003 26.4408 448.795 23.7324C450.587 21.0241 452.316 18.3783 453.983 15.7949C455.691 13.2116 457.212 10.9199 458.545 8.91992C459.878 6.87826 460.941 5.23242 461.733 3.98242C462.566 2.69076 463.003 2.02409 463.045 1.98242C463.337 1.56576 463.483 1.16992 463.483 0.794922C463.483 0.503255 463.608 0.378255 463.858 0.419922C464.149 0.419922 464.462 0.524089 464.795 0.732422C465.128 0.940755 465.441 1.23242 465.733 1.60742C466.066 1.98242 466.274 2.37826 466.358 2.79492ZM528.358 6.85742C529.358 6.85742 530.253 7.21159 531.045 7.91992C531.837 8.58659 532.233 9.35742 532.233 10.2324C532.233 10.7324 532.087 11.1908 531.795 11.6074C530.587 13.5658 529.378 15.3783 528.17 17.0449C526.962 18.6699 525.691 20.3366 524.358 22.0449C523.066 23.7116 521.67 25.5241 520.17 27.4824C518.712 29.3991 517.066 31.6491 515.233 34.2324C513.441 36.7741 511.441 39.7324 509.233 43.1074C507.066 46.4824 504.628 50.4408 501.92 54.9824C500.962 56.5658 500.274 57.7116 499.858 58.4199C499.441 59.1283 499.003 59.4824 498.545 59.4824C498.378 59.4824 498.128 59.4199 497.795 59.2949C497.462 59.1699 497.108 59.0033 496.733 58.7949C496.399 58.6283 496.108 58.4199 495.858 58.1699C495.608 57.9199 495.483 57.6908 495.483 57.4824C495.483 56.8574 495.941 55.6699 496.858 53.9199C497.816 52.2116 499.045 50.1699 500.545 47.7949C502.087 45.4199 503.837 42.8158 505.795 39.9824C507.753 37.1491 509.753 34.2949 511.795 31.4199C516.587 24.7116 522.045 17.2949 528.17 9.16992V9.04492H528.045C527.087 9.04492 525.67 9.64909 523.795 10.8574C521.962 12.0241 519.858 13.6074 517.483 15.6074C515.108 17.5658 512.545 19.7949 509.795 22.2949C507.087 24.7949 504.399 27.3783 501.733 30.0449C499.066 32.6699 496.503 35.2533 494.045 37.7949C491.628 40.2949 489.503 42.5449 487.67 44.5449C486.92 45.3783 485.962 45.7949 484.795 45.7949C484.253 45.7949 483.795 45.6908 483.42 45.4824C483.045 45.2741 482.753 45.0241 482.545 44.7324C482.337 44.4408 482.17 44.1283 482.045 43.7949C481.962 43.4616 481.92 43.1908 481.92 42.9824C481.92 42.4408 482.087 41.6283 482.42 40.5449C482.753 39.4616 483.191 38.2324 483.733 36.8574C484.316 35.4824 484.962 34.0033 485.67 32.4199C486.42 30.8366 487.17 29.2533 487.92 27.6699C489.67 23.9616 491.691 19.9408 493.983 15.6074C493.899 15.6074 493.316 16.1074 492.233 17.1074C491.149 18.0658 489.753 19.3366 488.045 20.9199C486.378 22.4616 484.503 24.2533 482.42 26.2949C480.378 28.2949 478.316 30.3366 476.233 32.4199C474.191 34.5033 472.253 36.5449 470.42 38.5449C468.628 40.5033 467.149 42.2324 465.983 43.7324L465.42 44.2949C463.837 46.2116 462.566 47.7741 461.608 48.9824C460.649 50.1491 460.128 50.7324 460.045 50.7324C459.462 50.7324 459.003 50.5866 458.67 50.2949C458.295 49.9616 458.108 49.5449 458.108 49.0449C458.108 48.9199 458.524 48.2533 459.358 47.0449C460.149 45.8366 461.212 44.2949 462.545 42.4199C463.878 40.5449 465.399 38.4408 467.108 36.1074C468.816 33.7324 470.566 31.3366 472.358 28.9199C474.149 26.4616 475.899 24.0866 477.608 21.7949C479.358 19.4616 480.899 17.3991 482.233 15.6074C483.608 13.8158 484.733 12.3783 485.608 11.2949C486.483 10.1699 486.962 9.60742 487.045 9.60742C487.628 9.60742 488.191 9.94076 488.733 10.6074C489.274 11.2741 489.545 11.8783 489.545 12.4199C489.545 12.5866 489.191 13.1908 488.483 14.2324C487.774 15.2741 486.816 16.6074 485.608 18.2324C484.399 19.8574 483.003 21.6908 481.42 23.7324C479.878 25.7741 478.274 27.8783 476.608 30.0449C478.774 27.8783 480.983 25.7116 483.233 23.5449C485.524 21.3366 487.587 19.3783 489.42 17.6699C491.295 15.9199 492.837 14.5033 494.045 13.4199C495.253 12.3366 495.899 11.7949 495.983 11.7949C496.233 11.7949 496.524 11.8783 496.858 12.0449C497.191 12.2116 497.503 12.4408 497.795 12.7324C498.128 13.0241 498.399 13.3783 498.608 13.7949C498.858 14.1699 498.983 14.5658 498.983 14.9824C498.983 15.4408 498.878 15.8158 498.67 16.1074C498.212 16.8574 497.587 17.9408 496.795 19.3574C496.045 20.7324 495.212 22.2533 494.295 23.9199C493.42 25.5866 492.503 27.3366 491.545 29.1699C490.628 30.9616 489.795 32.6908 489.045 34.3574C488.295 35.9824 487.649 37.4616 487.108 38.7949C486.608 40.1283 486.337 41.1491 486.295 41.8574C486.378 41.8158 486.92 41.2949 487.92 40.2949C488.92 39.2533 490.253 37.8991 491.92 36.2324C493.587 34.5658 495.503 32.6908 497.67 30.6074C499.837 28.5241 502.087 26.3991 504.42 24.2324C506.795 22.0658 509.17 19.9408 511.545 17.8574C513.962 15.7741 516.233 13.9199 518.358 12.2949C520.524 10.6699 522.462 9.35742 524.17 8.35742C525.92 7.35742 527.316 6.85742 528.358 6.85742ZM517.233 49.7949C517.316 49.8783 517.545 49.7949 517.92 49.5449C518.295 49.2949 518.712 48.9408 519.17 48.4824C519.67 48.0241 520.149 47.5241 520.608 46.9824C521.108 46.4408 521.483 45.9408 521.733 45.4824C522.024 44.9824 522.149 44.5658 522.108 44.2324C522.108 43.8574 521.837 43.6491 521.295 43.6074C521.17 43.5241 521.087 43.5033 521.045 43.5449L520.795 43.7949C520.378 44.2949 519.92 44.8783 519.42 45.5449C518.962 46.1699 518.545 46.7949 518.17 47.4199C517.795 48.0449 517.503 48.5866 517.295 49.0449C517.087 49.4616 517.066 49.7116 517.233 49.7949ZM523.108 45.4199C523.691 44.8783 524.274 44.3158 524.858 43.7324C526.024 42.6074 527.191 41.4616 528.358 40.2949C529.524 39.1283 530.628 38.0033 531.67 36.9199C532.712 35.8366 533.628 34.8991 534.42 34.1074C535.003 33.3991 535.524 32.8366 535.983 32.4199C536.441 31.9616 536.774 31.7324 536.983 31.7324C537.191 31.7324 537.42 31.8574 537.67 32.1074C537.92 32.3574 538.149 32.6491 538.358 32.9824C538.566 33.3158 538.733 33.6908 538.858 34.1074C538.983 34.4824 539.045 34.7949 539.045 35.0449C539.045 35.1699 538.795 35.5866 538.295 36.2949C537.837 36.9616 537.253 37.7741 536.545 38.7324C535.878 39.6908 535.128 40.7324 534.295 41.8574C533.462 42.9824 532.691 44.0658 531.983 45.1074C531.316 46.1491 530.733 47.0866 530.233 47.9199C529.774 48.7116 529.545 49.2949 529.545 49.6699C529.545 49.7949 529.587 49.8574 529.67 49.8574C530.295 49.8574 531.045 49.5033 531.92 48.7949C532.837 48.0866 533.92 47.1074 535.17 45.8574C536.42 44.6074 538.128 43.1074 540.295 41.3574C540.378 41.2741 540.483 41.2116 540.608 41.1699C540.774 41.0866 540.858 41.1699 540.858 41.4199C540.858 41.8366 540.774 42.1699 540.608 42.4199C540.483 42.6283 540.399 42.7533 540.358 42.7949C538.649 44.4199 537.087 45.9408 535.67 47.3574C534.253 48.7324 532.962 49.8366 531.795 50.6699C530.67 51.5449 529.691 51.9824 528.858 51.9824C528.316 51.9824 527.712 51.6908 527.045 51.1074C526.42 50.5658 526.108 49.5658 526.108 48.1074C526.108 47.3991 526.399 46.4199 526.983 45.1699C527.608 43.9199 528.358 42.6074 529.233 41.2324C527.858 42.6908 526.524 44.0658 525.233 45.3574C523.941 46.6491 522.733 47.7949 521.608 48.7949C520.483 49.7533 519.462 50.5241 518.545 51.1074C517.628 51.6908 516.858 51.9824 516.233 51.9824C515.733 51.9824 515.149 51.6908 514.483 51.1074C513.816 50.5658 513.483 49.5658 513.483 48.1074C513.483 47.6074 513.649 46.9616 513.983 46.1699C514.316 45.3366 514.733 44.4616 515.233 43.5449C515.774 42.5866 516.858 40.9616 518.483 38.6699C520.149 36.3366 521.274 34.8158 521.858 34.1074C522.483 33.3991 523.024 32.8158 523.483 32.3574C523.983 31.8991 524.337 31.6699 524.545 31.6699C524.753 31.6699 524.983 31.7949 525.233 32.0449C525.483 32.2533 525.712 32.5449 525.92 32.9199C526.128 33.2533 526.295 33.6074 526.42 33.9824C526.545 34.3574 526.608 34.6699 526.608 34.9199C526.608 35.0449 525.17 37.1283 522.295 41.1699C521.92 41.6699 521.545 42.1491 521.17 42.6074L521.233 42.6699V42.8574C521.441 42.8991 521.649 42.9616 521.858 43.0449C522.108 43.1283 522.316 43.2116 522.483 43.2949C523.108 43.6699 523.378 44.1699 523.295 44.7949C523.253 45.0033 523.191 45.2116 523.108 45.4199ZM572.545 41.8574C571.753 43.2741 570.795 44.6908 569.67 46.1074C568.587 47.4824 567.378 48.7324 566.045 49.8574C564.753 50.9824 563.378 51.8991 561.92 52.6074C560.462 53.3158 559.024 53.6699 557.608 53.6699C556.191 53.6699 554.983 53.4199 553.983 52.9199C552.983 52.4616 552.295 51.9408 551.92 51.3574C550.212 53.2324 548.587 55.0449 547.045 56.7949C545.462 58.5866 544.024 60.2324 542.733 61.7324C541.524 63.3574 540.399 64.8991 539.358 66.3574C538.316 67.8158 537.399 69.1074 536.608 70.2324C535.774 71.3574 535.108 72.2949 534.608 73.0449C534.066 73.8366 533.712 74.3574 533.545 74.6074C533.337 74.9824 533.108 75.0866 532.858 74.9199C532.608 74.7533 532.295 74.5033 531.92 74.1699C531.587 73.8366 531.337 73.3574 531.17 72.7324C530.962 72.1074 530.983 71.5033 531.233 70.9199C531.399 70.6699 531.608 70.3783 531.858 70.0449C533.983 66.7533 535.962 63.7533 537.795 61.0449C539.628 58.3783 541.524 55.6699 543.483 52.9199C545.441 50.1699 547.608 47.2116 549.983 44.0449C552.358 40.8783 555.149 37.1699 558.358 32.9199C558.441 32.7949 558.503 32.6908 558.545 32.6074C558.587 32.4824 558.608 32.3366 558.608 32.1699C558.691 31.5033 558.983 31.3783 559.483 31.7949C560.441 32.5866 561.045 33.4824 561.295 34.4824C561.587 35.4408 561.378 36.3991 560.67 37.3574C559.837 38.4408 558.962 39.6074 558.045 40.8574C557.128 42.1074 556.17 43.4199 555.17 44.7949C556.92 42.9616 558.628 41.2116 560.295 39.5449C562.003 37.8366 563.566 36.3366 564.983 35.0449C566.441 33.7116 567.691 32.6699 568.733 31.9199C569.774 31.1283 570.524 30.7324 570.983 30.7324C571.483 30.7324 571.941 30.8783 572.358 31.1699C572.816 31.4199 573.212 31.7741 573.545 32.2324C573.878 32.6491 574.149 33.1491 574.358 33.7324C574.566 34.3158 574.67 34.9199 574.67 35.5449C574.67 36.2116 574.545 36.9616 574.295 37.7949C574.087 38.5866 573.774 39.4408 573.358 40.3574L572.545 41.8574ZM555.795 47.1074C554.337 48.8574 553.524 49.9408 553.358 50.3574C553.399 50.3574 553.503 50.3783 553.67 50.4199C553.837 50.4199 554.045 50.4199 554.295 50.4199C556.337 50.4199 558.253 49.8574 560.045 48.7324C561.878 47.5658 563.524 46.1491 564.983 44.4824L566.295 42.9199C567.045 41.9199 567.733 40.9199 568.358 39.9199C568.983 38.9199 569.503 37.9824 569.92 37.1074C570.337 36.1908 570.649 35.3783 570.858 34.6699C571.108 33.9616 571.233 33.3991 571.233 32.9824C571.233 32.8158 571.149 32.7324 570.983 32.7324C570.649 32.7324 570.003 33.1283 569.045 33.9199C568.087 34.7116 566.92 35.7741 565.545 37.1074C564.17 38.3991 562.649 39.9199 560.983 41.6699C559.316 43.3783 557.587 45.1908 555.795 47.1074ZM585.545 40.2949C585.67 40.4199 585.983 40.3366 586.483 40.0449C587.024 39.7116 587.628 39.2741 588.295 38.7324C589.003 38.1491 589.691 37.5241 590.358 36.8574C591.024 36.1491 591.566 35.4824 591.983 34.8574C592.441 34.2324 592.67 33.6908 592.67 33.2324C592.712 32.7741 592.42 32.4824 591.795 32.3574C591.628 32.2741 591.524 32.2116 591.483 32.1699L591.108 32.5449C590.483 33.1699 589.816 33.8991 589.108 34.7324C588.399 35.5658 587.753 36.3783 587.17 37.1699C586.628 37.9616 586.191 38.6491 585.858 39.2324C585.524 39.8158 585.42 40.1699 585.545 40.2949ZM594.108 33.2324C594.399 32.8991 594.67 32.6074 594.92 32.3574C595.378 31.9408 595.712 31.7324 595.92 31.7324C596.128 31.7324 596.358 31.8574 596.608 32.1074C596.858 32.3574 597.087 32.6491 597.295 32.9824C597.503 33.3158 597.67 33.6908 597.795 34.1074C597.92 34.4824 597.983 34.7949 597.983 35.0449C597.983 35.1699 597.733 35.5866 597.233 36.2949C596.774 36.9616 596.191 37.7741 595.483 38.7324C594.816 39.6908 594.066 40.7324 593.233 41.8574C592.399 42.9824 591.628 44.0658 590.92 45.1074C590.253 46.1491 589.67 47.0866 589.17 47.9199C588.712 48.7116 588.483 49.2949 588.483 49.6699C588.483 49.7949 588.524 49.8574 588.608 49.8574C589.233 49.8574 589.983 49.5033 590.858 48.7949C591.774 48.0866 592.858 47.1074 594.108 45.8574C595.358 44.6074 597.003 43.0449 599.045 41.1699C599.128 41.0866 599.233 41.0241 599.358 40.9824C599.524 40.8991 599.608 40.9824 599.608 41.2324C599.608 41.6491 599.524 41.9824 599.358 42.2324C599.233 42.4408 599.149 42.5658 599.108 42.6074C597.524 44.3574 596.024 45.9408 594.608 47.3574C593.191 48.7324 591.899 49.8366 590.733 50.6699C589.608 51.5449 588.628 51.9824 587.795 51.9824C587.253 51.9824 586.649 51.6908 585.983 51.1074C585.358 50.5658 585.045 49.5658 585.045 48.1074C585.045 47.3991 585.358 46.4199 585.983 45.1699C586.483 44.0866 587.087 42.9616 587.795 41.7949C587.628 41.9199 587.462 42.0449 587.295 42.1699C586.212 43.2949 585.17 44.3574 584.17 45.3574C582.878 46.6491 581.67 47.7949 580.545 48.7949C579.42 49.7533 578.399 50.5241 577.483 51.1074C576.566 51.6908 575.795 51.9824 575.17 51.9824C574.67 51.9824 574.087 51.6908 573.42 51.1074C572.753 50.5658 572.42 49.5658 572.42 48.1074C572.42 47.6074 572.587 46.9616 572.92 46.1699C573.253 45.3366 573.67 44.4616 574.17 43.5449C574.712 42.5866 575.503 41.4824 576.545 40.2324C577.628 38.9408 578.274 38.2949 578.483 38.2949C578.691 38.2949 578.92 38.4199 579.17 38.6699C579.42 38.8783 579.649 39.1699 579.858 39.5449C580.066 39.8783 580.233 40.2324 580.358 40.6074C580.483 40.9824 580.545 41.2949 580.545 41.5449C580.545 41.6699 580.274 42.1074 579.733 42.8574C579.233 43.6074 578.837 44.1491 578.545 44.4824C578.295 44.8158 578.045 45.2324 577.795 45.7324C577.545 46.1908 577.149 46.8783 576.608 47.7949C576.108 48.6699 575.858 49.2949 575.858 49.6699C575.858 49.7949 575.899 49.8574 575.983 49.8574C576.358 49.8574 576.941 49.5866 577.733 49.0449C578.524 48.4616 579.441 47.7324 580.483 46.8574C581.524 45.9408 582.628 44.8991 583.795 43.7324C584.087 43.4408 584.378 43.1491 584.67 42.8574H584.608C584.149 42.6908 583.753 42.4408 583.42 42.1074C583.087 41.7324 582.837 41.2949 582.67 40.7949C582.545 40.2949 582.483 39.8158 582.483 39.3574C582.441 38.8158 582.649 38.0658 583.108 37.1074C583.608 36.1491 584.233 35.1908 584.983 34.2324C585.733 33.2741 586.524 32.4199 587.358 31.6699C588.191 30.8783 588.962 30.3574 589.67 30.1074C590.17 29.9408 590.608 29.9616 590.983 30.1699C591.399 30.3783 591.691 30.6908 591.858 31.1074V31.3574C592.108 31.4408 592.358 31.5449 592.608 31.6699C592.899 31.7949 593.149 31.9199 593.358 32.0449C593.816 32.3783 594.066 32.7741 594.108 33.2324ZM596.983 50.1074C597.483 50.1074 598.149 49.8574 598.983 49.3574C599.858 48.8158 600.795 48.1283 601.795 47.2949C602.837 46.4616 603.899 45.5033 604.983 44.4199C606.108 43.2949 607.212 42.1699 608.295 41.0449C607.837 40.8366 607.608 40.5241 607.608 40.1074C607.608 39.9824 607.774 39.7533 608.108 39.4199C608.483 39.0866 608.858 38.7116 609.233 38.2949C609.649 37.8366 610.024 37.3366 610.358 36.7949C610.733 36.2533 610.92 35.7324 610.92 35.2324C610.92 34.7741 610.691 34.5449 610.233 34.5449C609.858 34.5449 609.253 34.8158 608.42 35.3574C607.587 35.8991 606.649 36.6283 605.608 37.5449C604.608 38.4199 603.566 39.4199 602.483 40.5449C601.441 41.6283 600.462 42.7324 599.545 43.8574C598.67 44.9824 597.941 46.0449 597.358 47.0449C596.816 48.0449 596.545 48.8991 596.545 49.6074C596.545 49.9408 596.691 50.1074 596.983 50.1074ZM575.233 77.5449C577.233 77.0033 579.087 76.2324 580.795 75.2324C582.462 74.2741 584.108 73.0241 585.733 71.4824C587.358 69.9824 589.024 68.1699 590.733 66.0449C592.399 63.9616 594.253 61.5241 596.295 58.7324C594.712 59.6908 593.024 60.7324 591.233 61.8574C589.399 62.9824 587.42 64.2116 585.295 65.5449C582.837 67.1283 580.816 68.5033 579.233 69.6699C577.608 70.8783 576.337 71.9199 575.42 72.7949C574.462 73.6699 573.816 74.3991 573.483 74.9824C573.108 75.6074 572.92 76.1074 572.92 76.4824C572.92 76.9408 573.087 77.2533 573.42 77.4199C573.753 77.5866 574.128 77.6699 574.545 77.6699C574.753 77.6699 574.983 77.6283 575.233 77.5449ZM603.795 55.7949C601.087 59.4616 598.67 62.6908 596.545 65.4824C594.045 68.7324 591.691 71.3991 589.483 73.4824C587.274 75.6074 585.108 77.1908 582.983 78.2324C580.858 79.2741 578.587 79.7949 576.17 79.7949C575.045 79.7949 574.045 79.4199 573.17 78.6699C572.253 77.9199 571.795 76.9616 571.795 75.7949C571.795 74.4199 572.566 72.9616 574.108 71.4199C575.649 69.8783 577.691 68.2533 580.233 66.5449C582.774 64.8366 585.67 63.0241 588.92 61.1074C592.128 59.2324 595.399 57.2949 598.733 55.2949C599.733 53.8783 600.795 52.3783 601.92 50.7949C603.045 49.2533 604.233 47.6074 605.483 45.8574C604.691 46.6491 603.878 47.4199 603.045 48.1699C602.253 48.9199 601.503 49.5866 600.795 50.1699C600.087 50.7116 599.441 51.1491 598.858 51.4824C598.274 51.8158 597.795 51.9824 597.42 51.9824C597.17 51.9824 596.816 51.8991 596.358 51.7324C595.899 51.6074 595.441 51.3574 594.983 50.9824C594.566 50.6491 594.212 50.1699 593.92 49.5449C593.587 48.8783 593.42 48.0449 593.42 47.0449C593.42 46.2116 593.67 45.2533 594.17 44.1699C594.67 43.0449 595.337 41.9199 596.17 40.7949C597.003 39.6699 597.941 38.5658 598.983 37.4824C600.024 36.3991 601.087 35.4408 602.17 34.6074C603.295 33.7324 604.378 33.0449 605.42 32.5449C606.462 32.0033 607.378 31.7324 608.17 31.7324C608.837 31.7324 609.441 31.8574 609.983 32.1074C610.566 32.3574 611.045 32.6908 611.42 33.1074C611.837 33.5241 612.149 33.9824 612.358 34.4824C612.608 34.9824 612.733 35.5033 612.733 36.0449V36.1699C613.649 35.1283 614.274 34.6074 614.608 34.6074C614.816 34.6074 615.045 34.7324 615.295 34.9824C615.545 35.1908 615.774 35.4824 615.983 35.8574C616.191 36.1908 616.358 36.5449 616.483 36.9199C616.608 37.2949 616.67 37.6074 616.67 37.8574C616.67 37.9824 616.524 38.2533 616.233 38.6699C615.983 39.0866 615.628 39.6074 615.17 40.2324C614.67 40.9824 614.087 41.7949 613.42 42.6699C612.837 43.4199 612.17 44.3158 611.42 45.3574C610.837 46.1491 609.795 47.5866 608.295 49.6699C609.295 48.9199 610.128 48.2533 610.795 47.6699C611.628 46.8783 612.441 46.0866 613.233 45.2949C614.691 43.9199 616.774 41.9824 619.483 39.4824C619.483 39.3991 619.566 39.3158 619.733 39.2324C619.899 39.1491 620.003 39.2324 620.045 39.4824C620.087 39.8991 620.045 40.2324 619.92 40.4824C619.795 40.7324 619.712 40.8783 619.67 40.9199C617.212 43.5449 615.253 45.5658 613.795 46.9824C612.628 48.1074 611.42 49.2116 610.17 50.2949C608.92 51.3783 606.795 53.2116 603.795 55.7949ZM629.42 41.7324C628.045 43.7324 626.795 45.3783 625.67 46.6699C624.545 47.9616 623.42 49.1074 622.295 50.1074C621.17 51.1074 620.108 51.9199 619.108 52.5449C618.108 53.1699 617.233 53.4824 616.483 53.4824C615.649 53.4824 614.962 52.9824 614.42 51.9824C613.837 51.0241 613.545 49.9824 613.545 48.8574C613.545 47.9824 613.795 46.9199 614.295 45.6699C614.795 44.3783 615.378 43.1491 616.045 41.9824C616.712 40.7741 617.358 39.7533 617.983 38.9199C618.649 38.0449 619.108 37.5449 619.358 37.4199C619.649 36.4616 620.17 35.5449 620.92 34.6699C621.67 33.7533 622.524 32.9616 623.483 32.2949C624.441 31.6283 625.42 31.1074 626.42 30.7324C627.462 30.3158 628.358 30.1074 629.108 30.1074C629.399 30.1074 629.774 30.2116 630.233 30.4199C630.733 30.5866 631.212 30.8366 631.67 31.1699C632.128 31.4616 632.524 31.8158 632.858 32.2324C633.191 32.6491 633.358 33.0866 633.358 33.5449C633.358 34.3783 633.045 35.4408 632.42 36.7324C631.837 38.0241 630.837 39.6908 629.42 41.7324ZM627.983 41.4824C629.108 39.7741 630.024 38.1699 630.733 36.6699C631.441 35.1283 631.795 33.9616 631.795 33.1699C631.795 32.8783 631.628 32.7324 631.295 32.7324C630.795 32.7324 630.17 32.9199 629.42 33.2949C628.67 33.6283 627.878 34.0658 627.045 34.6074C626.212 35.1491 625.42 35.7741 624.67 36.4824C623.92 37.1908 623.295 37.8783 622.795 38.5449C622.962 38.7116 623.045 38.9199 623.045 39.1699C623.045 39.4199 622.712 40.0449 622.045 41.0449L621.045 42.4824C620.545 43.1908 620.024 43.9616 619.483 44.7949C618.941 45.5866 618.441 46.3783 617.983 47.1699C617.524 47.9199 617.149 48.6699 616.858 49.4199C616.566 50.1283 616.42 50.7324 616.42 51.2324C616.42 51.3574 616.503 51.4199 616.67 51.4199C617.42 51.4199 618.212 51.1908 619.045 50.7324C619.92 50.3158 620.795 49.7324 621.67 48.9824C622.545 48.2324 623.399 47.3783 624.233 46.4199C625.108 45.4199 625.92 44.3991 626.67 43.3574L627.983 41.4824ZM645.92 51.4824V51.5449C645.337 51.8366 644.795 51.9824 644.295 51.9824C643.753 51.9824 643.149 51.6908 642.483 51.1074C641.858 50.5658 641.545 49.5658 641.545 48.1074C641.545 47.3991 641.837 46.4199 642.42 45.1699C643.045 43.9199 643.795 42.6074 644.67 41.2324C643.295 42.6908 641.962 44.0658 640.67 45.3574C639.378 46.6491 638.17 47.7949 637.045 48.7949C635.92 49.7533 634.899 50.5241 633.983 51.1074C633.066 51.6908 632.295 51.9824 631.67 51.9824C631.17 51.9824 630.587 51.6908 629.92 51.1074C629.253 50.5658 628.92 49.5658 628.92 48.1074C628.92 47.6074 629.087 46.9616 629.42 46.1699C629.753 45.3366 630.17 44.4616 630.67 43.5449C631.212 42.5866 632.003 41.4824 633.045 40.2324C634.128 38.9408 634.774 38.2949 634.983 38.2949C635.191 38.2949 635.42 38.4199 635.67 38.6699C635.92 38.8783 636.149 39.1699 636.358 39.5449C636.566 39.8783 636.733 40.2324 636.858 40.6074C636.983 40.9824 637.045 41.2949 637.045 41.5449C637.045 41.6699 636.774 42.1074 636.233 42.8574C635.733 43.6074 635.337 44.1491 635.045 44.4824C634.795 44.8158 634.545 45.2324 634.295 45.7324C634.045 46.1908 633.649 46.8783 633.108 47.7949C632.608 48.6699 632.358 49.2949 632.358 49.6699C632.358 49.7949 632.399 49.8574 632.483 49.8574C632.858 49.8574 633.441 49.5866 634.233 49.0449C635.024 48.4616 635.941 47.7324 636.983 46.8574C638.024 45.9408 639.128 44.9199 640.295 43.7949C641.462 42.6283 642.628 41.4616 643.795 40.2949C644.962 39.1283 646.066 38.0033 647.108 36.9199C648.149 35.8366 649.066 34.8991 649.858 34.1074C650.441 33.3991 650.962 32.8366 651.42 32.4199C651.878 31.9616 652.212 31.7324 652.42 31.7324C652.628 31.7324 652.858 31.8574 653.108 32.1074C653.358 32.3574 653.587 32.6491 653.795 32.9824C654.003 33.3158 654.17 33.6908 654.295 34.1074C654.42 34.4824 654.483 34.7949 654.483 35.0449C654.483 35.1699 654.233 35.5866 653.733 36.2949C653.274 36.9616 652.691 37.7741 651.983 38.7324C651.316 39.6908 650.566 40.7324 649.733 41.8574C648.899 42.9824 648.128 44.0658 647.42 45.1074C646.753 46.1491 646.191 47.0658 645.733 47.8574C645.358 48.4408 645.128 48.9199 645.045 49.2949V49.3574C645.003 49.4824 644.983 49.5866 644.983 49.6699C644.983 49.7949 645.024 49.8574 645.108 49.8574C645.483 49.8574 646.066 49.5866 646.858 49.0449C647.649 48.4616 648.566 47.7324 649.608 46.8574C650.649 45.9408 651.753 44.9199 652.92 43.7949C654.087 42.6283 655.253 41.4616 656.42 40.2949C657.587 39.1283 658.691 38.0033 659.733 36.9199C660.774 35.8366 661.691 34.8991 662.483 34.1074C663.066 33.3991 663.587 32.8366 664.045 32.4199C664.503 31.9616 664.837 31.7324 665.045 31.7324C665.253 31.7324 665.483 31.8574 665.733 32.1074C665.983 32.3574 666.212 32.6491 666.42 32.9824C666.628 33.3158 666.795 33.6908 666.92 34.1074C667.045 34.4824 667.108 34.7949 667.108 35.0449C667.108 35.1699 666.858 35.5866 666.358 36.2949C665.899 36.9616 665.316 37.7741 664.608 38.7324C663.941 39.6908 663.191 40.7324 662.358 41.8574C661.524 42.9824 660.753 44.0658 660.045 45.1074C659.378 46.1491 658.795 47.0866 658.295 47.9199C657.837 48.7116 657.608 49.2949 657.608 49.6699C657.608 49.7949 657.649 49.8574 657.733 49.8574C658.358 49.8574 659.108 49.5033 659.983 48.7949C660.899 48.0866 661.983 47.1074 663.233 45.8574C664.483 44.6074 666.191 43.1074 668.358 41.3574C668.441 41.2741 668.545 41.2116 668.67 41.1699C668.837 41.0866 668.92 41.1699 668.92 41.4199C668.92 41.8366 668.837 42.1699 668.67 42.4199C668.545 42.6283 668.462 42.7533 668.42 42.7949C666.712 44.4199 665.149 45.9408 663.733 47.3574C662.316 48.7324 661.024 49.8366 659.858 50.6699C658.733 51.5449 657.753 51.9824 656.92 51.9824C656.378 51.9824 655.774 51.6908 655.108 51.1074C654.483 50.5658 654.17 49.5658 654.17 48.1074C654.17 47.3991 654.462 46.4199 655.045 45.1699C655.67 43.9199 656.42 42.6074 657.295 41.2324C655.92 42.6908 654.587 44.0658 653.295 45.3574C652.003 46.6491 650.795 47.7949 649.67 48.7949C648.545 49.7533 647.524 50.5241 646.608 51.1074C646.358 51.2741 646.128 51.3991 645.92 51.4824ZM664.858 53.9199C665.441 53.7116 666.024 53.6074 666.608 53.6074C667.191 53.6491 667.67 54.0241 668.045 54.7324C668.212 55.0658 668.253 55.4199 668.17 55.7949C668.128 56.2116 667.962 56.6074 667.67 56.9824C667.42 57.3574 667.066 57.6908 666.608 57.9824C666.191 58.2741 665.691 58.4408 665.108 58.4824C664.358 58.5658 663.816 58.4199 663.483 58.0449C663.108 57.6699 662.92 57.2116 662.92 56.6699C662.878 56.1699 663.024 55.6491 663.358 55.1074C663.691 54.5658 664.191 54.1699 664.858 53.9199ZM700.67 2.79492C700.753 3.29492 700.733 3.75326 700.608 4.16992C700.483 4.58659 700.295 5.02409 700.045 5.48242C699.628 6.19076 698.899 7.33659 697.858 8.91992C696.858 10.5033 695.649 12.3783 694.233 14.5449C692.858 16.6699 691.337 19.0033 689.67 21.5449C688.045 24.0449 686.378 26.5866 684.67 29.1699C683.003 31.7533 681.378 34.2533 679.795 36.6699C678.212 39.0866 676.774 41.2741 675.483 43.2324C674.233 45.1908 673.191 46.8158 672.358 48.1074C671.566 49.3574 671.087 50.1283 670.92 50.4199C670.753 50.6699 670.483 50.8366 670.108 50.9199C669.733 51.0033 669.441 50.9408 669.233 50.7324C668.649 50.2324 668.191 49.5658 667.858 48.7324C667.566 47.8991 667.649 47.1699 668.108 46.5449C668.274 46.3366 668.816 45.5449 669.733 44.1699C670.649 42.7533 671.795 41.0033 673.17 38.9199C674.587 36.7949 676.149 34.4199 677.858 31.7949C679.566 29.1283 681.316 26.4408 683.108 23.7324C684.899 21.0241 686.628 18.3783 688.295 15.7949C690.003 13.2116 691.524 10.9199 692.858 8.91992C694.191 6.87826 695.253 5.23242 696.045 3.98242C696.878 2.69076 697.316 2.02409 697.358 1.98242C697.649 1.56576 697.795 1.16992 697.795 0.794922C697.795 0.503255 697.92 0.378255 698.17 0.419922C698.462 0.419922 698.774 0.524089 699.108 0.732422C699.441 0.940755 699.753 1.23242 700.045 1.60742C700.378 1.98242 700.587 2.37826 700.67 2.79492Z" fill="white"/>
</g>
<defs>
<filter id="filter0_d_196_654" x="0.607605" y="0.357422" width="704.188" height="87.4375" filterUnits="userSpaceOnUse" color-interpolation-filters="sRGB">
<feFlood flood-opacity="0" result="BackgroundImageFix"/>
<feColorMatrix in="SourceAlpha" type="matrix" values="0 0 0 0 0 0 0 0 0 0 0 0 0 0 0 0 0 0 127 0" result="hardAlpha"/>
<feOffset dy="4"/>
<feGaussianBlur stdDeviation="2"/>
<feComposite in2="hardAlpha" operator="out"/>
<feColorMatrix type="matrix" values="0 0 0 0 0 0 0 0 0 0 0 0 0 0 0 0 0 0 0.25 0"/>
<feBlend mode="normal" in2="BackgroundImageFix" result="effect1_dropShadow_196_654"/>
<feBlend mode="normal" in="SourceGraphic" in2="effect1_dropShadow_196_654" result="shape"/>
</filter>
</defs>
</svg>
